SplineFontDB: 3.2
FontName: D-DIN-PRO-ExtraBold-Italic
FullName: D-DIN-PRO-ExtraBold-Italic
FamilyName: D-DIN-PRO
Weight: Extrabold
Copyright: Copyright (c) CyberFei. All rights reserved
Version: 1.1.0
ItalicAngle: -13
UnderlinePosition: -150
UnderlineWidth: 50
Ascent: 831
Descent: 169
InvalidEm: 0
sfntRevision: 0x00010000
LayerCount: 2
Layer: 0 0 "Back" 1
Layer: 1 0 "Fore" 0
XUID: [1021 868 -1451673819 16720]
StyleMap: 0x0020
FSType: 4
OS2Version: 3
OS2_WeightWidthSlopeOnly: 0
OS2_UseTypoMetrics: 0
CreationTime: 1462909513
ModificationTime: 1778060079
PfmFamily: 17
TTFWeight: 800
TTFWidth: 5
LineGap: 86
VLineGap: 0
Panose: 2 11 8 4 3 2 2 3 2 4
OS2TypoAscent: 831
OS2TypoAOffset: 0
OS2TypoDescent: -169
OS2TypoDOffset: 0
OS2TypoLinegap: 86
OS2WinAscent: 902
OS2WinAOffset: 0
OS2WinDescent: 184
OS2WinDOffset: 0
HheadAscent: 831
HheadAOffset: 0
HheadDescent: -169
HheadDOffset: 0
OS2SubXSize: 650
OS2SubYSize: 600
OS2SubXOff: 0
OS2SubYOff: 75
OS2SupXSize: 650
OS2SupYSize: 600
OS2SupXOff: 0
OS2SupYOff: 350
OS2StrikeYSize: 50
OS2StrikeYPos: 312
OS2CapHeight: 690
OS2XHeight: 520
OS2Vendor: 'MONO'
OS2CodePages: 20000001.00000000
OS2UnicodeRanges: 8000006f.4000000a.00000000.00000000
Lookup: 1 0 0 "'aalt' Access All Alternates lookup 0" { "'aalt' Access All Alternates lookup 0 subtable"  } ['aalt' ('DFLT' <'dflt' > ) ]
Lookup: 1 0 0 "'sups' Superscript lookup 1" { "'sups' Superscript lookup 1 subtable" ("superior") } ['sups' ('DFLT' <'dflt' > ) ]
Lookup: 4 0 0 "'frac' Diagonal Fractions lookup 2" { "'frac' Diagonal Fractions lookup 2 subtable"  } ['frac' ('DFLT' <'dflt' > ) ]
Lookup: 6 0 0 "'ordn' Ordinals lookup 3" { "'ordn' Ordinals lookup 3 contextual 0"  "'ordn' Ordinals lookup 3 contextual 1"  } ['ordn' ('DFLT' <'dflt' > ) ]
Lookup: 4 0 0 "'dlig' Discretionary Ligatures lookup 4" { "'dlig' Discretionary Ligatures lookup 4 subtable"  } ['dlig' ('DFLT' <'dflt' > ) ]

StartChar: .notdef
Encoding: 65536 -1 0
Width: 601
GlyphClass: 1
Flags: MW
HStem: 0.709961 53.3506<85.3477 384.108 85.3477 425.142> 637.03 53.3496<219.938 518.698 219.938 219.938>
VStem: 103.362 53.3496 455.473 53.3496
LayerCount: 2
Fore
SplineSet
178.904296875 690.379882812 m 1
 584.364257812 690.379882812 l 1
 425.141601562 0.7099609375 l 1
 19.681640625 0.7099609375 l 1
 178.904296875 690.379882812 l 1
85.34765625 54.060546875 m 1
 384.108398438 54.060546875 l 1
 518.698242188 637.030273438 l 1
 219.9375 637.030273438 l 1
 85.34765625 54.060546875 l 1
EndSplineSet
EndChar

StartChar: exclam
Encoding: 33 33 3
Width: 259
GlyphClass: 2
Flags: MW
HStem: 0.709961 146.47<12.7568 126.382 -21.0586 160.197> 670.38 20G<132.769 291 291 291>
VStem: 62.6221 147.44 81.5693 109.546
LayerCount: 2
Fore
SplineSet
132.768554688 690.379882812 m 1xd0
 291 690.379882812 l 1
 158.94140625 223.810546875 l 1
 49.3955078125 223.810546875 l 1
 132.768554688 690.379882812 l 1xd0
12.7568359375 147.1796875 m 1xe0
 160.197265625 147.1796875 l 1
 126.381835938 0.7099609375 l 1
 -21.05859375 0.7099609375 l 1
 12.7568359375 147.1796875 l 1xe0
EndSplineSet
EndChar

StartChar: quotedbl
Encoding: 34 34 4
Width: 388
GlyphClass: 2
Flags: MW
HStem: 380.95 309.43<117.794 180.217 46.3564 251.654 229.687 229.687 229.687 251.654 301.124 362.577>
VStem: 42.252 133.86 225.582 132.891
LayerCount: 2
Fore
SplineSet
117.793945312 690.379882812 m 1
 251.654296875 690.379882812 l 1
 180.216796875 380.950195312 l 1
 46.3564453125 380.950195312 l 1
 117.793945312 690.379882812 l 1
301.124023438 690.379882812 m 1
 434.014648438 690.379882812 l 1
 362.577148438 380.950195312 l 1
 229.686523438 380.950195312 l 1
 301.124023438 690.379882812 l 1
EndSplineSet
EndChar

StartChar: numbersign
Encoding: 35 35 5
Width: 542
GlyphClass: 2
Flags: MW
HStem: 0.709961 21G<-16.6768 103.783 -16.6768 -16.6768 186.054 307.483 186.054 186.054> 198.59 109.61<10.1611 55.1973 -15.1445 94.874 215.345 257.928 10.1611 175.657 418.94 468.885> 394.53 109.61<79.6475 126.578 54.3428 166.246 79.6475 247.049 286.7 329.309 489.431 538.372> 670.38 20G<233.493 353.947 353.947 353.947 436.224 556.678 556.678 556.678>
LayerCount: 2
Fore
SplineSet
563.676757812 504.140625 m 1
 538.372070312 394.530273438 l 1
 449.859375 394.530273438 l 1
 418.940429688 308.200195312 l 1
 494.190429688 308.200195312 l 1
 468.884765625 198.58984375 l 1
 379.357421875 198.58984375 l 1
 307.483398438 0.7099609375 l 1
 186.053710938 0.7099609375 l 1
 257.927734375 198.58984375 l 1
 175.657226562 198.58984375 l 1
 103.783203125 0.7099609375 l 1
 -16.6767578125 0.7099609375 l 1
 55.197265625 198.58984375 l 1
 -15.14453125 198.58984375 l 1
 10.1611328125 308.200195312 l 1
 94.8740234375 308.200195312 l 1
 126.578125 394.530273438 l 1
 54.3427734375 394.530273438 l 1
 79.6474609375 504.140625 l 1
 166.24609375 504.140625 l 1
 233.493164062 690.379882812 l 1
 353.947265625 690.379882812 l 1
 286.700195312 504.140625 l 1
 368.9765625 504.140625 l 1
 436.223632812 690.379882812 l 1
 556.677734375 690.379882812 l 1
 489.430664062 504.140625 l 1
 563.676757812 504.140625 l 1
297.604492188 308.200195312 m 1
 329.30859375 394.530273438 l 1
 247.048828125 394.530273438 l 1
 215.344726562 308.200195312 l 1
 297.604492188 308.200195312 l 1
EndSplineSet
EndChar

StartChar: dollar
Encoding: 36 36 6
Width: 506
GlyphClass: 2
Flags: MW
HStem: -57.4893 210.49<167.216 216.733 96.4531 233.94> 544.88 194<280.311 322.271>
VStem: 33.0166 131.274 48.0703 136.771 193.57 120.28 325.489 138.713
LayerCount: 2
Fore
SplineSet
200.4921875 293.80859375 m 2xec
 93.0048828125 313.828125 49.7890625 370.616210938 73.5615234375 473.584960938 c 0
 85.0380859375 523.297851562 108.29296875 565.315429688 143.54296875 598.439453125 c 0
 176.616210938 629.516601562 216.501953125 650.11328125 262.163085938 660.276367188 c 1
 280.310546875 738.879882812 l 1
 400.590820312 738.879882812 l 1
 382.188476562 659.171875 l 1
 407.49609375 652.369140625 505.405273438 622.309570312 481.547851562 476.220703125 c 2
 479.770507812 465.33984375 l 1
 345.131835938 465.33984375 l 1
 350.860351562 506.90234375 353.243164062 544.879882812 291.297851562 544.879882812 c 0
 251.715820312 544.879882812 222.424804688 525.963867188 212.34765625 482.315429688 c 0xdc
 205.365234375 452.072265625 212.595703125 429.357421875 267.9609375 418.595703125 c 2
 320.729492188 407.9375 l 2
 444.6796875 383.758789062 449.34375 298.811523438 433.036132812 228.174804688 c 0
 420.693359375 174.712890625 396.749023438 130.6875 360.637695312 97.40625 c 0
 326.827148438 66.2451171875 285.678710938 45.701171875 238.22265625 35.5888671875 c 1
 216.733398438 -57.4892578125 l 1
 96.453125 -57.4892578125 l 1
 117.41015625 33.287109375 l 1
 31.5400390625 49.6142578125 -18.4169921875 113.770507812 2.921875 230.588867188 c 2
 4.8740234375 241.271484375 l 1
 136.1484375 241.271484375 l 1
 130.655273438 191.720703125 130.700195312 153.000976562 203.732421875 153.000976562 c 0
 264.1484375 153.000976562 284.172851562 184.2109375 292.083984375 218.4765625 c 0
 300.5859375 255.303710938 291.39453125 276.345703125 245.958984375 285.087890625 c 0
 245.955078125 285.088867188 200.4921875 293.80859375 200.4921875 293.80859375 c 2xec
216.806640625 680.196289062 m 1024
EndSplineSet
EndChar

StartChar: percent
Encoding: 37 37 7
Width: 898
GlyphClass: 2
Flags: MW
HStem: 0.709961 21G<118.312 236.651 118.312 118.312> 676.2 21G
VStem: 44.1934 120.28 205.213 120.28 581.574 120.28 742.594 120.28
LayerCount: 2
Fore
SplineSet
160.767578125 256.790039062 m 0
 99.8095703125 256.790039062 24.310546875 277.049804688 55.3515625 411.504882812 c 2
 87.15234375 549.245117188 l 2
 93.4052734375 576.33203125 121.5546875 696.200195312 262.213867188 696.200195312 c 0
 334.912109375 696.200195312 395.78515625 667.639648438 368.452148438 549.245117188 c 2
 336.651367188 411.504882812 l 2
 314.243164062 314.44140625 259.412109375 256.790039062 160.767578125 256.790039062 c 0
782.727539062 695.23046875 m 1
 236.651367188 0.7099609375 l 1
 118.311523438 0.7099609375 l 1
 663.388671875 695.23046875 l 1
 782.727539062 695.23046875 l 1
217.491210938 416.356445312 m 2
 245.260742188 536.635742188 l 2
 250.818359375 560.7109375 252.461914062 576.8828125 251.413085938 583.356445312 c 0
 250.733398438 587.551757812 248.420898438 590.469726562 237.803710938 590.469726562 c 0
 227.212890625 590.469726562 223.16796875 587.5078125 220.2421875 583.0703125 c 0
 216.063476562 576.734375 210.07421875 560.6875 204.520507812 536.634765625 c 2
 176.751953125 416.35546875 l 2
 171.345703125 392.936523438 169.766601562 377.125 170.822265625 370.604492188 c 0
 171.46484375 366.643554688 173.90234375 363.490234375 185.401367188 363.490234375 c 0
 197.263671875 363.490234375 200.732421875 366.670898438 202.514648438 369.565429688 c 0
 206.013671875 375.250976562 211.775390625 391.59765625 217.491210938 416.356445312 c 2
637.684570312 -5.109375 m 0
 576.73828125 -5.109375 501.225585938 15.142578125 532.268554688 149.604492188 c 2
 564.068359375 287.34375 l 2
 570.328125 314.458984375 598.486328125 434.299804688 739.129882812 434.299804688 c 0
 811.923828125 434.299804688 872.68359375 405.66015625 845.368164062 287.345703125 c 2
 813.568359375 149.606445312 l 2
 791.159179688 52.5419921875 736.329101562 -5.109375 637.684570312 -5.109375 c 0
694.407226562 154.453125 m 2
 722.17578125 274.733398438 l 2
 727.734375 298.809570312 729.377929688 314.98046875 728.330078125 321.454101562 c 0
 727.649414062 325.650390625 725.337890625 328.568359375 714.720703125 328.568359375 c 0
 704.129882812 328.568359375 700.083984375 325.60546875 697.158203125 321.16796875 c 0
 692.98046875 314.833007812 686.990234375 298.787109375 681.4375 274.734375 c 2
 653.66796875 154.454101562 l 2
 648.26171875 131.03515625 646.682617188 115.224609375 647.73828125 108.703125 c 0
 648.380859375 104.7421875 650.819335938 101.588867188 662.318359375 101.588867188 c 0
 674.180664062 101.588867188 677.649414062 104.770507812 679.430664062 107.665039062 c 0
 682.9296875 113.349609375 688.69140625 129.694335938 694.407226562 154.453125 c 2
EndSplineSet
EndChar

StartChar: ampersand
Encoding: 38 38 8
Width: 599
GlyphClass: 2
Flags: MW
HStem: -9.96094 124.16<167.093 189.599> 0.708984 124.161<397.166 506.183 474.661 477.519> 587.56 113.49<311.89 336.677>
VStem: 49.0391 134.831 97.54 132.89 313.85 130.952
LayerCount: 2
Fore
SplineSet
484.848632812 536.634765625 m 0xac
 469.655273438 470.823242188 423.600585938 422.497070312 338.46875 361.426757812 c 1
 387.309570312 266.169921875 l 1
 471.486328125 347.642578125 l 1
 543.83203125 267.21875 l 1
 438.50390625 164.853515625 l 1
 447.923828125 146.008789062 l 2
 456.333984375 130.435546875 465.662109375 124.870117188 474.661132812 124.870117188 c 2
 506.182617188 124.870117188 l 1
 477.518554688 0.708984375 l 1
 420.7734375 0.708984375 l 2x6c
 373.55859375 0.708984375 353.122070312 15.71484375 329.115234375 60.1201171875 c 1
 282.702148438 20.783203125 228.607421875 -9.9609375 150.58984375 -9.9609375 c 0
 92.3837890625 -9.9609375 49.5400390625 6.9384765625 24.2138671875 41.6728515625 c 0
 -0.9306640625 76.1572265625 -6.705078125 121.715820312 6.00390625 176.764648438 c 0xb4
 25.787109375 262.455078125 84.9091796875 322.7734375 169.153320312 382.243164062 c 1
 134.399414062 454.900390625 126.85546875 490.151367188 137.36328125 535.665039062 c 0
 159.491210938 631.51171875 249.370117188 701.049804688 349.662109375 701.049804688 c 0
 453.877929688 701.049804688 505.934570312 627.965820312 484.848632812 536.634765625 c 0xac
324.427734375 587.559570312 m 0
 299.3515625 587.559570312 278.337890625 570.68359375 271.373046875 540.514648438 c 0
 266.288085938 518.490234375 270.569335938 500.986328125 288.654296875 462.387695312 c 1
 330.649414062 492.999023438 348.293945312 512.366210938 354.79296875 540.514648438 c 0
 361.299804688 568.701171875 348.92578125 587.559570312 324.427734375 587.559570312 c 0
219.598632812 279.08203125 m 1
 176.866210938 246.903320312 150.581054688 218.981445312 142.849609375 185.494140625 c 0
 133.528320312 145.118164062 145.23046875 114.19921875 188.955078125 114.19921875 c 0xb4
 217.204101562 114.19921875 240.639648438 126.502929688 278.856445312 160.803710938 c 1
 219.598632812 279.08203125 l 1
EndSplineSet
EndChar

StartChar: quotesingle
Encoding: 39 39 9
Width: 203
GlyphClass: 2
Flags: MW
HStem: 380.95 309.43<117.794 180.217 46.3564 251.654>
VStem: 42.252 133.86
LayerCount: 2
Fore
SplineSet
117.793945312 690.379882812 m 1
 251.654296875 690.379882812 l 1
 180.216796875 380.950195312 l 1
 46.3564453125 380.950195312 l 1
 117.793945312 690.379882812 l 1
EndSplineSet
EndChar

StartChar: parenleft
Encoding: 40 40 10
Width: 318
GlyphClass: 2
Flags: MW
VStem: 49.042 139.681
LayerCount: 2
Fore
SplineSet
41.166015625 329.0546875 m 0
 89.0556640625 536.490234375 205.528320312 672.77734375 266.744140625 738.880859375 c 1
 375.924804688 738.880859375 l 1
 365.053710938 724.11328125 l 2
 338.783203125 688.424804688 229.259765625 538.758789062 180.846679688 329.055664062 c 0
 171.696289062 289.421875 133.55078125 120.043945312 182.662109375 -66.0771484375 c 2
 186.5390625 -80.7685546875 l 1
 76.455078125 -80.7685546875 l 1
 46.7158203125 -13.869140625 -5.9755859375 124.86328125 41.166015625 329.0546875 c 0
EndSplineSet
EndChar

StartChar: parenright
Encoding: 41 41 11
Width: 318
GlyphClass: 2
Flags: MW
VStem: 143.132 139.681
LayerCount: 2
Fore
SplineSet
135.255859375 329.0546875 m 0
 153.600585938 408.517578125 177.939453125 562.015625 133.459960938 724.111328125 c 2
 129.408203125 738.87890625 l 1
 238.588867188 738.87890625 l 1
 269.10546875 673.155273438 322.892578125 536.77734375 274.935546875 329.053710938 c 0
 227.74609375 124.653320312 110.784179688 -14.1572265625 50.416015625 -80.76953125 c 1
 -59.66796875 -80.76953125 l 1
 -49.0068359375 -66.078125 l 2
 6.185546875 9.986328125 94.3916015625 152.053710938 135.255859375 329.0546875 c 0
EndSplineSet
EndChar

StartChar: asterisk
Encoding: 42 42 12
Width: 384
GlyphClass: 2
Flags: MW
HStem: 378.04 312.34<230.314 245.505 158.205 317.614>
VStem: 154.772 87.2998
LayerCount: 2
Fore
SplineSet
245.504882812 378.040039062 m 1
 158.205078125 378.040039062 l 1
 178.208007812 464.680664062 l 1
 99.7607421875 424.7421875 l 1
 75.7158203125 494.80078125 l 1
 156.217773438 535.665039062 l 1
 94.5849609375 576.529296875 l 1
 150.909179688 646.502929688 l 1
 211.163085938 607.424804688 l 1
 230.314453125 690.379882812 l 1
 317.614257812 690.379882812 l 1
 298.283203125 606.649414062 l 1
 376.872070312 646.66015625 l 1
 399.666015625 576.458007812 l 1
 319.411132812 535.719726562 l 1
 382.052734375 494.778320312 l 1
 324.467773438 424.84765625 l 1
 265.302734375 463.793945312 l 1
 245.504882812 378.040039062 l 1
EndSplineSet
EndChar

StartChar: plus
Encoding: 43 43 13
Width: 532
GlyphClass: 2
Flags: MW
HStem: 213.141 130.949<47.5469 172.515 17.3145 202.747 333.697 457.694 47.5469 303.465>
VStem: 207.152 130.95
LayerCount: 2
Fore
SplineSet
303.46484375 213.140625 m 1
 267.634765625 57.9404296875 l 1
 136.684570312 57.9404296875 l 1
 172.514648438 213.140625 l 1
 17.314453125 213.140625 l 1
 47.546875 344.08984375 l 1
 202.747070312 344.08984375 l 1
 238.578125 499.290039062 l 1
 369.528320312 499.290039062 l 1
 333.697265625 344.08984375 l 1
 487.926757812 344.08984375 l 1
 457.694335938 213.140625 l 1
 303.46484375 213.140625 l 1
EndSplineSet
EndChar

StartChar: comma
Encoding: 44 44 14
Width: 203
GlyphClass: 2
Flags: MW
HStem: -168.202 322.172<-80.4258 127.814>
VStem: 42.252 133.86
LayerCount: 2
Fore
SplineSet
-6.0458984375 153.969726562 m 1
 127.814453125 153.969726562 l 1
 79.5849609375 -54.9365234375 l 1
 -80.42578125 -168.202148438 l 1
 -6.0458984375 153.969726562 l 1
EndSplineSet
EndChar

StartChar: hyphen
Encoding: 45 45 15
Width: 372
GlyphClass: 2
Flags: MW
HStem: 280.07 131.92<60.3125 316.977 29.8564 347.433>
VStem: 49.042 287.12
LayerCount: 2
Fore
SplineSet
60.3125 411.990234375 m 1
 347.432617188 411.990234375 l 1
 316.9765625 280.0703125 l 1
 29.8564453125 280.0703125 l 1
 60.3125 411.990234375 l 1
EndSplineSet
EndChar

StartChar: period
Encoding: 46 46 16
Width: 226
GlyphClass: 2
Flags: MW
HStem: 0.709961 158.11<-4.92578 113.771 -41.4287 150.274>
VStem: 42.252 155.2
LayerCount: 2
Fore
SplineSet
-4.92578125 158.8203125 m 1
 150.274414062 158.8203125 l 1
 113.771484375 0.7099609375 l 1
 -41.4287109375 0.7099609375 l 1
 -4.92578125 158.8203125 l 1
EndSplineSet
EndChar

StartChar: slash
Encoding: 47 47 17
Width: 411
GlyphClass: 2
Flags: MW
HStem: -8.99023 21G<-40.374 80.792 -40.374 -40.374> 675.23 20G<332.975 455.14 455.14 455.14>
VStem: 45.5459 332.932
LayerCount: 2
Fore
SplineSet
332.974609375 695.23046875 m 1
 455.139648438 695.23046875 l 1
 80.7919921875 -8.990234375 l 1
 -40.3740234375 -8.990234375 l 1
 332.974609375 695.23046875 l 1
EndSplineSet
EndChar

StartChar: zero
Encoding: 48 48 18
Width: 516
GlyphClass: 2
Flags: MW
HStem: -9.95996 130.95<195.306 221.037 195.306 253.988> 569.129 131.921<298.356 324.53>
VStem: 53.8926 148.409 326.461 147.441
LayerCount: 2
Fore
SplineSet
177.752929688 -9.9599609375 m 0
 61.70703125 -9.9599609375 -19.6591796875 44.58203125 23.3984375 231.084960938 c 2
 78.0400390625 467.765625 l 2
 89.291015625 516.498046875 135.392578125 701.049804688 341.903320312 701.049804688 c 0
 467.111328125 701.049804688 537.387695312 638.155273438 498.049804688 467.765625 c 2
 443.408203125 231.084960938 l 2
 409.934570312 86.095703125 330.22265625 -9.9599609375 177.752929688 -9.9599609375 c 0
298.4296875 241.75390625 m 2
 346.353515625 449.333984375 l 2
 357.25390625 496.55078125 359.407226562 528.946289062 354.662109375 545.549804688 c 0
 350.3046875 560.794921875 337.61328125 569.12890625 311.446289062 569.12890625 c 0
 285.266601562 569.12890625 268.98046875 560.807617188 257.916015625 545.668945312 c 0
 245.750976562 529.024414062 233.09765625 496.563476562 222.194335938 449.333984375 c 2
 174.270507812 241.75390625 l 2
 163.37109375 194.543945312 161.159179688 161.974609375 165.868164062 144.994140625 c 0
 170.215820312 129.31640625 182.626953125 120.990234375 207.985351562 120.990234375 c 0
 234.088867188 120.990234375 250.639648438 129.411132812 262.15625 144.994140625 c 0
 274.705078125 161.974609375 287.530273438 194.543945312 298.4296875 241.75390625 c 2
EndSplineSet
EndChar

StartChar: one
Encoding: 49 49 19
Width: 355
GlyphClass: 2
Flags: MW
HStem: 0.709961 21G<69.1514 216.592 69.1514 69.1514> 670.38 20G<235.166 375.814 375.814 375.814>
VStem: 152.832 147.44
LayerCount: 2
Fore
SplineSet
57.615234375 438.116210938 m 1
 95.1953125 600.896484375 l 1
 235.166015625 690.379882812 l 1
 375.814453125 690.379882812 l 1
 216.591796875 0.7099609375 l 1
 69.1513671875 0.7099609375 l 1
 188.9453125 519.595703125 l 1
 57.615234375 438.116210938 l 1
EndSplineSet
Substitution2: "'sups' Superscript lookup 1 subtable" uni00B9
Substitution2: "'aalt' Access All Alternates lookup 0 subtable" uni00B9
EndChar

StartChar: two
Encoding: 50 50 20
Width: 496
GlyphClass: 2
Flags: MW
HStem: 0.709961 131.92<189.679 376.642> 573.01 128.04<290.438 309.29>
VStem: 49.042 143.561 310.942 149.38
LayerCount: 2
Fore
SplineSet
334.142578125 701.049804688 m 0
 459.284179688 701.049804688 518.513671875 615.225585938 494.546875 511.415039062 c 2
 490.740234375 494.924804688 l 2
 481.287109375 453.978515625 461.471679688 403.57421875 390.025390625 332.54296875 c 2
 189.678710938 132.629882812 l 1
 407.09765625 132.629882812 l 1
 376.641601562 0.7099609375 l 1
 -31.728515625 0.7099609375 l 1
 -5.2861328125 115.243164062 l 1
 286.034179688 406.008789062 l 2
 317.077148438 437.83203125 334.944335938 467.133789062 341.135742188 493.955078125 c 2
 344.271484375 507.53515625 l 2
 349.22265625 528.982421875 347.134765625 544.5859375 339.2421875 555.8984375 c 0
 331.361328125 567.194335938 318.846679688 573.009765625 299.732421875 573.009765625 c 0
 281.142578125 573.009765625 239.361328125 565.705078125 224.811523438 502.685546875 c 2
 218.876953125 476.98046875 l 1
 75.31640625 476.98046875 l 1
 83.04296875 510.4453125 l 2
 108.5 620.7109375 206.140625 701.049804688 334.142578125 701.049804688 c 0
EndSplineSet
Substitution2: "'sups' Superscript lookup 1 subtable" uni00B2
Substitution2: "'aalt' Access All Alternates lookup 0 subtable" uni00B2
EndChar

StartChar: three
Encoding: 51 51 21
Width: 508
GlyphClass: 2
Flags: MW
HStem: -9.95996 128.041<168.293 209.406 168.293 227.514> 291.711 128.04<214.393 228.967 184.832 257.558> 573.01 128.04<303.201 326.836>
VStem: 49.0391 138.71 311.91 143.562 322.579 143.562
LayerCount: 2
Fore
SplineSet
427.137695312 194.225585938 m 2xf4
 396.348632812 60.8642578125 284.063476562 -9.9599609375 170.963867188 -9.9599609375 c 0
 106.666015625 -9.9599609375 58.880859375 5.4677734375 29.2919921875 37.640625 c 0
 -0.400390625 69.92578125 -8.083984375 115.7421875 5.1083984375 172.885742188 c 2
 12.162109375 203.44140625 l 1
 150.872070312 203.44140625 l 1
 145.162109375 178.706054688 l 2
 139.642578125 154.797851562 138.005859375 118.081054688 198.580078125 118.081054688 c 0
 220.232421875 118.081054688 237.506835938 124.811523438 252.329101562 137.967773438 c 0
 267.248046875 151.208984375 277.861328125 169.479492188 283.575195312 194.2265625 c 2
 287.606445312 211.686523438 l 2xf4
 297.682617188 255.333984375 288.287109375 291.7109375 228.966796875 291.7109375 c 2
 184.83203125 291.7109375 l 1
 214.392578125 419.750976562 l 1
 257.557617188 419.750976562 l 2
 282.57421875 419.750976562 327.059570312 428.791015625 341.208007812 490.076171875 c 2
 344.567382812 504.625976562 l 2
 349.638671875 526.591796875 353.942382812 573.009765625 299.73046875 573.009765625 c 0
 276.293945312 573.009765625 237.200195312 564.758789062 225.108398438 512.384765625 c 2
 218.950195312 485.709960938 l 1
 82.1806640625 485.709960938 l 1
 88.3388671875 512.384765625 l 2
 101.805664062 570.715820312 130.475585938 617.6953125 174.61328125 651.301757812 c 0
 218.646484375 684.829101562 272.259765625 701.049804688 334.141601562 701.049804688 c 0
 394.822265625 701.049804688 440.107421875 684.42578125 468.138671875 650.227539062 c 0
 496.1171875 616.091796875 503.264648438 570.184570312 490.368164062 514.325195312 c 2
 487.008789062 499.775390625 l 2xf8
 479.416015625 466.884765625 456.674804688 407.970703125 388.888671875 367.821289062 c 1
 417.200195312 349.225585938 453.04296875 306.434570312 431.392578125 212.655273438 c 2
 427.137695312 194.225585938 l 2xf4
EndSplineSet
Substitution2: "'sups' Superscript lookup 1 subtable" uni00B3
Substitution2: "'aalt' Access All Alternates lookup 0 subtable" uni00B3
EndChar

StartChar: four
Encoding: 52 52 22
Width: 524
GlyphClass: 2
Flags: MW
HStem: 0.709961 21G<211.741 359.182 211.741 211.741> 107.41 131.92<163.385 236.375 414.271 438.136 163.385 383.815> 670.38 20G<309.411 458.607 458.607 458.607>
VStem: 295.422 147.44
LayerCount: 2
Fore
SplineSet
414.271484375 239.330078125 m 1
 468.591796875 239.330078125 l 1
 438.135742188 107.41015625 l 1
 383.815429688 107.41015625 l 1
 359.181640625 0.7099609375 l 1
 211.741210938 0.7099609375 l 1
 236.375 107.41015625 l 1
 -19.705078125 107.41015625 l 1
 8.8779296875 231.217773438 l 1
 309.411132812 690.379882812 l 1
 458.607421875 690.379882812 l 1
 163.384765625 239.330078125 l 1
 266.831054688 239.330078125 l 1
 303.109375 396.469726562 l 1
 450.549804688 396.469726562 l 1
 414.271484375 239.330078125 l 1
EndSplineSet
EndChar

StartChar: five
Encoding: 53 53 23
Width: 500
GlyphClass: 2
Flags: MW
HStem: -9.95996 128.039<179.759 198.742> 334.39 127.069<224.665 330.264> 561.369 129.01<239.329 491.529 239.329 239.329>
VStem: 63.5908 129.98 315.791 143.562
LayerCount: 2
Fore
SplineSet
289.999023438 251.453125 m 2
 306.333007812 322.202148438 278.557617188 334.389648438 245.611328125 334.389648438 c 0
 203.717773438 334.389648438 185.555664062 307.587890625 172.822265625 288.798828125 c 1
 46.4208984375 288.798828125 l 1
 139.1328125 690.37890625 l 1
 521.313476562 690.37890625 l 1
 491.529296875 561.369140625 l 1
 239.329101562 561.369140625 l 1
 211.23046875 439.663085938 l 1
 239.057617188 454.240234375 269.205078125 461.458984375 301.138671875 461.458984375 c 0
 359.388671875 461.458984375 401.237304688 444.005859375 424.053710938 407.97265625 c 0
 446.713867188 372.1875 449.806640625 321.823242188 435.127929688 258.244140625 c 2
 420.572265625 195.194335938 l 2
 405.950195312 131.858398438 376.217773438 80.982421875 330.844726562 44.400390625 c 0
 285.504882812 7.845703125 230.400390625 -9.9599609375 167.083007812 -9.9599609375 c 0
 107.2109375 -9.9599609375 61.9560546875 5.06640625 32.87890625 36.1396484375 c 0
 3.6494140625 67.3740234375 -4.3046875 111.08984375 8.169921875 165.124023438 c 2
 13.8798828125 189.859375 l 1
 150.649414062 189.859375 l 1
 146.955078125 173.854492188 l 2
 137.502929688 132.915039062 162.875976562 118.079101562 196.642578125 118.079101562 c 0
 216.926757812 118.079101562 260.036132812 121.668945312 278.353515625 201.013671875 c 2
 289.999023438 251.453125 l 2
EndSplineSet
EndChar

StartChar: six
Encoding: 54 54 24
Width: 520
GlyphClass: 2
Flags: MW
HStem: -9.95996 128.039<178.604 211.719> 303.35 126.1<228.914 342.393> 670.379 20G<325.466 482.205 482.205 482.205>
VStem: 49.041 148.411 335.191 147.441
LayerCount: 2
Fore
SplineSet
10.9326171875 198.104492188 m 2
 17.8740234375 228.173828125 l 2
 26.65625 266.212890625 41.5244140625 309.51953125 99.3291015625 387.0546875 c 2
 325.465820312 690.37890625 l 1
 482.205078125 690.37890625 l 1
 286.19140625 426.711914062 l 1
 295.575195312 428.545898438 305.217773438 429.44921875 315.08984375 429.44921875 c 0
 369.696289062 429.44921875 410.58203125 411.828125 435.846679688 376.2890625 c 0
 461.139648438 340.708007812 466.298828125 292.420898438 452.5859375 233.025390625 c 2
 445.419921875 201.985351562 l 2
 430.317382812 136.567382812 398.4375 83.96875 349.487304688 46.154296875 c 0
 300.809570312 8.55078125 243.744140625 -9.9599609375 179.693359375 -9.9599609375 c 0
 113.212890625 -9.9599609375 63.8818359375 8.103515625 33.5986328125 45.2421875 c 0
 3.28125 82.4208984375 -3.8642578125 134.013671875 10.9326171875 198.104492188 c 2
209.251953125 118.079101562 m 0
 231.1796875 118.079101562 280.475585938 126.169921875 296.634765625 196.163085938 c 2
 303.577148438 226.233398438 l 2
 309.606445312 252.3515625 307.291992188 270.9921875 298.271484375 283.78125 c 0
 289.19140625 296.65625 274.454101562 303.349609375 252.025390625 303.349609375 c 0
 205.801757812 303.349609375 176.6875 273.228515625 166.061523438 227.204101562 c 2
 158.671875 195.194335938 l 2
 153.041015625 170.803710938 147.95703125 118.079101562 209.251953125 118.079101562 c 0
EndSplineSet
EndChar

StartChar: seven
Encoding: 55 55 25
Width: 461
GlyphClass: 2
Flags: MW
HStem: 0.709961 21G<-0.304688 149.516 -0.304688 -0.304688> 559.43 130.95<110.034 336.266 79.8018 515.494>
LayerCount: 2
Fore
SplineSet
515.494140625 690.379882812 m 1
 487.197265625 567.810546875 l 1
 149.515625 0.7099609375 l 1
 -0.3046875 0.7099609375 l 1
 336.265625 559.4296875 l 1
 79.8017578125 559.4296875 l 1
 110.034179688 690.379882812 l 1
 515.494140625 690.379882812 l 1
EndSplineSet
EndChar

StartChar: eight
Encoding: 56 56 26
Width: 528
GlyphClass: 2
Flags: MW
HStem: -9.95996 128.041<202.28 225.586 202.28 245.876> 297.532 125.129<244.409 294.246> 573.011 128.039<328.251 328.619>
VStem: 53.8906 143.56 66.501 142.589 332.28 142.591 343.92 142.592
LayerCount: 2
Fore
SplineSet
183.572265625 -9.9599609375 m 0xe2
 54.9990234375 -9.9599609375 -12.8330078125 74.1591796875 15.1103515625 195.196289062 c 2
 20.2607421875 217.505859375 l 2xf2
 26.61328125 245.021484375 49.873046875 315.939453125 126.76171875 362.28125 c 1
 108.93359375 378.654296875 79.2099609375 418.219726562 96.0224609375 491.044921875 c 2
 100.053710938 508.504882812 l 2
 115.197265625 574.09765625 161.263671875 638.125 234.846679688 674.998046875 c 0
 269.728515625 692.477539062 307.809570312 701.049804688 348.692382812 701.049804688 c 0
 479.021484375 701.049804688 531.875976562 610.084960938 508.423828125 508.504882812 c 2
 504.392578125 491.044921875 l 2xec
 497.459960938 461.016601562 484.262695312 433.629882812 464.802734375 409.374023438 c 0
 449.575195312 390.393554688 432.5234375 374.59375 413.796875 362.256835938 c 1
 431.447265625 347.04296875 443.954101562 327.98046875 451.0625 305.299804688 c 0
 459.51953125 278.315429688 460.208984375 249.2421875 453.106445312 218.4765625 c 2
 447.955078125 196.166015625 l 2
 418.653320312 69.2431640625 308.1796875 -9.9599609375 183.572265625 -9.9599609375 c 0xe2
361.578125 490.076171875 m 2xec
 365.833007812 508.505859375 l 2
 370.255859375 527.661132812 367.981445312 542.668945312 359.396484375 554.916015625 c 0
 350.939453125 566.981445312 338.106445312 573.010742188 319.130859375 573.010742188 c 0
 300.154296875 573.010742188 284.538085938 566.981445312 270.509765625 554.916015625 c 0
 256.270507812 542.668945312 247.065429688 527.661132812 242.642578125 508.505859375 c 2
 238.387695312 490.076171875 l 2
 233.453125 468.698242188 235.561523438 452.711914062 243.733398438 440.663085938 c 0
 251.809570312 428.75390625 264.703125 422.661132812 284.419921875 422.661132812 c 0
 304.072265625 422.661132812 319.763671875 428.854492188 333.43359375 441.0625 c 0
 347.396484375 453.532226562 356.810546875 469.421875 361.578125 490.076171875 c 2xec
305.587890625 197.135742188 m 2xf2
 310.961914062 220.416015625 l 2
 316.463867188 244.247070312 313.844726562 262.438476562 303.877929688 276.494140625 c 0
 293.990234375 290.4375 278.500976562 297.532226562 255.53125 297.532226562 c 0
 233.287109375 297.532226562 214.624023438 290.491210938 197.86328125 276.416015625 c 0
 181.109375 262.346679688 169.982421875 244.196289062 164.4921875 220.416015625 c 2
 159.118164062 197.135742188 l 2
 153.442382812 172.551757812 155.862304688 153.793945312 165.489257812 139.448242188 c 0
 174.95703125 125.340820312 190.458984375 118.081054688 214.1015625 118.081054688 c 0
 237.071289062 118.081054688 255.8359375 125.174804688 272.162109375 139.119140625 c 0
 288.49609375 153.068359375 299.7578125 171.885742188 305.587890625 197.135742188 c 2xf2
EndSplineSet
EndChar

StartChar: nine
Encoding: 57 57 27
Width: 520
GlyphClass: 2
Flags: MW
HStem: 0.709961 21G<41.3301 198.07 41.3301 41.3301> 261.641 126.101<181.143 294.623> 573.012 128.038<311.816 344.93>
VStem: 49.041 147.441 334.222 148.41
LayerCount: 2
Fore
SplineSet
208.446289062 261.640625 m 0
 153.83984375 261.640625 112.953125 279.262695312 87.689453125 314.801757812 c 0
 62.3955078125 350.381835938 57.236328125 398.669921875 70.94921875 458.065429688 c 2
 78.115234375 489.10546875 l 2
 93.2177734375 554.5234375 125.09765625 607.12109375 174.048828125 644.935546875 c 0
 222.725585938 682.5390625 279.791015625 701.049804688 343.841796875 701.049804688 c 0
 410.323242188 701.049804688 459.653320312 682.986328125 489.9375 645.84765625 c 0
 520.254882812 608.668945312 527.3984375 557.075195312 512.6015625 492.985351562 c 2
 505.659179688 462.915039062 l 2
 497.243164062 426.461914062 482.108398438 381.700195312 424.206054688 304.034179688 c 2
 198.0703125 0.7099609375 l 1
 41.330078125 0.7099609375 l 1
 237.34375 264.377929688 l 1
 227.959960938 262.543945312 218.317382812 261.640625 208.446289062 261.640625 c 0
271.509765625 387.741210938 m 0
 317.736328125 387.741210938 346.84765625 417.861328125 357.473632812 463.88671875 c 2
 364.864257812 495.897460938 l 2
 370.495117188 520.287109375 375.578125 573.01171875 314.282226562 573.01171875 c 0
 292.354492188 573.01171875 243.060546875 564.921875 226.900390625 494.926757812 c 2
 219.958007812 464.857421875 l 2
 213.927734375 438.737304688 216.2421875 420.096679688 225.26171875 407.30859375 c 0
 234.34375 394.43359375 249.08203125 387.741210938 271.509765625 387.741210938 c 0
EndSplineSet
EndChar

StartChar: colon
Encoding: 58 58 28
Width: 226
GlyphClass: 2
Flags: MW
HStem: 0.709961 158.11<-4.92578 113.771 -41.4287 150.274> 328.57 158.109<70.7656 189.464 34.2637 225.966>
VStem: 42.252 155.2
LayerCount: 2
Fore
SplineSet
-4.92578125 158.8203125 m 1
 150.274414062 158.8203125 l 1
 113.771484375 0.7099609375 l 1
 -41.4287109375 0.7099609375 l 1
 -4.92578125 158.8203125 l 1
70.765625 486.6796875 m 1
 225.965820312 486.6796875 l 1
 189.463867188 328.5703125 l 1
 34.263671875 328.5703125 l 1
 70.765625 486.6796875 l 1
155.45703125 515.294921875 m 1024
EndSplineSet
EndChar

StartChar: semicolon
Encoding: 59 59 29
Width: 226
GlyphClass: 2
Flags: MW
HStem: 328.57 158.109<70.7656 189.464 34.2637 225.966>
VStem: 42.252 155.2 61.6523 133.859
LayerCount: 2
Fore
SplineSet
70.765625 486.6796875 m 1xc0
 225.965820312 486.6796875 l 1
 189.463867188 328.5703125 l 1
 34.263671875 328.5703125 l 1
 70.765625 486.6796875 l 1xc0
13.3544921875 153.969726562 m 1xa0
 147.213867188 153.969726562 l 1
 98.984375 -54.9365234375 l 1
 -61.025390625 -168.202148438 l 1
 13.3544921875 153.969726562 l 1xa0
151.577148438 515.294921875 m 1024
EndSplineSet
EndChar

StartChar: less
Encoding: 60 60 30
Width: 532
GlyphClass: 2
Flags: W
LayerCount: 2
Fore
SplineSet
18.9599609375 220.265625 m 1
 45.2333984375 334.069335938 l 1
 524.329101562 505.967773438 l 1
 493.510742188 372.4765625 l 1
 220.26953125 276.720703125 l 1
 449.504882812 181.8671875 l 1
 418.44921875 47.349609375 l 1
 18.9599609375 220.265625 l 1
EndSplineSet
EndChar

StartChar: equal
Encoding: 61 61 31
Width: 532
GlyphClass: 2
Flags: MW
HStem: 112.26 129.98<24.0332 433.435 -5.97559 463.443> 314.99 129.979<70.8369 480.239 40.8291 510.247>
LayerCount: 2
Fore
SplineSet
70.8369140625 444.969726562 m 1
 510.247070312 444.969726562 l 1
 480.239257812 314.990234375 l 1
 40.8291015625 314.990234375 l 1
 70.8369140625 444.969726562 l 1
24.033203125 242.240234375 m 1
 463.443359375 242.240234375 l 1
 433.434570312 112.259765625 l 1
 -5.9755859375 112.259765625 l 1
 24.033203125 242.240234375 l 1
EndSplineSet
EndChar

StartChar: greater
Encoding: 62 62 32
Width: 532
GlyphClass: 2
Flags: W
LayerCount: 2
Fore
SplineSet
54.1005859375 372.4765625 m 1
 84.9189453125 505.967773438 l 1
 484.643554688 334.069335938 l 1
 458.370117188 220.265625 l 1
 -20.9609375 47.349609375 l 1
 10.0947265625 181.8671875 l 1
 283.126953125 276.720703125 l 1
 54.1005859375 372.4765625 l 1
EndSplineSet
EndChar

StartChar: question
Encoding: 63 63 33
Width: 456
GlyphClass: 2
Flags: MW
HStem: 0.710938 142.59<103.042 217.562 70.1221 250.482> 570.1 129.979<277.757 295.971>
VStem: 31.3633 137.707 153.803 147.44 285.723 144.529
LayerCount: 2
Fore
SplineSet
308.697265625 700.079101562 m 0xe8
 429.198242188 700.079101562 490.190429688 622.79296875 465.8203125 517.234375 c 0
 455.106445312 470.829101562 431.708984375 432.71875 383.311523438 383.053710938 c 2
 309.559570312 307.370117188 l 2
 284.28515625 281.915039062 276.305664062 267.763671875 269.62890625 238.844726562 c 2
 257.872070312 187.919921875 l 1
 117.22265625 187.919921875 l 1
 130.995117188 247.575195312 l 2
 143.59375 302.147460938 158.013671875 326.075195312 200.982421875 369.235351562 c 2
 270.205078125 438.078125 l 2
 304.38671875 472.255859375 315.237304688 491.014648438 320.395507812 513.35546875 c 0
 328.3515625 547.818359375 317.130859375 570.099609375 274.810546875 570.099609375 c 0
 244.341796875 570.099609375 216.2578125 560.317382812 201.692382812 503.395507812 c 2
 199.151367188 493.46875 l 1
 61.4443359375 493.46875 l 1
 70.2158203125 528.255859375 88.1044921875 599.202148438 151.21484375 649.637695312 c 0
 193.825195312 683.69140625 246.81640625 700.079101562 308.697265625 700.079101562 c 0xe8
103.041992188 143.30078125 m 1xd0
 250.482421875 143.30078125 l 1
 217.5625 0.7109375 l 1
 70.1220703125 0.7109375 l 1
 103.041992188 143.30078125 l 1xd0
EndSplineSet
EndChar

StartChar: at
Encoding: 64 64 34
Width: 868
GlyphClass: 2
Flags: MW
HStem: -131.21 117.372<287.427 389.004> 53.0898 109.611<591.11 608.059> 399.379 111.551<434.763 447.671 371.749 454.689> 580.773 117.366<478.897 517.167>
VStem: 49.042 129.01 251.771 129.011 490.393 128.04 699.912 129.008
LayerCount: 2
Fore
SplineSet
152.037109375 250.48828125 m 2
 116.37890625 96.0361328125 182.09375 -13.837890625 352.427734375 -13.837890625 c 0
 443.580078125 -13.837890625 503.553710938 8.8857421875 569.8359375 39.1181640625 c 1
 598.51953125 -60.9033203125 l 1
 534.392578125 -94.013671875 452.677734375 -131.209960938 325.330078125 -131.209960938 c 0
 249.5234375 -131.209960938 185.473632812 -115.357421875 133.655273438 -83.435546875 c 0
 81.8876953125 -51.544921875 45.958984375 -6.59375 26.3134765625 50.951171875 c 0
 6.642578125 108.577148438 5.5830078125 174.928710938 22.802734375 249.514648438 c 2
 38.478515625 317.4140625 l 2
 55.697265625 391.999023438 87.3935546875 458.3515625 133.673828125 515.9765625 c 0
 179.889648438 573.521484375 236.57421875 618.474609375 303.06640625 650.365234375 c 0
 369.625 682.287109375 440.994140625 698.139648438 516.80078125 698.139648438 c 0
 745.92578125 698.139648438 870.5625 543.546875 819.4765625 322.265625 c 2
 803.799804688 254.365234375 l 2
 789.092773438 190.659179688 761.525390625 140.38671875 720.010742188 105.24609375 c 0
 679.0546875 70.5771484375 632.900390625 53.08984375 583.217773438 53.08984375 c 0
 544.875976562 53.08984375 496.358398438 62.787109375 473.809570312 106.858398438 c 1
 440.5625 70.6357421875 393.797851562 53.08984375 336.837890625 53.08984375 c 0
 255.213867188 53.08984375 189.353515625 92.8076171875 223.068359375 238.844726562 c 2
 242.775390625 324.205078125 l 2
 260.274414062 400 307.749023438 510.9296875 435.749023438 510.9296875 c 0
 459.592773438 510.9296875 495.828125 506.01171875 519.243164062 479.737304688 c 1
 523.981445312 500.260742188 l 1
 650.08203125 500.260742188 l 1
 583.907226562 213.625976562 l 2
 581.268554688 202.198242188 572.724609375 162.701171875 609.495117188 162.701171875 c 0
 627.173828125 162.701171875 655.09375 169.040039062 674.568359375 253.396484375 c 2
 690.244140625 321.295898438 l 2
 706.159179688 390.231445312 711.323242188 493.78515625 622.533203125 549.024414062 c 0
 588.736328125 570.051757812 544.62890625 580.7734375 489.704101562 580.7734375 c 0
 406.939453125 580.7734375 338.071289062 557.248046875 281.493164062 511.032226562 c 0
 224.870117188 464.779296875 186.893554688 401.469726562 167.936523438 319.358398438 c 2
 152.037109375 250.48828125 l 2
390.72265625 164.639648438 m 0
 409.916992188 164.639648438 445.583007812 169.081054688 462.361328125 241.75390625 c 2
 481.172851562 323.234375 l 2
 497.673828125 394.708007812 464.461914062 399.37890625 444.916992188 399.37890625 c 0
 424.609375 399.37890625 410.288085938 392.98046875 399.04296875 380.926757812 c 0
 387.040039062 368.061523438 377.603515625 349.403320312 371.786132812 324.204101562 c 2
 353.422851562 244.6640625 l 2
 346.965820312 216.694335938 347.396484375 196.43359375 353.087890625 183.374023438 c 0
 358.390625 171.20703125 369.727539062 164.639648438 390.72265625 164.639648438 c 0
EndSplineSet
EndChar

StartChar: A
Encoding: 65 65 35
Width: 607
GlyphClass: 2
Flags: MW
HStem: 0.709961 21G<-78.6494 -78.6494 -78.6494 77.1201 373.523 373.523 373.523 530.282> 130.69 126.1<217.312 351.521 217.312 362.791 147.868 351.521> 670.38 20G<325.456 443.623 443.623 443.623>
AnchorPoint: "Anchor-0" 382 680 basechar 0
LayerCount: 2
Fore
SplineSet
-78.6494140625 0.7099609375 m 1
 325.456054688 690.379882812 l 1
 443.623046875 690.379882812 l 1
 530.282226562 0.7099609375 l 1
 373.5234375 0.7099609375 l 1
 362.791015625 130.690429688 l 1
 147.868164062 130.690429688 l 1
 77.1201171875 0.7099609375 l 1
 -78.6494140625 0.7099609375 l 1
217.311523438 256.790039062 m 1
 351.521484375 256.790039062 l 1
 333.182617188 469.7578125 l 1
 217.311523438 256.790039062 l 1
EndSplineSet
Substitution2: "Single Substitution lookup 6 subtable" ordfeminine
Substitution2: "'aalt' Access All Alternates lookup 0 subtable" ordfeminine
EndChar

StartChar: B
Encoding: 66 66 36
Width: 599
GlyphClass: 2
Flags: MW
HStem: 0.709961 130.951<156.613 257.815> 285.891 130.95<222.452 311.045 192.22 333.517> 559.431 130.949<255.371 366.436 255.371 255.371>
VStem: 62.6211 147.44 400.182 148.409 409.881 147.44
LayerCount: 2
Fore
SplineSet
473.840820312 355.697265625 m 1xf8
 498.922851562 339.022460938 542.274414062 297.997070312 520.333007812 202.956054688 c 0xf4
 505.829101562 140.133789062 475.276367188 89.7646484375 428.3359375 53.87109375 c 0
 381.495117188 18.0546875 324.213867188 0.7099609375 257.815429688 0.7099609375 c 2
 -21.0595703125 0.7099609375 l 1
 138.163085938 690.379882812 l 1
 406.368164062 690.379882812 l 2
 473.31640625 690.379882812 523.1328125 673.765625 554.1015625 639.32421875 c 0
 585.198242188 604.73828125 593.006835938 555.556640625 578.784179688 493.955078125 c 0
 573.592773438 471.466796875 551.380859375 399.171875 473.840820312 355.697265625 c 1xf8
428.583984375 486.196289062 m 0xf8
 435.806640625 517.478515625 435.045898438 559.430664062 366.435546875 559.430664062 c 2
 255.37109375 559.430664062 l 1
 222.452148438 416.840820312 l 1
 333.516601562 416.840820312 l 2
 371.760742188 416.840820312 415.611328125 430.004882812 428.583984375 486.196289062 c 0xf8
275.438476562 131.661132812 m 2
 296.428710938 131.661132812 356.953125 133.916015625 374.908203125 211.6875 c 0xf4
 384.051757812 251.293945312 374.017578125 285.890625 311.044921875 285.890625 c 2
 192.219726562 285.890625 l 1
 156.61328125 131.661132812 l 1
 275.438476562 131.661132812 l 2
EndSplineSet
EndChar

StartChar: C
Encoding: 67 67 37
Width: 601
GlyphClass: 2
Flags: MW
HStem: -7.0498 133.86<236.52 260.124> 568.16 131.92<336.503 393.56>
VStem: 53.8926 148.409 411.822 145.5
LayerCount: 2
Fore
SplineSet
67.73828125 423.145507812 m 2
 93.6337890625 535.310546875 162.787109375 700.080078125 387.267578125 700.080078125 c 0
 462.13671875 700.080078125 518.467773438 680.099609375 554.622070312 639.284179688 c 0
 590.973632812 598.24609375 600.169921875 540.366210938 583.409179688 467.765625 c 2
 579.490234375 450.790039062 l 1
 432.049804688 450.790039062 l 1
 435.745117188 466.794921875 l 2
 448.290039062 521.13671875 431.27734375 568.16015625 355.842773438 568.16015625 c 0
 317.163085938 568.16015625 288.674804688 556.484375 267.547851562 534.514648438 c 0
 246.110351562 512.221679688 227.655273438 472.989257812 214.580078125 416.35546875 c 2
 181.212890625 271.825195312 l 2
 168.909179688 218.530273438 169.973632812 181.424804688 181.811523438 159.72265625 c 0
 193.52734375 138.244140625 217.151367188 126.810546875 255.888671875 126.810546875 c 0
 290.334960938 126.810546875 317.024414062 135.936523438 337.577148438 152.864257812 c 0
 358.395507812 170.008789062 372.666992188 193.569335938 379.984375 225.265625 c 2
 384.126953125 243.209960938 l 1
 529.626953125 243.209960938 l 1
 525.708007812 226.235351562 l 2
 508.669921875 152.435546875 473.041015625 94.06640625 418.389648438 53.2841796875 c 0
 364.024414062 12.716796875 298.172851562 -7.0498046875 222.07421875 -7.0498046875 c 0
 82.3388671875 -7.0498046875 -16.5751953125 57.94140625 32.35546875 269.884765625 c 2
 67.73828125 423.145507812 l 2
EndSplineSet
EndChar

StartChar: D
Encoding: 68 68 38
Width: 601
GlyphClass: 2
Flags: MW
HStem: 0.709961 130.95<156.613 220.956> 559.43 130.95<255.371 352.855 255.371 255.371>
VStem: 62.6221 147.439 411.821 147.44
LayerCount: 2
Fore
SplineSet
138.1640625 690.379882812 m 1
 384.05859375 690.379882812 l 2
 460.313476562 690.379882812 516.973632812 669.020507812 552.184570312 625.453125 c 0
 587.922851562 581.231445312 593.19921875 510.170898438 571.091796875 414.415039062 c 2
 539.516601562 277.645507812 l 2
 517.399414062 181.845703125 478.736328125 110.583007812 421.532226562 66.0703125 c 0
 365.192382812 22.2314453125 297.860351562 0.7099609375 220.956054688 0.7099609375 c 2
 -21.05859375 0.7099609375 l 1
 138.1640625 690.379882812 l 1
422.083984375 407.625 m 2
 448.98046875 524.125976562 417.780273438 559.4296875 352.85546875 559.4296875 c 2
 255.37109375 559.4296875 l 1
 156.61328125 131.66015625 l 1
 254.09765625 131.66015625 l 2
 317.72265625 131.66015625 366.5703125 167.169921875 392.299804688 278.615234375 c 2
 422.083984375 407.625 l 2
EndSplineSet
EndChar

StartChar: E
Encoding: 69 69 39
Width: 535
GlyphClass: 2
Flags: MW
HStem: 0.709961 130.95<156.614 424.172> 282.98 130.949<221.781 445.688 191.549 475.921> 559.43 130.95<255.372 553.162 255.372 255.372>
VStem: 62.6221 147.44
AnchorPoint: "Anchor-0" 348 680 basechar 0
LayerCount: 2
Fore
SplineSet
156.614257812 131.66015625 m 1
 454.404296875 131.66015625 l 1
 424.171875 0.7099609375 l 1
 -21.05859375 0.7099609375 l 1
 138.1640625 690.379882812 l 1
 583.39453125 690.379882812 l 1
 553.162109375 559.4296875 l 1
 255.372070312 559.4296875 l 1
 221.78125 413.9296875 l 1
 475.920898438 413.9296875 l 1
 445.688476562 282.98046875 l 1
 191.548828125 282.98046875 l 1
 156.614257812 131.66015625 l 1
EndSplineSet
EndChar

StartChar: F
Encoding: 70 70 40
Width: 530
GlyphClass: 2
Flags: MW
HStem: 0.709961 21G<-21.0586 126.382 -21.0586 -21.0586> 277.16 130.95<190.205 475.547 220.438 445.314> 559.43 130.95<255.372 553.162 255.372 255.372>
VStem: 62.6221 147.44
LayerCount: 2
Fore
SplineSet
190.205078125 277.16015625 m 1
 126.381835938 0.7099609375 l 1
 -21.05859375 0.7099609375 l 1
 138.1640625 690.379882812 l 1
 583.39453125 690.379882812 l 1
 553.162109375 559.4296875 l 1
 255.372070312 559.4296875 l 1
 220.4375 408.110351562 l 1
 475.546875 408.110351562 l 1
 445.314453125 277.16015625 l 1
 190.205078125 277.16015625 l 1
EndSplineSet
EndChar

StartChar: G
Encoding: 71 71 41
Width: 601
GlyphClass: 2
Flags: MW
HStem: -7.0498 133.86<239.071 287.632 239.071 332.149> 259.7 125.13<301.393 390.844 272.504 564.262> 568.16 131.92<336.503 373.022>
VStem: 53.8926 148.409 414.732 144.529
LayerCount: 2
Fore
SplineSet
67.73828125 423.145507812 m 2
 93.6337890625 535.310546875 162.787109375 700.080078125 387.267578125 700.080078125 c 0
 462.119140625 700.080078125 518.47265625 680.276367188 554.708984375 639.796875 c 0
 591.087890625 599.157226562 600.717773438 542.739257812 584.529296875 472.615234375 c 2
 580.610351562 455.640625 l 1
 433.169921875 455.640625 l 1
 437.088867188 472.615234375 l 2
 443.575195312 500.7109375 439.86328125 523.051757812 426.248046875 541.133789062 c 0
 412.95703125 558.78515625 390.201171875 568.16015625 355.842773438 568.16015625 c 0
 317.163085938 568.16015625 288.674804688 556.484375 267.547851562 534.514648438 c 0
 246.110351562 512.221679688 227.655273438 472.989257812 214.580078125 416.35546875 c 2
 181.212890625 271.825195312 l 2
 168.760742188 217.887695312 170.150390625 180.73828125 182.567382812 159.419921875 c 0
 194.947265625 138.1640625 219.34375 126.810546875 258.798828125 126.810546875 c 0
 316.465820312 126.810546875 365.077148438 148.091796875 385.805664062 237.875 c 2
 390.84375 259.700195312 l 1
 272.50390625 259.700195312 l 1
 301.392578125 384.830078125 l 1
 564.26171875 384.830078125 l 1
 535.485351562 260.185546875 l 2
 510.193359375 150.634765625 442.224609375 -7.0498046875 222.07421875 -7.0498046875 c 0
 82.3388671875 -7.0498046875 -16.5751953125 57.94140625 32.35546875 269.884765625 c 2
 67.73828125 423.145507812 l 2
EndSplineSet
EndChar

StartChar: H
Encoding: 72 72 42
Width: 610
GlyphClass: 2
Flags: MW
HStem: 0.709961 21G<-21.0586 126.382 -21.0586 -21.0586 328.142 475.581 328.142 328.142> 283.95 130.95<222.005 393.532 191.772 423.765> 670.38 20G<138.164 285.604 285.604 285.604 487.364 634.804 634.804 634.804>
VStem: 62.6221 147.44 411.822 147.439
LayerCount: 2
Fore
SplineSet
634.803710938 690.379882812 m 1
 475.581054688 0.7099609375 l 1
 328.141601562 0.7099609375 l 1
 393.532226562 283.950195312 l 1
 191.772460938 283.950195312 l 1
 126.381835938 0.7099609375 l 1
 -21.05859375 0.7099609375 l 1
 138.1640625 690.379882812 l 1
 285.604492188 690.379882812 l 1
 222.004882812 414.900390625 l 1
 423.764648438 414.900390625 l 1
 487.364257812 690.379882812 l 1
 634.803710938 690.379882812 l 1
EndSplineSet
EndChar

StartChar: I
Encoding: 73 73 43
Width: 270
GlyphClass: 2
Flags: MW
HStem: 0.709961 21G<-15.2383 132.201 -15.2383 -15.2383> 670.38 20G<143.984 291.424 291.424 291.424>
VStem: 68.4424 147.439
AnchorPoint: "Anchor-0" 214 680 basechar 0
LayerCount: 2
Fore
SplineSet
143.984375 690.379882812 m 1
 291.423828125 690.379882812 l 1
 132.201171875 0.7099609375 l 1
 -15.23828125 0.7099609375 l 1
 143.984375 690.379882812 l 1
EndSplineSet
EndChar

StartChar: J
Encoding: 74 74 44
Width: 338
GlyphClass: 2
Flags: MW
HStem: 0.709961 131.92<-24.5527 36.6562 -55.0088 38.0127> 670.38 20G<210.914 359.324 359.324 359.324>
VStem: 135.372 148.41
LayerCount: 2
Fore
SplineSet
-24.552734375 132.629882812 m 1
 38.0126953125 132.629882812 l 2
 56.73828125 132.629882812 68.357421875 137.149414062 74.9208984375 143.154296875 c 0
 81.7412109375 149.395507812 89.1904296875 163.138671875 94.3525390625 185.495117188 c 2
 210.9140625 690.379882812 l 1
 359.32421875 690.379882812 l 1
 237.8359375 164.155273438 l 2
 226.069335938 113.188476562 202.596679688 72.3154296875 166.677734375 43.4208984375 c 0
 130.841796875 14.591796875 86.9892578125 0.7099609375 36.65625 0.7099609375 c 2
 -55.0087890625 0.7099609375 l 1
 -24.552734375 132.629882812 l 1
EndSplineSet
EndChar

StartChar: K
Encoding: 75 75 45
Width: 611
GlyphClass: 2
Flags: MW
HStem: 0.709961 21G<-21.0586 126.382 -21.0586 -21.0586 364.351 535.438 364.351 364.351> 670.38 20G<138.164 285.604 285.604 285.604 502.126 680.692 680.692 680.692>
VStem: 62.6221 147.44
LayerCount: 2
Fore
SplineSet
364.350585938 0.7099609375 m 1
 269.850585938 290.467773438 l 1
 171.130859375 194.541015625 l 1
 126.381835938 0.7099609375 l 1
 -21.05859375 0.7099609375 l 1
 138.1640625 690.379882812 l 1
 285.604492188 690.379882812 l 1
 218.256835938 398.6640625 l 1
 502.125976562 690.379882812 l 1
 680.692382812 690.379882812 l 1
 392.872070312 410.58984375 l 1
 535.438476562 0.7099609375 l 1
 364.350585938 0.7099609375 l 1
EndSplineSet
EndChar

StartChar: L
Encoding: 76 76 46
Width: 520
GlyphClass: 2
Flags: MW
HStem: 0.709961 130.95<156.614 419.321> 670.38 20G<138.164 285.604 285.604 285.604>
VStem: 62.6221 147.44
LayerCount: 2
Fore
SplineSet
138.1640625 690.379882812 m 1
 285.604492188 690.379882812 l 1
 156.614257812 131.66015625 l 1
 449.553710938 131.66015625 l 1
 419.321289062 0.7099609375 l 1
 -21.05859375 0.7099609375 l 1
 138.1640625 690.379882812 l 1
EndSplineSet
EndChar

StartChar: M
Encoding: 77 77 47
Width: 730
GlyphClass: 2
Flags: MW
HStem: 0.709961 21G<-21.0586 126.382 -21.0586 -21.0586 447.451 594.892 447.451 447.451> 670.38 20G<138.164 281.919 281.919 281.919 610.328 754.114 754.114 754.114>
VStem: 62.6221 147.44 531.132 147.44
LayerCount: 2
Fore
SplineSet
754.114257812 690.379882812 m 1
 594.891601562 0.7099609375 l 1
 447.451171875 0.7099609375 l 1
 530.956054688 362.411132812 l 1
 366.791992188 129.719726562 l 1
 268.561523438 129.719726562 l 1
 210.599609375 365.498046875 l 1
 126.381835938 0.7099609375 l 1
 -21.05859375 0.7099609375 l 1
 138.1640625 690.379882812 l 1
 281.918945312 690.379882812 l 1
 364.991210938 334.915039062 l 1
 610.328125 690.379882812 l 1
 754.114257812 690.379882812 l 1
EndSplineSet
EndChar

StartChar: N
Encoding: 78 78 48
Width: 634
GlyphClass: 2
Flags: MW
HStem: 0.709961 21G<-21.0586 126.382 -21.0586 -21.0586 356.757 499.831 356.757 356.757> 670.38 20G<138.164 281.246 281.246 281.246 511.614 659.054 659.054 659.054>
VStem: 62.6221 147.44 436.072 147.439
AnchorPoint: "Anchor-0" 396 680 basechar 0
LayerCount: 2
Fore
SplineSet
659.053710938 690.379882812 m 1
 499.831054688 0.7099609375 l 1
 356.756835938 0.7099609375 l 1
 216.630859375 391.622070312 l 1
 126.381835938 0.7099609375 l 1
 -21.05859375 0.7099609375 l 1
 138.1640625 690.379882812 l 1
 281.24609375 690.379882812 l 1
 421.158203125 298.572265625 l 1
 511.614257812 690.379882812 l 1
 659.053710938 690.379882812 l 1
EndSplineSet
EndChar

StartChar: O
Encoding: 79 79 49
Width: 601
GlyphClass: 2
Flags: MW
HStem: -7.0498 133.86<233.578 256.648> 568.16 131.92<335.509 387.333>
VStem: 53.8926 148.408 411.821 147.44
AnchorPoint: "Anchor-0" 379 680 basechar 0
LayerCount: 2
Fore
SplineSet
67.73828125 423.145507812 m 2
 93.4365234375 534.454101562 162.006835938 700.080078125 385.327148438 700.080078125 c 0
 461.603515625 700.080078125 518.380859375 678.541992188 553.828125 634.666992188 c 0
 589.801757812 590.140625 595.21875 518.918945312 573.107421875 423.145507812 c 2
 537.724609375 269.884765625 l 2
 515.604492188 174.072265625 476.762695312 102.790039062 419.22265625 58.28515625 c 0
 362.577148438 14.4716796875 295.1015625 -7.0498046875 218.194335938 -7.0498046875 c 0
 80.6650390625 -7.0498046875 -16.587890625 57.8876953125 32.35546875 269.884765625 c 2
 67.73828125 423.145507812 l 2
252.977539062 126.810546875 m 0
 314.436523438 126.810546875 364.365234375 157.616210938 390.732421875 271.825195312 c 2
 424.099609375 416.35546875 l 2
 450.99609375 532.85546875 419.795898438 568.16015625 354.87109375 568.16015625 c 0
 316.146484375 568.16015625 287.876953125 556.606445312 267.192382812 535.018554688 c 0
 246.192382812 513.100585938 227.8125 473.67578125 214.579101562 416.35546875 c 2
 181.211914062 271.825195312 l 2
 168.740234375 217.805664062 169.322265625 180.416015625 180.325195312 159.084960938 c 0
 191.138671875 138.123046875 214.178710938 126.810546875 252.977539062 126.810546875 c 0
EndSplineSet
Substitution2: "Single Substitution lookup 6 subtable" ordmasculine
Substitution2: "'aalt' Access All Alternates lookup 0 subtable" ordmasculine
EndChar

StartChar: P
Encoding: 80 80 50
Width: 569
GlyphClass: 2
Flags: MW
HStem: 0.709961 21G<-21.0586 126.382 -21.0586 -21.0586> 254.851 131.92<215.511 298.06 185.055 322.695> 559.43 130.95<255.372 362.557 255.372 255.372>
VStem: 62.6221 147.44 405.032 147.44
LayerCount: 2
Fore
SplineSet
577.068359375 469.705078125 m 0
 562.227539062 405.422851562 529.551757812 352.724609375 479.131835938 313.427734375 c 0
 428.641601562 274.076171875 367.811523438 254.850585938 298.059570312 254.850585938 c 2
 185.0546875 254.850585938 l 1
 126.381835938 0.7099609375 l 1
 -21.05859375 0.7099609375 l 1
 138.1640625 690.379882812 l 1
 398.609375 690.379882812 l 2
 468.379882812 690.379882812 520.311523438 670.975585938 552.547851562 631.287109375 c 0
 584.810546875 591.564453125 592.622070312 537.079101562 577.068359375 469.705078125 c 0
322.6953125 386.770507812 m 2
 340.893554688 386.770507812 411.041992188 389.203125 429.627929688 469.705078125 c 0
 434.0703125 488.950195312 448.836914062 559.4296875 362.556640625 559.4296875 c 2
 255.372070312 559.4296875 l 1
 215.510742188 386.770507812 l 1
 322.6953125 386.770507812 l 2
EndSplineSet
EndChar

StartChar: Q
Encoding: 81 81 51
Width: 601
GlyphClass: 2
Flags: MW
HStem: -7.0498 133.86<149.429 283.707> 568.16 131.92<335.509 387.333>
VStem: 53.8916 148.409 411.821 147.44
AnchorPoint: "Anchor-0" 379 680 basechar 0
LayerCount: 2
Fore
SplineSet
218.193359375 -7.0498046875 m 0
 80.6640625 -7.0498046875 -16.5888671875 57.8876953125 32.3544921875 269.884765625 c 2
 67.7373046875 423.145507812 l 2
 93.43359375 534.448242188 162.00390625 700.080078125 385.327148438 700.080078125 c 0
 461.603515625 700.080078125 518.380859375 678.541992188 553.828125 634.666992188 c 0
 589.801757812 590.140625 595.21875 518.918945312 573.107421875 423.145507812 c 2
 537.724609375 269.884765625 l 2
 513.516601562 165.02734375 467.041992188 87.9501953125 396.921875 41.9208984375 c 1
 438.072265625 -89.1708984375 l 1
 308.630859375 -152.341796875 l 1
 262.50390625 -4.859375 l 1
 248.24609375 -6.3232421875 233.477539062 -7.0498046875 218.193359375 -7.0498046875 c 0
424.099609375 416.35546875 m 2
 450.99609375 532.85546875 419.795898438 568.16015625 354.87109375 568.16015625 c 0
 316.146484375 568.16015625 287.876953125 556.606445312 267.192382812 535.018554688 c 0
 246.192382812 513.100585938 227.8125 473.67578125 214.579101562 416.35546875 c 2
 181.211914062 271.825195312 l 2
 168.740234375 217.805664062 169.322265625 180.416015625 180.325195312 159.084960938 c 0
 191.138671875 138.123046875 214.178710938 126.810546875 252.977539062 126.810546875 c 0
 314.436523438 126.810546875 364.365234375 157.616210938 390.732421875 271.825195312 c 2
 424.099609375 416.35546875 l 2
EndSplineSet
EndChar

StartChar: R
Encoding: 82 82 52
Width: 601
GlyphClass: 2
Flags: MW
HStem: 0.709961 21G<331.846 501.277 331.846 331.846> 272.31 126.1<189.085 328.293> 559.429 130.95<255.372 365.467 255.372 255.372>
VStem: 62.6221 147.44 404.062 147.439
LayerCount: 2
Fore
SplineSet
578.560546875 480.374023438 m 0
 565.623046875 424.337890625 528.443359375 338.263671875 421.655273438 296.555664062 c 1
 501.27734375 0.7099609375 l 1
 331.845703125 0.7099609375 l 1
 267.479492188 272.310546875 l 1
 241.348632812 272.310546875 215.215820312 272.309570312 189.084960938 272.309570312 c 1
 126.381835938 0.708984375 l 1
 -21.05859375 0.708984375 l 1
 138.1640625 690.37890625 l 1
 402.489257812 690.37890625 l 2
 469.671875 690.37890625 520.249023438 671.790039062 552.517578125 633.836914062 c 0
 584.852539062 595.805664062 593.251953125 544.009765625 578.560546875 480.374023438 c 0
328.29296875 398.409179688 m 2
 360.362304688 398.409179688 414.543945312 408.5703125 431.12109375 480.374023438 c 0
 436.893554688 505.379882812 433.6875 523.995117188 422.338867188 538.0234375 c 0
 411.021484375 552.008789062 392.682617188 559.428710938 365.466796875 559.428710938 c 2
 255.372070312 559.428710938 l 1
 218.198242188 398.409179688 l 1
 328.29296875 398.409179688 l 2
EndSplineSet
EndChar

StartChar: S
Encoding: 83 83 53
Width: 551
GlyphClass: 2
Flags: MW
HStem: -5.10938 129.013<178.082 226.892> 573.01 127.071<322.34 369.075>
VStem: 44.1904 143.561 377.87 145.501
AnchorPoint: "Anchor-0" 352 680 basechar 0
LayerCount: 2
Fore
SplineSet
353.346679688 410.859375 m 2
 448.841796875 392.948242188 517.90625 339.501953125 488.622070312 212.655273438 c 0
 472.584960938 143.19140625 437.413085938 88.3642578125 382.997070312 50.5732421875 c 0
 329.0546875 13.1123046875 264.240234375 -5.109375 189.54296875 -5.109375 c 0
 35.0947265625 -5.109375 -27.1650390625 77.693359375 -4.7978515625 213.912109375 c 2
 -3.0126953125 224.783203125 l 1
 137.166015625 224.783203125 l 1
 131.474609375 172.111328125 131.017578125 123.903320312 225.146484375 123.903320312 c 0
 310.561523438 123.903320312 332.596679688 167.071289062 340.658203125 201.98828125 c 0
 349.91015625 242.061523438 341.178710938 270.266601562 278.178710938 281.184570312 c 2
 217.624023438 291.848632812 l 2
 148.301757812 303.797851562 38.9560546875 340.498046875 73.041015625 488.135742188 c 0
 87.9111328125 552.547851562 121.616210938 604.9140625 173.891601562 643.216796875 c 0
 225.98046875 681.3828125 287.484375 700.081054688 357.196289062 700.081054688 c 0
 424.940429688 700.081054688 475.7734375 682.048828125 507.990234375 645.059570312 c 0
 540.184570312 608.096679688 550.924804688 556.158203125 541.188476562 490.9140625 c 2
 539.541992188 479.890625 l 1
 396.678710938 479.890625 l 1
 403.192382812 518.008789062 412.228515625 573.009765625 325.921875 573.009765625 c 0
 285.967773438 573.009765625 233.294921875 560.4453125 218.840820312 497.834960938 c 0
 211.579101562 466.381835938 217.846679688 436.435546875 285.432617188 423.47265625 c 0
 285.483398438 423.462890625 353.346679688 410.859375 353.346679688 410.859375 c 2
EndSplineSet
EndChar

StartChar: T
Encoding: 84 84 54
Width: 499
GlyphClass: 2
Flags: MW
HStem: 0.709961 21G<98.252 246.661 98.252 98.252> 559.43 130.95<86.7539 227.242 56.5215 576.604 375.651 375.651 375.651 546.372>
VStem: 181.933 148.409
LayerCount: 2
Fore
SplineSet
227.2421875 559.4296875 m 1
 56.521484375 559.4296875 l 1
 86.75390625 690.379882812 l 1
 576.604492188 690.379882812 l 1
 546.372070312 559.4296875 l 1
 375.651367188 559.4296875 l 1
 246.661132812 0.7099609375 l 1
 98.251953125 0.7099609375 l 1
 227.2421875 559.4296875 l 1
EndSplineSet
EndChar

StartChar: U
Encoding: 85 85 55
Width: 615
GlyphClass: 2
Flags: MW
HStem: -5.10938 130.95<241.183 274.028 241.183 301.121> 670.381 20G<138.165 285.605 285.605 285.605 491.245 639.655 639.655 639.655>
VStem: 62.623 147.44 415.703 148.41
AnchorPoint: "Anchor-0" 386 680 basechar 0
LayerCount: 2
Fore
SplineSet
227.374023438 -5.109375 m 0
 84.0654296875 -5.109375 -0.1005859375 91.4853515625 32.3525390625 232.055664062 c 2
 138.165039062 690.380859375 l 1
 285.60546875 690.380859375 l 1
 180.689453125 235.936523438 l 2
 172.284179688 199.529296875 175.600585938 172.846679688 189.075195312 154.208007812 c 0
 202.59375 135.509765625 224.758789062 125.840820312 257.606445312 125.840820312 c 0
 290.44921875 125.840820312 317.28125 135.510742188 339.791015625 154.267578125 c 0
 362.170898438 172.916015625 377.930664062 199.5625 386.329101562 235.936523438 c 2
 491.245117188 690.380859375 l 1
 639.655273438 690.380859375 l 1
 533.842773438 232.055664062 l 2
 502.16796875 94.8564453125 374.868164062 -5.109375 227.374023438 -5.109375 c 0
EndSplineSet
EndChar

StartChar: V
Encoding: 86 86 56
Width: 556
GlyphClass: 2
Flags: MW
HStem: 0.709961 21G<141.731 258.461 141.731 141.731> 670.38 20G<81.0596 235.578 235.578 235.578 484.04 638.578 638.578 638.578>
LayerCount: 2
Fore
SplineSet
81.0595703125 690.379882812 m 1
 235.578125 690.379882812 l 1
 259.215820312 254.658203125 l 1
 484.040039062 690.379882812 l 1
 638.578125 690.379882812 l 1
 258.4609375 0.7099609375 l 1
 141.731445312 0.7099609375 l 1
 81.0595703125 690.379882812 l 1
EndSplineSet
EndChar

StartChar: W
Encoding: 87 87 57
Width: 829
GlyphClass: 2
Flags: MW
HStem: 0.709961 21G<92.6943 224.103 92.6943 92.6943 451.596 584.015 451.596 451.596> 670.38 20G<81.998 230.311 230.311 230.311 412.628 587.237 587.237 587.237 768.568 908.159 908.159 908.159>
LayerCount: 2
Fore
SplineSet
451.595703125 0.7099609375 m 1
 444.3203125 463.854492188 l 1
 224.102539062 0.7099609375 l 1
 92.6943359375 0.7099609375 l 1
 81.998046875 690.379882812 l 1
 230.310546875 690.379882812 l 1
 222.811523438 257.264648438 l 1
 412.627929688 690.379882812 l 1
 587.237304688 690.379882812 l 1
 581.51953125 257.498046875 l 1
 768.568359375 690.379882812 l 1
 908.159179688 690.379882812 l 1
 584.014648438 0.7099609375 l 1
 451.595703125 0.7099609375 l 1
EndSplineSet
EndChar

StartChar: X
Encoding: 88 88 58
Width: 594
GlyphClass: 2
Flags: MW
HStem: 0.709961 21G<-82.1953 -82.1953 -82.1953 86.3135 345.858 345.858 345.858 521.198> 670.38 20G<92.5117 266.92 266.92 266.92 489.511 658.1 658.1 658.1>
LayerCount: 2
Fore
SplineSet
-82.1953125 0.7099609375 m 1
 215.192382812 359.115234375 l 1
 92.51171875 690.379882812 l 1
 266.919921875 690.379882812 l 1
 331.568359375 484.346679688 l 1
 489.510742188 690.379882812 l 1
 658.099609375 690.379882812 l 1
 387.50390625 363.978515625 l 1
 521.198242188 0.7099609375 l 1
 345.858398438 0.7099609375 l 1
 271.583007812 237.081054688 l 1
 86.3134765625 0.7099609375 l 1
 -82.1953125 0.7099609375 l 1
EndSplineSet
EndChar

StartChar: Y
Encoding: 89 89 59
Width: 544
GlyphClass: 2
Flags: MW
HStem: 0.709961 21G<120.562 268.002 120.562 120.562> 670.38 20G<78.6084 240.361 240.361 240.361 465.678 628.417 628.417 628.417>
VStem: 204.242 147.44
AnchorPoint: "Anchor-0" 350 680 basechar 0
LayerCount: 2
Fore
SplineSet
465.677734375 690.379882812 m 1
 628.416992188 690.379882812 l 1
 333.40234375 283.990234375 l 1
 268.001953125 0.7099609375 l 1
 120.561523438 0.7099609375 l 1
 185.739257812 283.025390625 l 1
 78.6083984375 690.379882812 l 1
 240.361328125 690.379882812 l 1
 293.811523438 433.922851562 l 1
 465.677734375 690.379882812 l 1
EndSplineSet
EndChar

StartChar: Z
Encoding: 90 90 60
Width: 509
GlyphClass: 2
Flags: MW
HStem: 0.709961 131.92<148.806 405.741> 559.43 130.95<115.854 359.4 85.6221 556.234>
AnchorPoint: "Anchor-0" 333 680 basechar 0
LayerCount: 2
Fore
SplineSet
436.197265625 132.629882812 m 1
 405.741210938 0.7099609375 l 1
 -49.1884765625 0.7099609375 l 1
 -20.392578125 125.44140625 l 1
 359.400390625 559.4296875 l 1
 85.6220703125 559.4296875 l 1
 115.854492188 690.379882812 l 1
 556.234375 690.379882812 l 1
 527.6640625 566.627929688 l 1
 148.805664062 132.629882812 l 1
 436.197265625 132.629882812 l 1
EndSplineSet
EndChar

StartChar: bracketleft
Encoding: 91 91 61
Width: 323
GlyphClass: 2
Flags: MW
HStem: -80.7695 131.92<131.236 185.17> 607.93 131.921<259.779 344.169 259.779 259.779>
VStem: 62.6221 140.65 62.6221 225.04
LayerCount: 2
Fore
SplineSet
149.584960938 739.850585938 m 1xd0
 374.625 739.850585938 l 1
 344.168945312 607.9296875 l 1xd0
 259.779296875 607.9296875 l 1
 131.236328125 51.150390625 l 1xe0
 215.625976562 51.150390625 l 1
 185.169921875 -80.76953125 l 1
 -39.8701171875 -80.76953125 l 1
 149.584960938 739.850585938 l 1xd0
EndSplineSet
EndChar

StartChar: backslash
Encoding: 92 92 62
Width: 411
GlyphClass: 2
Flags: MW
HStem: -8.99023 21G<171.372 292.558 171.372 171.372> 675.23 20G<122.189 243.374 243.374 243.374>
VStem: 45.5273 332.95
LayerCount: 2
Fore
SplineSet
122.189453125 695.23046875 m 1
 243.374023438 695.23046875 l 1
 292.557617188 -8.990234375 l 1
 171.372070312 -8.990234375 l 1
 122.189453125 695.23046875 l 1
EndSplineSet
EndChar

StartChar: bracketright
Encoding: 93 93 63
Width: 324
GlyphClass: 2
Flags: MW
HStem: -80.7695 131.92<-22.9941 62.3662 -22.9941 172.56 -53.4502 62.3662> 605.021 130.949<135.109 190.237 104.877 361.119>
VStem: 49.042 226.01 134.402 140.649
LayerCount: 2
Fore
SplineSet
190.237304688 605.020507812 m 1xd0
 104.876953125 605.020507812 l 1
 135.109375 735.969726562 l 1
 361.119140625 735.969726562 l 1
 172.559570312 -80.76953125 l 1
 -53.4501953125 -80.76953125 l 1
 -22.994140625 51.150390625 l 1xe0
 62.3662109375 51.150390625 l 1
 190.237304688 605.020507812 l 1xd0
EndSplineSet
EndChar

StartChar: asciicircum
Encoding: 94 94 64
Width: 532
GlyphClass: 2
Flags: MW
HStem: 675.23 20G<290.988 405.65 405.65 405.65>
LayerCount: 2
Fore
SplineSet
290.98828125 695.23046875 m 1
 405.650390625 695.23046875 l 1
 479.063476562 263.580078125 l 1
 357.142578125 263.580078125 l 1
 312.642578125 540.69921875 l 1
 140.1875 263.580078125 l 1
 18.2666015625 263.580078125 l 1
 290.98828125 695.23046875 l 1
EndSplineSet
EndChar

StartChar: underscore
Encoding: 95 95 65
Width: 503
GlyphClass: 2
Flags: MW
HStem: -116.66 98.9404<-82.543 399.983 -105.386 422.826>
LayerCount: 2
Fore
SplineSet
-82.54296875 -17.7197265625 m 1
 422.826171875 -17.7197265625 l 1
 399.983398438 -116.66015625 l 1
 -105.385742188 -116.66015625 l 1
 -82.54296875 -17.7197265625 l 1
EndSplineSet
EndChar

StartChar: grave
Encoding: 96 96 66
Width: 503
GlyphClass: 2
Flags: MW
HStem: 571.07 149.38<316.518 358.989 196.01 445.803 316.518 316.518>
VStem: 113.525 284.28
LayerCount: 2
Fore
SplineSet
196.009765625 720.450195312 m 1
 358.989257812 720.450195312 l 1
 445.802734375 571.0703125 l 1
 316.517578125 571.0703125 l 1
 196.009765625 720.450195312 l 1
EndSplineSet
EndChar

StartChar: a
Encoding: 97 97 67
Width: 505
GlyphClass: 2
Flags: MW
HStem: -5.11035 117.369<101.667 197.852> 216.049 102.821<178.883 309.443 212.929 285.703> 418.78 112.52<259.873 284.565>
VStem: 40.3115 136.768 319.669 139.681
AnchorPoint: "Anchor-0" 285 515 basechar 0
LayerCount: 2
Fore
SplineSet
289.1328125 531.299804688 m 0
 335.974609375 531.299804688 496.865234375 525.668945312 454.608398438 342.633789062 c 2
 375.668945312 0.708984375 l 1
 238.8984375 0.708984375 l 1
 245.915039062 31.1015625 l 1
 211.015625 6.7060546875 178.146484375 -5.1103515625 128.430664062 -5.1103515625 c 0
 74.904296875 -5.1103515625 35.2001953125 9.3818359375 11.333984375 39.5009765625 c 0
 -12.494140625 69.57421875 -17.884765625 111.095703125 -6.0830078125 162.21484375 c 0
 4.916015625 209.856445312 30.244140625 248.849609375 69.576171875 277.118164062 c 0
 108.881835938 305.368164062 157.021484375 318.870117188 212.928710938 318.870117188 c 2
 309.443359375 318.870117188 l 1
 316.2734375 348.455078125 l 2
 328.076171875 399.580078125 306.946289062 418.780273438 262.184570312 418.780273438 c 0
 241.223632812 418.780273438 224.723632812 413.599609375 211.599609375 404.241210938 c 0
 198.499023438 394.8984375 190.413085938 383.102539062 186.668945312 366.884765625 c 2
 183.645507812 353.790039062 l 1
 51.7255859375 353.790039062 l 1
 54.97265625 367.85546875 l 2
 66.4619140625 417.619140625 93.9755859375 458.3046875 136.845703125 487.779296875 c 0
 179.532226562 517.12890625 230.61328125 531.299804688 289.1328125 531.299804688 c 0
131.356445312 165.124023438 m 0
 125.6796875 140.536132812 127.14453125 112.258789062 182.686523438 112.258789062 c 0
 213.016601562 112.258789062 234.265625 119.33984375 248.01953125 130.932617188 c 0
 262.142578125 142.836914062 273.23828125 162.05859375 279.768554688 190.34375 c 2
 285.703125 216.048828125 l 1
 208.588867188 216.048828125 l 2
 149.177734375 216.048828125 136.260742188 186.366210938 131.356445312 165.124023438 c 0
EndSplineSet
Substitution2: "Single Substitution lookup 6 subtable" ordfeminine
Substitution2: "'aalt' Access All Alternates lookup 0 subtable" ordfeminine
EndChar

StartChar: b
Encoding: 98 98 68
Width: 519
GlyphClass: 2
Flags: MW
HStem: -5.10938 127.069<197.771 230.536 181.347 244.843> 404.23 127.069<266.296 366.002> 670.38 20G<133.313 273.963 273.963 273.963>
VStem: 57.7715 137.74 341.012 140.65
LayerCount: 2
Fore
SplineSet
339.572265625 531.299804688 m 0
 392.432617188 531.299804688 432.35546875 513.032226562 457.6171875 476.616210938 c 0
 483.234375 439.686523438 486.653320312 384.7890625 470.203125 313.53515625 c 2
 447.13671875 213.625 l 2
 430.685546875 142.366210938 401.880859375 87.33203125 359.1796875 50.0947265625 c 0
 317.177734375 13.46875 270.07421875 -5.109375 219.612304688 -5.109375 c 0
 175.928710938 -5.109375 142.01171875 7.326171875 119.12109375 32.2861328125 c 1
 114.182617188 10.89453125 l 1
 111.831054688 0.7099609375 l 1
 -25.9091796875 0.7099609375 l 1
 133.313476562 690.379882812 l 1
 273.962890625 690.379882812 l 1
 227.977539062 491.196289062 l 1
 261.459960938 517.748046875 299.075195312 531.299804688 339.572265625 531.299804688 c 0
217.908203125 121.959960938 m 0
 243.1640625 121.959960938 286.955078125 129.026367188 307.381835938 217.504882812 c 2
 328.432617188 308.685546875 l 2
 336.834960938 345.078125 335.133789062 369.383789062 326.297851562 382.946289062 c 0
 317.07421875 397.104492188 302.36328125 404.23046875 280.166015625 404.23046875 c 0
 252.42578125 404.23046875 204.012695312 391.592773438 184.872070312 308.685546875 c 2
 163.821289062 217.504882812 l 2
 158.37109375 193.895507812 144.78515625 121.959960938 217.908203125 121.959960938 c 0
EndSplineSet
EndChar

StartChar: c
Encoding: 99 99 69
Width: 509
GlyphClass: 2
Flags: MW
HStem: -5.10938 127.069<197.231 210.771> 404.23 127.069<270.114 287.019>
VStem: 49.042 139.681 337.132 134.83
LayerCount: 2
Fore
SplineSet
210.1484375 121.959960938 m 0
 222.575195312 121.959960938 281.65234375 122.862304688 296.112304688 185.495117188 c 2
 299.806640625 201.5 l 1
 434.63671875 201.5 l 1
 430.717773438 184.525390625 l 2
 417.375 126.728515625 388.125 79.755859375 342.954101562 45.5810546875 c 0
 297.791015625 11.4130859375 242.668945312 -5.109375 178.873046875 -5.109375 c 0
 113.674804688 -5.109375 64.96484375 12.63671875 34.5478515625 49.056640625 c 0
 3.724609375 85.9619140625 -1.8984375 142.524414062 15.1884765625 216.53515625 c 2
 36.9111328125 310.625 l 2
 53.853515625 384.012695312 85.541015625 440.249023438 133.377929688 477.133789062 c 0
 180.611328125 513.552734375 237.514648438 531.299804688 302.712890625 531.299804688 c 0
 366.489257812 531.299804688 414 514.95703125 443.469726562 481.12890625 c 0
 472.9921875 447.240234375 480.481445312 400.072265625 466.997070312 341.665039062 c 2
 462.40625 321.780273438 l 1
 327.576171875 321.780273438 l 1
 331.270507812 337.78515625 l 2
 336.311523438 359.616210938 333.5078125 375.233398438 323.954101562 386.598632812 c 0
 314.3359375 398.041992188 298.720703125 404.23046875 275.31640625 404.23046875 c 0
 240.520507812 404.23046875 195.415039062 392.159179688 176.143554688 308.685546875 c 2
 155.092773438 217.504882812 l 2
 146.541992188 180.46875 148.576171875 156.177734375 157.922851562 142.998046875 c 0
 167.646484375 129.28515625 184.313476562 121.959960938 210.1484375 121.959960938 c 0
EndSplineSet
EndChar

StartChar: d
Encoding: 100 100 70
Width: 518
GlyphClass: 2
Flags: MW
HStem: -5.10938 127.069<115.509 209.696> 404.23 127.069<255.531 285.436 238.092 300.304> 670.38 20G<407.825 547.505 547.505 547.505>
VStem: 49.042 140.65 332.283 139.68
LayerCount: 2
Fore
SplineSet
14.5166015625 213.625 m 2
 37.5830078125 313.53515625 l 2
 54.021484375 384.739257812 82.240234375 439.5546875 123.87890625 476.498046875 c 0
 164.971679688 512.956054688 212.26953125 531.299804688 263.9140625 531.299804688 c 0
 306.958007812 531.299804688 339.995117188 517.793945312 361.80078125 491.025390625 c 1
 407.825195312 690.379882812 l 1
 547.504882812 690.379882812 l 1
 388.282226562 0.7099609375 l 1
 250.54296875 0.7099609375 l 1
 257.766601562 32.0009765625 l 1
 223.8515625 7.2197265625 184.526367188 -5.109375 141.04296875 -5.109375 c 0
 89.9755859375 -5.109375 51.2451171875 13.443359375 26.455078125 50.1337890625 c 0
 1.2919921875 87.375 -1.9306640625 142.3828125 14.5166015625 213.625 c 2
201.418945312 121.959960938 m 0
 217.973632812 121.959960938 277.001953125 123.727539062 298.65234375 217.504882812 c 2
 319.703125 308.685546875 l 2
 328.719726562 347.7421875 331.111328125 404.23046875 269.497070312 404.23046875 c 0
 241.564453125 404.23046875 197.21484375 395.756835938 177.11328125 308.685546875 c 2
 156.0625 217.504882812 l 2
 135.6328125 129.01171875 176.178710938 121.959960938 201.418945312 121.959960938 c 0
EndSplineSet
EndChar

StartChar: e
Encoding: 101 101 71
Width: 521
GlyphClass: 2
Flags: MW
HStem: -5.11035 124.159<204.517 217.165> 217.021 102.819<154.981 332.948 178.82 332.948 178.82 449.861> 408.11 123.188<272.29 296.859>
VStem: 49.042 139.681 342.952 140.65
AnchorPoint: "Anchor-0" 300 515 basechar 0
LayerCount: 2
Fore
SplineSet
154.981445312 217.020507812 m 1
 154.197265625 213.625 l 2
 145.838867188 177.420898438 148.640625 153.749023438 159.396484375 140.455078125 c 0
 170.600585938 126.607421875 189.857421875 119.048828125 219.176757812 119.048828125 c 0
 254 119.048828125 287.49609375 130.033203125 299.004882812 168.10546875 c 1
 305.258789062 179.189453125 l 1
 437.247070312 179.189453125 l 1
 433.776367188 164.154296875 l 2
 422.10546875 113.603515625 393.2578125 71.8359375 348.212890625 40.837890625 c 0
 303.161132812 9.833984375 248.666015625 -5.1103515625 185.663085938 -5.1103515625 c 0
 119.026367188 -5.1103515625 69.1533203125 14.216796875 37.8701171875 53.5556640625 c 0
 6.203125 93.37890625 0.7236328125 153.8828125 18.9951171875 233.024414062 c 2
 33.103515625 294.133789062 l 2
 50.9287109375 371.34375 83.5205078125 431.061523438 132.2265625 471.474609375 c 0
 180.599609375 511.610351562 238.956054688 531.298828125 305.623046875 531.298828125 c 0
 371.076171875 531.298828125 419.787109375 511.383789062 449.827148438 470.990234375 c 0
 480.09375 430.293945312 485.349609375 370.739257812 467.6640625 294.134765625 c 2
 449.861328125 217.020507812 l 1
 154.981445312 217.020507812 l 1
333.508789062 322.265625 m 2
 349.87890625 393.172851562 316.536132812 408.110351562 277.182617188 408.110351562 c 0
 250.635742188 408.110351562 230.262695312 400.73046875 214.271484375 387.072265625 c 0
 199.873046875 374.775390625 187.375 352.806640625 178.8203125 319.83984375 c 1
 332.948242188 319.83984375 l 1
 333.508789062 322.265625 l 2
EndSplineSet
EndChar

StartChar: f
Encoding: 102 102 72
Width: 341
GlyphClass: 2
Flags: MW
HStem: 0.709961 21G<9.98145 149.661 9.98145 9.98145> 420.72 104.761<77.7842 106.948 53.5986 131.134 270.813 336.838> 588.53 101.85<319.069 325.626 325.626 375.58>
VStem: 93.6621 139.68
LayerCount: 2
Fore
SplineSet
325.625976562 588.530273438 m 2
 297.918945312 588.530273438 282.967773438 578.124023438 276.524414062 550.21484375 c 2
 270.813476562 525.48046875 l 1
 361.0234375 525.48046875 l 1
 336.837890625 420.719726562 l 1
 246.627929688 420.719726562 l 1
 149.661132812 0.7099609375 l 1
 9.9814453125 0.7099609375 l 1
 106.948242188 420.719726562 l 1
 53.5986328125 420.719726562 l 1
 77.7841796875 525.48046875 l 1
 131.133789062 525.48046875 l 1
 135.724609375 545.365234375 l 2
 146.021484375 589.96484375 167.212890625 626.171875 199.821289062 652.087890625 c 0
 232.455078125 678.022460938 272.694335938 690.379882812 319.069335938 690.379882812 c 2
 399.09375 690.379882812 l 1
 375.580078125 588.530273438 l 1
 325.625976562 588.530273438 l 2
EndSplineSet
EndChar

StartChar: g
Encoding: 103 103 73
Width: 518
GlyphClass: 2
Flags: MW
HStem: -158.37 115.431<157.574 169.639> 39.5098 127.07<125.81 220.001> 404.23 127.069<255.534 285.436 238.092 300.307>
VStem: 49.042 140.653 332.285 139.678
LayerCount: 2
Fore
SplineSet
168.200195312 -42.939453125 m 0
 204.51171875 -42.939453125 243.5625 -29.5234375 259.612304688 39.9951171875 c 2
 268.068359375 76.62109375 l 1
 234.15234375 51.83984375 194.827148438 39.509765625 151.34375 39.509765625 c 0
 100.276367188 39.509765625 61.546875 58.0634765625 36.7568359375 94.75390625 c 0
 11.59375 131.995117188 8.3701171875 187.002929688 24.8173828125 258.245117188 c 2
 37.5830078125 313.53515625 l 2
 54.021484375 384.739257812 82.240234375 439.5546875 123.87890625 476.498046875 c 0
 164.971679688 512.956054688 212.26953125 531.299804688 263.9140625 531.299804688 c 0
 306.958007812 531.299804688 339.995117188 517.793945312 361.80078125 491.025390625 c 1
 369.754882812 525.48046875 l 1
 509.434570312 525.48046875 l 1
 399.143554688 47.7548828125 l 2
 384.778320312 -14.46484375 354.122070312 -65.1904296875 307.0234375 -102.618164062 c 0
 259.849609375 -140.10546875 202.577148438 -158.370117188 136.701171875 -158.370117188 c 0
 76.4248046875 -158.370117188 31.2568359375 -145.157226562 2.59375 -117.373046875 c 0
 -26.021484375 -89.6357421875 -36.2890625 -50.6865234375 -28.5478515625 -2.439453125 c 2
 -26.7978515625 8.4697265625 l 1
 107.84375 8.4697265625 l 1
 107.489257812 -7.302734375 107.228515625 -18.8671875 121.926757812 -30.6103515625 c 0
 131.828125 -38.5185546875 146.947265625 -42.939453125 168.200195312 -42.939453125 c 0
211.723632812 166.580078125 m 0
 228.278320312 166.580078125 287.306640625 168.34765625 308.95703125 262.125 c 2
 319.706054688 308.685546875 l 2
 328.72265625 347.7421875 331.114257812 404.23046875 269.5 404.23046875 c 0
 241.567382812 404.23046875 197.217773438 395.756835938 177.116210938 308.685546875 c 2
 166.3671875 262.125 l 2
 145.936523438 173.631835938 186.483398438 166.580078125 211.723632812 166.580078125 c 0
EndSplineSet
EndChar

StartChar: h
Encoding: 104 104 74
Width: 523
GlyphClass: 2
Flags: MW
HStem: 0.709961 21G<-25.9082 114.741 -25.9082 -25.9082 253.451 394.102 253.451 253.451> 404.23 127.069<267.771 370.385> 670.38 20G<133.314 273.964 273.964 273.964>
VStem: 57.7725 140.649 337.132 140.65
LayerCount: 2
Fore
SplineSet
228.790039062 494.711914062 m 1
 250.654296875 509.930664062 290.741210938 531.299804688 343.452148438 531.299804688 c 0
 397.318359375 531.299804688 436.7578125 514.381835938 459.471679688 479.862304688 c 0
 482.092773438 445.483398438 485.889648438 398.2890625 472.369140625 339.725585938 c 2
 394.1015625 0.7099609375 l 1
 253.451171875 0.7099609375 l 1
 328.359375 325.174804688 l 2
 334.712890625 352.6953125 332.452148438 371.974609375 323.50390625 384.663085938 c 0
 314.377929688 397.600585938 299.930664062 404.23046875 278.2265625 404.23046875 c 0
 257.31640625 404.23046875 239.483398438 397.534179688 223.120117188 384.01171875 c 0
 207.223632812 370.874023438 195.80859375 351.8515625 189.649414062 325.174804688 c 2
 114.741210938 0.7099609375 l 1
 -25.908203125 0.7099609375 l 1
 133.314453125 690.379882812 l 1
 273.963867188 690.379882812 l 1
 228.790039062 494.711914062 l 1
EndSplineSet
EndChar

StartChar: i
Encoding: 105 105 75
Width: 251
GlyphClass: 2
Flags: MW
HStem: 0.709961 21G<-21.0586 118.621 -21.0586 -21.0586> 505.48 20G<100.094 239.773 239.773 239.773> 573.98 116.399<136.225 251.941 109.352 278.814>
VStem: 62.6221 139.68
AnchorPoint: "Anchor-0" 166 515 basechar 0
LayerCount: 2
Fore
SplineSet
100.09375 525.48046875 m 1
 239.7734375 525.48046875 l 1
 118.62109375 0.7099609375 l 1
 -21.05859375 0.7099609375 l 1
 100.09375 525.48046875 l 1
136.224609375 690.379882812 m 1
 278.814453125 690.379882812 l 1
 251.94140625 573.98046875 l 1
 109.3515625 573.98046875 l 1
 136.224609375 690.379882812 l 1
EndSplineSet
EndChar

StartChar: j
Encoding: 106 106 76
Width: 251
GlyphClass: 2
Flags: MW
HStem: -150.609 124.159<-116.569 -78.7881 -145.233 -65.6436> 505.48 20G<100.094 239.773 239.773 239.773> 573.98 116.399<135.254 250.971 108.381 277.844>
VStem: 62.6221 139.68
LayerCount: 2
Fore
SplineSet
135.25390625 690.379882812 m 1
 277.84375 690.379882812 l 1
 250.970703125 573.98046875 l 1
 108.380859375 573.98046875 l 1
 135.25390625 690.379882812 l 1
-65.6435546875 -26.4501953125 m 2
 -42.4052734375 -26.4501953125 -25.4912109375 -18.4912109375 -16.4677734375 20.5947265625 c 2
 100.09375 525.48046875 l 1
 239.7734375 525.48046875 l 1
 121.419921875 12.8349609375 l 2
 109.66015625 -38.1044921875 86.3798828125 -78.9501953125 50.802734375 -107.85546875 c 0
 15.26171875 -136.73046875 -28.4599609375 -150.609375 -78.7880859375 -150.609375 c 2
 -145.233398438 -150.609375 l 1
 -116.569335938 -26.4501953125 l 1
 -65.6435546875 -26.4501953125 l 2
EndSplineSet
EndChar

StartChar: k
Encoding: 107 107 77
Width: 523
GlyphClass: 2
Flags: MW
HStem: 0.709961 21G<-25.9082 114.741 -25.9082 -25.9082 271.269 440.863 271.269 271.269> 505.48 20G<383.689 553.447 553.447 553.447> 670.38 20G<133.314 273.964 273.964 273.964>
VStem: 57.7725 140.649
LayerCount: 2
Fore
SplineSet
271.268554688 0.7099609375 m 1
 203.264648438 204.708984375 l 1
 150.708984375 156.502929688 l 1
 114.741210938 0.7099609375 l 1
 -25.908203125 0.7099609375 l 1
 133.314453125 690.379882812 l 1
 273.963867188 690.379882812 l 1
 192.0234375 335.45703125 l 1
 383.689453125 525.48046875 l 1
 553.447265625 525.48046875 l 1
 322.209960938 313.485351562 l 1
 440.86328125 0.7099609375 l 1
 271.268554688 0.7099609375 l 1
EndSplineSet
EndChar

StartChar: l
Encoding: 108 108 78
Width: 295
GlyphClass: 2
Flags: MW
HStem: 0.709961 124.16<112.37 231.676 180.751 203.012> 670.38 20G<133.314 273.964 273.964 273.964>
VStem: 57.7725 140.649
LayerCount: 2
Fore
SplineSet
11.826171875 164.155273438 m 2
 133.314453125 690.379882812 l 1
 273.963867188 690.379882812 l 1
 154.266601562 171.915039062 l 2
 149.719726562 152.217773438 150.788085938 140.078125 154.326171875 134.37890625 c 0
 157.799804688 128.788085938 165.5390625 124.870117188 180.750976562 124.870117188 c 2
 231.67578125 124.870117188 l 1
 203.01171875 0.7099609375 l 1
 137.536132812 0.7099609375 l 2
 87.2041015625 0.7099609375 49.76171875 14.591796875 27.2353515625 43.4208984375 c 0
 4.658203125 72.3154296875 0.0595703125 113.188476562 11.826171875 164.155273438 c 2
EndSplineSet
EndChar

StartChar: m
Encoding: 109 109 79
Width: 805
GlyphClass: 2
Flags: MW
HStem: 0.709961 21G<-25.9082 114.741 -25.9082 -25.9082 253.451 394.102 253.451 253.451 532.812 673.462 532.812 532.812> 404.23 127.069<267.407 370.728>
VStem: 57.7725 140.649 337.132 140.65 616.492 140.65
LayerCount: 2
Fore
SplineSet
225.521484375 493.159179688 m 1
 236.083984375 500.333984375 282.895507812 531.299804688 343.452148438 531.299804688 c 0
 398.002929688 531.299804688 437.551757812 512.004882812 460.086914062 473.642578125 c 1
 507.987304688 511.872070312 560.09375 531.299804688 615.052734375 531.299804688 c 0
 670.79296875 531.299804688 711.889648438 514.290039062 736.177734375 479.547851562 c 0
 760.391601562 444.915039062 765.133789062 397.784179688 751.729492188 339.725585938 c 2
 673.461914062 0.7099609375 l 1
 532.811523438 0.7099609375 l 1
 607.719726562 325.174804688 l 2
 614.063476562 352.653320312 611.666015625 371.877929688 602.438476562 384.579101562 c 0
 592.936523438 397.657226562 578.561523438 404.23046875 557.586914062 404.23046875 c 0
 535.274414062 404.23046875 517.251953125 397.31640625 501.678710938 383.764648438 c 0
 485.963867188 370.08984375 475.208007812 352.021484375 469.681640625 328.084960938 c 2
 394.1015625 0.7099609375 l 1
 253.451171875 0.7099609375 l 1
 328.359375 325.174804688 l 2
 334.703125 352.653320312 332.305664062 371.877929688 323.078125 384.579101562 c 0
 313.576171875 397.657226562 299.201171875 404.23046875 278.2265625 404.23046875 c 0
 256.586914062 404.23046875 238.653320312 397.48046875 222.73046875 384.090820312 c 0
 207.125 370.96875 195.819335938 351.896484375 189.649414062 325.174804688 c 2
 114.741210938 0.7099609375 l 1
 -25.908203125 0.7099609375 l 1
 95.244140625 525.48046875 l 1
 232.983398438 525.48046875 l 1
 225.521484375 493.159179688 l 1
EndSplineSet
EndChar

StartChar: n
Encoding: 110 110 80
Width: 523
GlyphClass: 2
Flags: MW
HStem: 0.709961 21G<-25.9082 114.741 -25.9082 -25.9082 253.451 394.102 253.451 253.451> 404.23 127.069<267.771 370.399>
VStem: 57.7725 140.649 337.132 140.65
AnchorPoint: "Anchor-0" 302 515 basechar 0
LayerCount: 2
Fore
SplineSet
225.635742188 493.654296875 m 1
 243.646484375 506.104492188 287.055664062 531.299804688 343.452148438 531.299804688 c 0
 397.345703125 531.299804688 436.759765625 514.192382812 459.384765625 479.338867188 c 0
 481.8828125 444.680664062 485.747070312 397.672851562 472.369140625 339.725585938 c 2
 394.1015625 0.7099609375 l 1
 253.451171875 0.7099609375 l 1
 328.359375 325.174804688 l 2
 334.549804688 351.985351562 332.319335938 371.16015625 323.336914062 384.256835938 c 0
 314.2578125 397.494140625 299.873046875 404.23046875 278.2265625 404.23046875 c 0
 257.31640625 404.23046875 239.483398438 397.534179688 223.120117188 384.01171875 c 0
 207.223632812 370.874023438 195.80859375 351.8515625 189.649414062 325.174804688 c 2
 114.741210938 0.7099609375 l 1
 -25.908203125 0.7099609375 l 1
 95.244140625 525.48046875 l 1
 232.983398438 525.48046875 l 1
 225.635742188 493.654296875 l 1
EndSplineSet
EndChar

StartChar: o
Encoding: 111 111 81
Width: 514
GlyphClass: 2
Flags: MW
HStem: -5.10938 127.069<191.831 211.16> 404.23 127.069<270.114 288.758>
VStem: 49.042 139.681 337.132 139.681
AnchorPoint: "Anchor-0" 298 515 basechar 0
LayerCount: 2
Fore
SplineSet
15.1884765625 216.53515625 m 2
 36.9111328125 310.625 l 2
 53.853515625 384.012695312 85.541015625 440.249023438 133.377929688 477.133789062 c 0
 180.611328125 513.552734375 237.514648438 531.299804688 302.712890625 531.299804688 c 0
 367.287109375 531.299804688 415.526367188 513.533203125 445.608398438 477.102539062 c 0
 476.072265625 440.208984375 481.620117188 383.995117188 464.681640625 310.625 c 2
 442.958984375 216.53515625 l 2
 425.875976562 142.541992188 394.3203125 86.001953125 346.793945312 49.087890625 c 0
 299.889648438 12.6572265625 243.447265625 -5.109375 178.873046875 -5.109375 c 0
 113.674804688 -5.109375 64.96484375 12.63671875 34.5478515625 49.056640625 c 0
 3.724609375 85.9619140625 -1.8984375 142.524414062 15.1884765625 216.53515625 c 2
208.208984375 121.959960938 m 0
 238.97265625 121.959960938 283.743164062 131.918945312 303.501953125 217.504882812 c 2
 324.552734375 308.685546875 l 2
 344.3125 394.272460938 304.138671875 404.23046875 273.376953125 404.23046875 c 0
 240.629882812 404.23046875 195.662109375 393.231445312 176.143554688 308.685546875 c 2
 155.092773438 217.504882812 l 2
 135.576171875 132.967773438 175.452148438 121.959960938 208.208984375 121.959960938 c 0
EndSplineSet
Substitution2: "Single Substitution lookup 6 subtable" ordmasculine
Substitution2: "'aalt' Access All Alternates lookup 0 subtable" ordmasculine
EndChar

StartChar: p
Encoding: 112 112 82
Width: 519
GlyphClass: 2
Flags: MW
HStem: -5.10938 127.069<198.393 230.536 181.347 244.843> 404.23 127.069<266.296 366.002>
VStem: 57.7725 140.649 341.012 140.65
LayerCount: 2
Fore
SplineSet
95.244140625 525.48046875 m 1
 232.983398438 525.48046875 l 1
 224.850585938 490.251953125 l 1
 259.891601562 517.41015625 298.520507812 531.299804688 339.572265625 531.299804688 c 0
 392.432617188 531.299804688 432.35546875 513.032226562 457.6171875 476.616210938 c 0
 483.234375 439.686523438 486.653320312 384.7890625 470.203125 313.53515625 c 2
 447.13671875 213.625 l 2
 430.685546875 142.366210938 401.880859375 87.33203125 359.1796875 50.0947265625 c 0
 317.177734375 13.46875 270.07421875 -5.109375 219.612304688 -5.109375 c 0
 177.173828125 -5.109375 144.159179688 7.005859375 121.803710938 31.30078125 c 1
 79.806640625 -150.609375 l 1
 -60.8427734375 -150.609375 l 1
 95.244140625 525.48046875 l 1
217.908203125 121.959960938 m 0
 243.1640625 121.959960938 286.955078125 129.026367188 307.381835938 217.504882812 c 2
 328.432617188 308.685546875 l 2
 336.834960938 345.078125 335.133789062 369.383789062 326.297851562 382.946289062 c 0
 317.07421875 397.104492188 302.36328125 404.23046875 280.166015625 404.23046875 c 0
 252.42578125 404.23046875 204.012695312 391.592773438 184.872070312 308.685546875 c 2
 163.821289062 217.504882812 l 2
 158.37109375 193.895507812 144.78515625 121.959960938 217.908203125 121.959960938 c 0
EndSplineSet
EndChar

StartChar: q
Encoding: 113 113 83
Width: 518
GlyphClass: 2
Flags: MW
HStem: -5.10938 127.069<115.509 209.696> 404.23 127.069<255.531 288.646 241.363 300.304>
VStem: 49.042 140.65 332.282 139.68
LayerCount: 2
Fore
SplineSet
363.689453125 490.807617188 m 1
 371.694335938 525.48046875 l 1
 509.43359375 525.48046875 l 1
 353.346679688 -150.609375 l 1
 213.666992188 -150.609375 l 1
 255.6640625 31.30078125 l 1
 222.08984375 7.005859375 183.481445312 -5.109375 141.04296875 -5.109375 c 0
 89.9755859375 -5.109375 51.2451171875 13.443359375 26.455078125 50.1337890625 c 0
 1.2919921875 87.375 -1.9306640625 142.3828125 14.5166015625 213.625 c 2
 37.5830078125 313.53515625 l 2
 54.029296875 384.772460938 82.61328125 439.642578125 124.939453125 476.577148438 c 0
 166.7109375 513.028320312 214.93359375 531.299804688 267.79296875 531.299804688 c 0
 309.5 531.299804688 341.814453125 517.651367188 363.689453125 490.807617188 c 1
201.418945312 121.959960938 m 0
 217.973632812 121.959960938 277.001953125 123.727539062 298.65234375 217.504882812 c 2
 319.703125 308.685546875 l 2
 328.719726562 347.7421875 331.111328125 404.23046875 269.497070312 404.23046875 c 0
 241.564453125 404.23046875 197.21484375 395.756835938 177.11328125 308.685546875 c 2
 156.0625 217.504882812 l 2
 135.6328125 129.01171875 176.178710938 121.959960938 201.418945312 121.959960938 c 0
EndSplineSet
EndChar

StartChar: r
Encoding: 114 114 84
Width: 365
GlyphClass: 2
Flags: MW
HStem: 0.709961 21G<-25.9082 114.741 -25.9082 -25.9082> 410.05 126.101<282.62 350.993> 505.48 20G<95.2441 232.983 232.983 232.983>
VStem: 57.7725 140.649
LayerCount: 2
Fore
SplineSet
225.654296875 493.734375 m 1xb0
 245.758789062 510.853515625 285.466796875 536.150390625 344.572265625 536.150390625 c 0
 357.4140625 536.150390625 367.953125 536.150390625 394.159179688 530.350585938 c 1
 363.069335938 395.685546875 l 1
 340.229492188 403.42578125 320.678710938 410.049804688 296.059570312 410.049804688 c 0xd0
 269.1796875 410.049804688 246.85546875 401.790039062 227.401367188 385.520507812 c 0
 208.262695312 369.515625 194.48046875 346.098632812 186.962890625 313.53515625 c 2
 114.741210938 0.7099609375 l 1
 -25.908203125 0.7099609375 l 1
 95.244140625 525.48046875 l 1
 232.983398438 525.48046875 l 1
 225.654296875 493.734375 l 1xb0
EndSplineSet
EndChar

StartChar: s
Encoding: 115 115 85
Width: 478
GlyphClass: 2
Flags: MW
HStem: -5.10938 117.369<172.205 187.42> 416.84 114.46<255.925 269.503>
VStem: 40.3115 132.89 319.671 134.831
AnchorPoint: "Anchor-0" 280 515 basechar 0
LayerCount: 2
Fore
SplineSet
257.858398438 416.83984375 m 0
 235.575195312 416.83984375 191.245117188 411.909179688 182.41796875 373.674804688 c 0
 178.454101562 356.506835938 180.16796875 338.43359375 227.982421875 331.37109375 c 2
 285.07421875 322.650390625 l 2
 361.850585938 311.458984375 434.323242188 275.767578125 409.227539062 167.065429688 c 0
 396.681640625 112.723632812 366.486328125 69.2548828125 319.345703125 39.1171875 c 0
 272.795898438 9.3583984375 218.27734375 -5.109375 156.5625 -5.109375 c 0
 97.3662109375 -5.109375 51.9716796875 9.4091796875 21.7314453125 39.3349609375 c 0
 -8.634765625 69.384765625 -18.048828125 110.38671875 -6.5302734375 160.275390625 c 2
 -3.283203125 174.33984375 l 1
 129.606445312 174.33984375 l 1
 126.806640625 162.21484375 l 2
 117.674804688 122.662109375 156.872070312 112.259765625 187.538085938 112.259765625 c 0
 212.907226562 112.259765625 232.709960938 116.8515625 247.083984375 124.76171875 c 0
 260.745117188 132.28125 268.728515625 142.517578125 272.380859375 158.334960938 c 0
 276.489257812 176.1328125 275.01953125 193.952148438 219.352539062 202.604492188 c 2
 167.98828125 211.338867188 l 2
 63.83984375 229.392578125 27.4765625 278.1640625 47.5107421875 364.9453125 c 0
 59.1748046875 415.46484375 87.7568359375 456.818359375 132.366210938 486.883789062 c 0
 176.608398438 516.702148438 227.568359375 531.299804688 284.28125 531.299804688 c 0
 408.23046875 531.299804688 468.524414062 461.72265625 448.421875 374.645507812 c 2
 444.7265625 358.640625 l 1
 312.806640625 358.640625 l 1
 315.830078125 371.735351562 l 2
 319.180664062 386.249023438 316.279296875 396.247070312 306.817382812 404.116210938 c 0
 297.130859375 412.171875 281.1484375 416.83984375 257.858398438 416.83984375 c 0
EndSplineSet
EndChar

StartChar: t
Encoding: 116 116 86
Width: 359
GlyphClass: 2
Flags: MW
HStem: 0.709961 122.22<151.436 270.998 222.983 242.781> 420.72 104.761<67.1143 112.769 42.9287 136.954 276.634 349.448>
VStem: 99.4824 139.68
LayerCount: 2
Fore
SplineSet
193.215820312 164.155273438 m 2
 185.724609375 131.708984375 199.631835938 122.9296875 222.983398438 122.9296875 c 2
 270.998046875 122.9296875 l 1
 242.78125 0.7099609375 l 1
 175.366210938 0.7099609375 l 2
 127.504882812 0.7099609375 91.3876953125 14.5234375 68.8681640625 42.8916015625 c 0
 46.3447265625 71.265625 40.9638671875 109.698242188 51.744140625 156.395507812 c 2
 112.768554688 420.719726562 l 1
 42.9287109375 420.719726562 l 1
 67.1142578125 525.48046875 l 1
 136.954101562 525.48046875 l 1
 159.114257812 621.465820312 l 1
 310.067382812 670.296875 l 1
 276.633789062 525.48046875 l 1
 373.633789062 525.48046875 l 1
 349.448242188 420.719726562 l 1
 252.448242188 420.719726562 l 1
 193.215820312 164.155273438 l 2
EndSplineSet
EndChar

StartChar: u
Encoding: 117 117 87
Width: 523
GlyphClass: 2
Flags: MW
HStem: -5.10938 127.069<197.099 227.159 197.099 260.418> 505.48 20G<95.2441 235.894 235.894 235.894 374.604 515.254 515.254 515.254>
VStem: 57.7725 140.649 337.132 140.65
AnchorPoint: "Anchor-0" 302 515 basechar 0
LayerCount: 2
Fore
SplineSet
182.752929688 -5.109375 m 0
 70.0205078125 -5.109375 -15.857421875 44.2451171875 23.470703125 214.594726562 c 2
 95.244140625 525.48046875 l 1
 235.893554688 525.48046875 l 1
 165.463867188 220.415039062 l 2
 157.47265625 185.799804688 157.009765625 160.520507812 162.58203125 144.512695312 c 0
 167.473632812 130.458007812 182.109375 121.959960938 212.088867188 121.959960938 c 0
 242.228515625 121.959960938 260.81640625 130.166015625 271.845703125 143.265625 c 0
 284.284179688 158.038085938 295.713867188 183.771484375 304.173828125 220.415039062 c 2
 374.603515625 525.48046875 l 1
 515.25390625 525.48046875 l 1
 443.48046875 214.594726562 l 2
 413.822265625 86.130859375 338.083007812 -5.109375 182.752929688 -5.109375 c 0
EndSplineSet
EndChar

StartChar: v
Encoding: 118 118 88
Width: 485
GlyphClass: 2
Flags: MW
HStem: 0.709961 21G<107.972 221.408 107.972 107.972> 505.48 20G<47.4736 196.385 196.385 196.385 376.261 525.221 525.221 525.221>
LayerCount: 2
Fore
SplineSet
47.4736328125 525.48046875 m 1
 196.384765625 525.48046875 l 1
 218.590820312 230.162109375 l 1
 376.260742188 525.48046875 l 1
 525.220703125 525.48046875 l 1
 221.408203125 0.7099609375 l 1
 107.971679688 0.7099609375 l 1
 47.4736328125 525.48046875 l 1
EndSplineSet
EndChar

StartChar: w
Encoding: 119 119 89
Width: 734
GlyphClass: 2
Flags: MW
HStem: 0.709961 21G<80.4307 197.499 80.4307 80.4307 379.266 496.299 379.266 379.266> 505.48 20G<48.1885 196.838 196.838 196.838 356.86 462.187 462.187 462.187 622.21 771.854 771.854 771.854>
LayerCount: 2
Fore
SplineSet
48.1884765625 525.48046875 m 1
 196.837890625 525.48046875 l 1
 201.09375 233.7265625 l 1
 356.860351562 525.48046875 l 1
 462.186523438 525.48046875 l 1
 483.241210938 233.7265625 l 1
 622.209960938 525.48046875 l 1
 771.854492188 525.48046875 l 1
 496.298828125 0.7099609375 l 1
 379.265625 0.7099609375 l 1
 357.599609375 302.461914062 l 1
 197.499023438 0.7099609375 l 1
 80.4306640625 0.7099609375 l 1
 48.1884765625 525.48046875 l 1
EndSplineSet
EndChar

StartChar: x
Encoding: 120 120 90
Width: 463
GlyphClass: 2
Flags: MW
HStem: 0.709961 21G<-77.0869 72.8867 -77.0869 -77.0869 237.427 386.092 237.427 237.427> 505.48 20G<52.7764 202.471 202.471 202.471 348.536 498.82 498.82 498.82>
LayerCount: 2
Fore
SplineSet
237.426757812 0.7099609375 m 1
 184.866210938 148.9765625 l 1
 72.88671875 0.7099609375 l 1
 -77.0869140625 0.7099609375 l 1
 142.524414062 270.849609375 l 1
 52.7763671875 525.48046875 l 1
 202.470703125 525.48046875 l 1
 248.91796875 392.856445312 l 1
 348.536132812 525.48046875 l 1
 498.8203125 525.48046875 l 1
 290.208984375 274.6484375 l 1
 386.091796875 0.7099609375 l 1
 237.426757812 0.7099609375 l 1
EndSplineSet
EndChar

StartChar: y
Encoding: 121 121 91
Width: 486
GlyphClass: 2
Flags: MW
HStem: -148.67 128.04<-9.49512 12.8389 -39.0557 38.5195> 505.48 20G<47.4512 196.343 196.343 196.343 381.219 526.198 526.198 526.198>
AnchorPoint: "Anchor-0" 284 515 basechar 0
LayerCount: 2
Fore
SplineSet
12.8388671875 -148.669921875 m 2
 -39.0556640625 -148.669921875 l 1
 -9.4951171875 -20.6298828125 l 1
 38.51953125 -20.6298828125 l 2
 56.8564453125 -20.6298828125 69.8408203125 -17.205078125 77.6259765625 -12.375 c 0
 88.92578125 -5.365234375 98.951171875 10.369140625 106.083007812 24.173828125 c 1
 47.451171875 525.48046875 l 1
 196.342773438 525.48046875 l 1
 220.130859375 232.012695312 l 1
 381.21875 525.48046875 l 1
 526.198242188 525.48046875 l 1
 200.7265625 -36.1240234375 l 2
 155.032226562 -114.671875 96.134765625 -148.669921875 12.8388671875 -148.669921875 c 2
EndSplineSet
EndChar

StartChar: z
Encoding: 122 122 92
Width: 459
GlyphClass: 2
Flags: MW
HStem: 0.709961 121.25<154.648 339.781> 404.23 121.25<58.5215 460.934 86.5137 271.646>
AnchorPoint: "Anchor-0" 270 515 basechar 0
LayerCount: 2
Fore
SplineSet
58.521484375 404.23046875 m 1
 86.513671875 525.48046875 l 1
 460.93359375 525.48046875 l 1
 434.51953125 411.068359375 l 1
 154.6484375 121.959960938 l 1
 367.7734375 121.959960938 l 1
 339.78125 0.7099609375 l 1
 -34.638671875 0.7099609375 l 1
 -8.224609375 115.12109375 l 1
 271.646484375 404.23046875 l 1
 58.521484375 404.23046875 l 1
EndSplineSet
EndChar

StartChar: braceleft
Encoding: 123 123 93
Width: 367
GlyphClass: 2
Flags: MW
HStem: -80.7695 117.37<127.925 255.918 211.782 228.82> 269.4 123.189<27.3936 66.0195 27.3936 66.0195> 621.51 117.37<339.967 346.819 346.819 390.955>
VStem: 122.762 133.86
LayerCount: 2
Fore
SplineSet
150.735351562 -80.76953125 m 2
 105.115234375 -80.76953125 23.8125 -65.42578125 50.166015625 48.7255859375 c 2
 85.548828125 201.985351562 l 2
 91.544921875 227.956054688 90.0068359375 244.938476562 83.74609375 254.368164062 c 0
 77.7744140625 263.364257812 63.47265625 269.400390625 37.5791015625 269.400390625 c 2
 27.3935546875 269.400390625 l 1
 55.833984375 392.58984375 l 1
 66.01953125 392.58984375 l 2
 91.9130859375 392.58984375 109.001953125 398.625976562 119.127929688 407.622070312 c 0
 129.7421875 417.051757812 139.122070312 434.034179688 145.1171875 460.004882812 c 2
 179.829101562 610.35546875 l 2
 189.052734375 650.30859375 207.462890625 682.625 235.852539062 705.397460938 c 0
 264.23046875 728.159179688 299.436523438 738.879882812 339.966796875 738.879882812 c 2
 418.051757812 738.879882812 l 1
 390.955078125 621.509765625 l 1
 346.819335938 621.509765625 l 2
 328.84765625 621.509765625 314.810546875 615.211914062 308.762695312 589.015625 c 2
 277.634765625 454.185546875 l 2
 260.563476562 380.243164062 234.93359375 349.52734375 195.704101562 330.776367188 c 1
 227.005859375 310.954101562 237.454101562 280.146484375 220.752929688 207.8046875 c 2
 188.729492188 69.0947265625 l 2
 182.680664062 42.89453125 193.814453125 36.6005859375 211.782226562 36.6005859375 c 2
 255.91796875 36.6005859375 l 1
 228.8203125 -80.76953125 l 1
 150.735351562 -80.76953125 l 2
EndSplineSet
EndChar

StartChar: bar
Encoding: 124 124 94
Width: 303
GlyphClass: 2
Flags: MW
VStem: 92.6924 131.92
LayerCount: 2
Fore
SplineSet
179.431640625 738.879882812 m 1
 311.3515625 738.879882812 l 1
 122.120117188 -80.76953125 l 1
 -9.7998046875 -80.76953125 l 1
 179.431640625 738.879882812 l 1
EndSplineSet
EndChar

StartChar: braceright
Encoding: 125 125 95
Width: 367
GlyphClass: 2
Flags: MW
HStem: -80.7695 117.37<-26.3525 17.7832 17.7832 25.6055 -53.4502 17.7832> 269.4 123.189<286.898 338.104 299.479 338.104> 621.51 117.37<135.781 152.819 108.685 214.837>
VStem: 124.703 132.889
LayerCount: 2
Fore
SplineSet
184.99609375 48.7255859375 m 2
 174.018554688 1.173828125 138.693359375 -80.76953125 25.60546875 -80.76953125 c 2
 -53.4501953125 -80.76953125 l 1
 -26.3525390625 36.6005859375 l 1
 17.783203125 36.6005859375 l 2
 37.365234375 36.6005859375 50.9833984375 43.857421875 56.810546875 69.0947265625 c 2
 88.833984375 207.8046875 l 2
 105.537109375 280.15625 130.215820312 310.958007812 170.6640625 330.776367188 c 1
 140.073242188 349.538085938 128.651367188 380.27734375 145.71484375 454.185546875 c 2
 176.842773438 589.015625 l 2
 182.66796875 614.250976562 172.40234375 621.509765625 152.819335938 621.509765625 c 2
 108.684570312 621.509765625 l 1
 135.78125 738.879882812 l 1
 214.836914062 738.879882812 l 2
 255.359375 738.879882812 285.494140625 728.163085938 303.048828125 705.340820312 c 0
 320.573242188 682.555664062 323.875 650.274414062 314.659179688 610.35546875 c 2
 279.947265625 460.004882812 l 2
 273.9609375 434.07421875 275.645507812 417.173828125 282.161132812 407.731445312 c 0
 288.504882812 398.541992188 302.7578125 392.58984375 327.918945312 392.58984375 c 2
 338.104492188 392.58984375 l 1
 309.6640625 269.400390625 l 1
 299.478515625 269.400390625 l 2
 274.317382812 269.400390625 257.31640625 263.448242188 246.729492188 254.258789062 c 0
 235.853515625 244.81640625 226.365234375 227.916015625 220.37890625 201.985351562 c 2
 184.99609375 48.7255859375 l 2
EndSplineSet
EndChar

StartChar: asciitilde
Encoding: 126 126 96
Width: 532
GlyphClass: 2
Flags: MW
HStem: 189.86 120.28<299.087 351.812> 245.15 119.31<154.834 206.394>
LayerCount: 2
Fore
SplineSet
336.04296875 310.140625 m 0x80
 367.58203125 310.140625 386.237304688 334.344726562 411.389648438 368.758789062 c 1
 492.625 310.807617188 l 1
 477.544921875 288.125976562 451.427734375 248.841796875 406.1640625 219.576171875 c 0
 375.721679688 199.893554688 344.092773438 189.860351562 312.154296875 189.860351562 c 0x80
 286.01953125 189.860351562 263.649414062 194.426757812 221.716796875 223.184570312 c 0
 189.256835938 243.270507812 181.890625 245.150390625 169.71875 245.150390625 c 0
 139.94921875 245.150390625 120.375976562 220.987304688 94.16015625 186.682617188 c 1
 13.033203125 244.556640625 l 1
 28.6298828125 267.368164062 55.3916015625 306.510742188 99.990234375 335.241210938 c 0
 130.016601562 354.583984375 161.11328125 364.459960938 192.4140625 364.459960938 c 0x40
 220.373046875 364.459960938 241.677734375 359.341796875 283.025390625 332.134765625 c 0
 315.520507812 311.864257812 323.826171875 310.140625 336.04296875 310.140625 c 0x80
EndSplineSet
EndChar

StartChar: exclamdown
Encoding: 161 161 98
Width: 259
GlyphClass: 2
Flags: MW
HStem: 378.04 147.44<99.124 214.465 65.085 248.504>
VStem: 61.6523 149.38 81.585 109.514
LayerCount: 2
Fore
SplineSet
99.1240234375 525.48046875 m 1xc0
 248.50390625 525.48046875 l 1
 214.46484375 378.040039062 l 1
 65.0849609375 378.040039062 l 1
 99.1240234375 525.48046875 l 1xc0
177.063476562 302.379882812 m 1xa0
 96.8603515625 -150.609375 l 1
 -61.40625 -150.609375 l 1
 67.5498046875 302.379882812 l 1
 177.063476562 302.379882812 l 1xa0
EndSplineSet
EndChar

StartChar: cent
Encoding: 162 162 99
Width: 550
GlyphClass: 2
Flags: MW
HStem: -96.2881 218.252<197.232 216.363 197.232 218.448 140.848 216.363> 404.234 232.795<257.919 387.747>
VStem: 49.043 139.68 246.922 77.6006 337.132 134.83
LayerCount: 2
Fore
SplineSet
362.029296875 525.630859375 m 1
 449.268554688 506.293945312 490.188476562 442.1171875 466.997070312 341.665039062 c 2
 462.40625 321.780273438 l 1
 327.576171875 321.780273438 l 1
 331.271484375 337.7890625 l 2
 336.311523438 359.620117188 333.5078125 375.237304688 323.955078125 386.602539062 c 0
 314.336914062 398.045898438 298.721679688 404.234375 275.317382812 404.234375 c 0
 240.521484375 404.234375 195.416015625 392.163085938 176.14453125 308.688476562 c 2
 155.09375 217.508789062 l 2
 146.54296875 180.47265625 148.577148438 156.181640625 157.923828125 143.001953125 c 0
 167.647460938 129.288085938 184.314453125 121.963867188 210.149414062 121.963867188 c 0
 222.576171875 121.963867188 281.653320312 122.866210938 296.11328125 185.499023438 c 2
 299.807617188 201.50390625 l 1
 434.637695312 201.50390625 l 1
 430.71875 184.529296875 l 2
 419.383789062 135.432617188 396.213867188 93.8798828125 361.029296875 61.0888671875 c 0
 327.908203125 30.220703125 287.471679688 10.115234375 240.8125 0.5849609375 c 1
 218.448242188 -96.2880859375 l 1
 140.84765625 -96.2880859375 l 1
 161.98046875 -4.7490234375 l 1
 103.974609375 -1.763671875 60.4609375 16.6298828125 32.9521484375 51.125 c 0
 3.529296875 88.0234375 -1.5927734375 143.842773438 15.189453125 216.53515625 c 2
 36.912109375 310.625 l 2
 53.55078125 382.6953125 84.392578125 438.188476562 130.827148438 475.06640625 c 0
 174.263671875 509.561523438 226.26953125 527.955078125 285.654296875 530.940429688 c 1
 310.146484375 637.029296875 l 1
 387.747070312 637.029296875 l 1
 362.029296875 525.630859375 l 1
EndSplineSet
EndChar

StartChar: sterling
Encoding: 163 163 100
Width: 470
GlyphClass: 2
Flags: MW
HStem: 0.710938 129.979<163.436 201.142 163.436 369.852> 268.431 130.95<38.002 67.9092 7.76953 98.1416 245.582 341.449 38.002 215.35> 572.041 128.04<324.243 341.53>
VStem: 89.7822 147.44
LayerCount: 2
Fore
SplineSet
325.69921875 572.041015625 m 0
 308.219726562 572.041015625 283.586914062 563.999023438 273.911132812 522.0859375 c 2
 245.58203125 399.380859375 l 1
 371.681640625 399.380859375 l 1
 341.44921875 268.430664062 l 1
 215.349609375 268.430664062 l 1
 203.817382812 218.4765625 l 2
 195.663085938 183.159179688 182.431640625 153.642578125 163.435546875 130.690429688 c 1
 238.848632812 130.690429688 314.262695312 130.69140625 389.674804688 130.69140625 c 2
 399.860351562 130.69140625 l 1
 369.8515625 0.7109375 l 1
 -36.578125 0.7109375 l 1
 -8.53125 122.193359375 l 1
 16.478515625 132.559570312 38.669921875 141.779296875 53.4658203125 205.866210938 c 2
 67.9091796875 268.430664062 l 1
 7.76953125 268.430664062 l 1
 38.001953125 399.380859375 l 1
 98.1416015625 399.380859375 l 1
 123.111328125 507.536132812 l 2
 136.947265625 567.46484375 163.724609375 615.325195312 204.291015625 649.4140625 c 0
 244.91796875 683.553710938 295.16796875 700.081054688 353.318359375 700.081054688 c 0
 406.866210938 700.081054688 447.239257812 685.578125 472.680664062 655.6640625 c 0
 498.310546875 625.530273438 504.185546875 582.573242188 491.788085938 528.875976562 c 2
 489.436523438 518.69140625 l 1
 350.7265625 518.69140625 l 1
 353.078125 528.875976562 l 2
 357.243164062 546.916992188 357.360351562 572.041015625 325.69921875 572.041015625 c 0
EndSplineSet
EndChar

StartChar: currency
Encoding: 164 164 101
Width: 596
GlyphClass: 2
Flags: MW
HStem: 109.351 115.43<258.731 263.263> 409.08 115.43<323.284 327.632>
VStem: 96.5723 118.341 393.393 118.34
LayerCount: 2
Fore
SplineSet
245.067382812 109.350585938 m 0
 208.677734375 109.350585938 177.051757812 117.560546875 150.618164062 134.002929688 c 1
 70.9091796875 69.244140625 l 1
 5.37109375 154.455078125 l 1
 86.3154296875 220.217773438 l 1
 77.681640625 248.768554688 77.6728515625 281.30859375 86.0087890625 317.415039062 c 0
 93.884765625 351.529296875 109.366210938 384.008789062 132.235351562 414.521484375 c 1
 80.8388671875 481.344726562 l 1
 185.72265625 566.555664062 l 1
 236.375 500.69921875 l 1
 270.681640625 516.55078125 305.65234375 524.509765625 340.915039062 524.509765625 c 0
 376.198242188 524.509765625 407.508789062 516.541992188 434.5078125 500.671875 c 1
 516.594726562 566.55078125 l 1
 580.958984375 481.349609375 l 1
 499.763671875 414.57421875 l 1
 508.55859375 384.046875 509.048828125 351.548828125 501.168945312 317.415039062 c 0
 492.93359375 281.743164062 477.764648438 248.926757812 455.686523438 219.340820312 c 1
 506.337890625 153.485351562 l 1
 401.455078125 68.2744140625 l 1
 350.901367188 134.002929688 l 1
 316.875 117.560546875 281.458007812 109.350585938 245.067382812 109.350585938 c 0
382.829101562 317.415039062 m 0
 389.020507812 344.235351562 385.55859375 365.64453125 372.723632812 383.088867188 c 0
 359.950195312 400.44921875 340.998046875 409.080078125 314.265625 409.080078125 c 0
 288.247070312 409.080078125 265.627929688 400.499023438 244.779296875 383.088867188 c 0
 223.888671875 365.64453125 210.541015625 344.235351562 204.349609375 317.415039062 c 0
 198.158203125 290.596679688 201.579101562 268.986328125 214.387695312 251.1953125 c 0
 227.142578125 233.478515625 245.74609375 224.780273438 271.716796875 224.780273438 c 0
 298.40234375 224.780273438 321.337890625 233.529296875 342.21484375 251.1953125 c 0
 363.23828125 268.986328125 376.637695312 290.596679688 382.829101562 317.415039062 c 0
EndSplineSet
EndChar

StartChar: yen
Encoding: 165 165 102
Width: 500
GlyphClass: 2
Flags: MW
HStem: 0.709961 21G<99.2217 246.661 99.2217 99.2217> 114.2 105.729<24.7021 125.423 0.292969 149.832 297.271 397.993> 252.91 105.73<56.7266 155.872 56.7266 157.446 32.3164 155.872 355.281 430.017> 670.38 20G<82.1094 235.799 235.799 235.799 429.406 582.219 582.219 582.219>
VStem: 182.902 147.439
LayerCount: 2
Fore
SplineSet
272.862304688 114.200195312 m 1
 246.661132812 0.7099609375 l 1
 99.2216796875 0.7099609375 l 1
 125.422851562 114.200195312 l 1
 0.29296875 114.200195312 l 1
 24.7021484375 219.9296875 l 1
 149.83203125 219.9296875 l 1
 157.446289062 252.91015625 l 1
 32.31640625 252.91015625 l 1
 56.7265625 358.640625 l 1
 155.872070312 358.640625 l 1
 82.109375 690.379882812 l 1
 235.798828125 690.379882812 l 1
 276.5546875 439.776367188 l 1
 429.40625 690.379882812 l 1
 582.21875 690.379882812 l 1
 355.28125 358.640625 l 1
 454.426757812 358.640625 l 1
 430.016601562 252.91015625 l 1
 304.885742188 252.91015625 l 1
 297.271484375 219.9296875 l 1
 422.40234375 219.9296875 l 1
 397.993164062 114.200195312 l 1
 272.862304688 114.200195312 l 1
EndSplineSet
EndChar

StartChar: brokenbar
Encoding: 166 166 103
Width: 303
GlyphClass: 2
Flags: MW
VStem: 92.6924 131.92
LayerCount: 2
Fore
SplineSet
179.431640625 738.879882812 m 1
 311.3515625 738.879882812 l 1
 227.821289062 377.0703125 l 1
 95.9013671875 377.0703125 l 1
 179.431640625 738.879882812 l 1
74.1787109375 282.98046875 m 1
 206.098632812 282.98046875 l 1
 122.120117188 -80.76953125 l 1
 -9.7998046875 -80.76953125 l 1
 74.1787109375 282.98046875 l 1
EndSplineSet
EndChar

StartChar: section
Encoding: 167 167 104
Width: 515
GlyphClass: 2
Flags: MW
HStem: -162.25 119.31<150.567 166.15> 596.288 119.312<305.353 334.363>
VStem: 62.623 135.799 76.2021 129.98 83.9619 135.8 309.003 135.799 317.733 129.01 327.434 136.769
LayerCount: 2
Fore
SplineSet
334.79296875 130.493164062 m 1xc9
 360.8359375 108.110351562 378.385742188 75.4921875 361.233398438 1.1953125 c 0
 350.341796875 -45.978515625 324.072265625 -85.7578125 283.203125 -116.440429688 c 0
 242.178710938 -147.240234375 193.584960938 -162.25 138.71484375 -162.25 c 0
 80.7587890625 -162.25 38.259765625 -147.194335938 13.33203125 -115.694335938 c 0
 -11.544921875 -84.259765625 -16.91015625 -40.140625 -4.2314453125 14.7744140625 c 2
 -1.8798828125 24.958984375 l 1
 128.100585938 24.958984375 l 1
 125.749023438 14.7744140625 l 2xd4
 114.7265625 -32.96875 136.815429688 -42.9404296875 164.319335938 -42.9404296875 c 0
 186.872070312 -42.9404296875 217.044921875 -35.142578125 226.10546875 4.1044921875 c 0
 230.981445312 25.22265625 228.076171875 40.0849609375 218.487304688 50.810546875 c 0
 208.715820312 61.7373046875 185.30859375 73.67578125 148.313476562 84.50390625 c 0
 62.4990234375 110.192382812 17.326171875 166.967773438 42.876953125 277.643554688 c 0xe4
 51.115234375 313.325195312 76.50390625 383.229492188 152.7734375 427.350585938 c 1
 141.104492188 437.599609375 108.205078125 468.180664062 127.14453125 550.213867188 c 0
 147.889648438 640.071289062 233.494140625 715.599609375 347.202148438 715.599609375 c 0
 405.1875 715.599609375 447.258789062 700.1875 471.05859375 667.873046875 c 0
 494.623046875 635.879882812 499.69921875 592.547851562 487.461914062 539.54296875 c 2
 485.110351562 529.358398438 l 1
 356.100585938 529.358398438 l 1
 358.452148438 539.54296875 l 2xca
 369.495117188 587.375976562 347.12890625 596.288085938 321.59765625 596.288085938 c 0
 289.108398438 596.288085938 269.134765625 577.029296875 262.719726562 549.243164062 c 0
 258.0078125 528.833984375 261.0546875 514.963867188 270.659179688 505.219726562 c 0
 280.73828125 494.990234375 303.733398438 483.557617188 339.467773438 472.724609375 c 0
 425.282226562 447.03515625 470.456054688 390.260742188 444.904296875 279.584960938 c 0
 436.772460938 244.358398438 421.211914062 212.404296875 398.223632812 184.241210938 c 0
 379.7421875 161.598632812 358.48828125 143.547851562 334.79296875 130.493164062 c 1xc9
178.900390625 278.614257812 m 0xe1
 171.884765625 248.225585938 171.041015625 203.439453125 227.020507812 203.439453125 c 0
 248.016601562 203.439453125 264.310546875 209.977539062 278.014648438 222.64453125 c 0
 291.922851562 235.5 302.165039062 253.719726562 307.912109375 278.614257812 c 0
 313.766601562 303.971679688 318.094726562 353.7890625 261.732421875 353.7890625 c 0
 235.262695312 353.7890625 193.73828125 342.885742188 178.900390625 278.614257812 c 0xe1
245.8359375 696.684570312 m 1024
EndSplineSet
EndChar

StartChar: dieresis
Encoding: 168 168 105
Width: 503
GlyphClass: 2
Flags: MW
HStem: 570.101 132.89<180.846 274.325 150.166 305.005 180.846 336.405 367.085 460.565>
VStem: 102.393 124.159 288.632 124.16
LayerCount: 2
Fore
SplineSet
180.845703125 702.990234375 m 1
 305.004882812 702.990234375 l 1
 274.325195312 570.100585938 l 1
 150.166015625 570.100585938 l 1
 180.845703125 702.990234375 l 1
367.084960938 702.990234375 m 1
 491.245117188 702.990234375 l 1
 460.565429688 570.100585938 l 1
 336.405273438 570.100585938 l 1
 367.084960938 702.990234375 l 1
EndSplineSet
EndChar

StartChar: copyright
Encoding: 169 169 106
Width: 781
GlyphClass: 2
Flags: MW
HStem: -8.01953 95.0596<293.658 370.479 293.658 414.111> 144.271 97.9688<362.371 370.419> 443.029 97.9697<414.925 440.267> 599.2 94.0898<411.908 488.711>
VStem: 53.8926 98.9414 239.161 106.7 448.682 103.79 638.802 98.9424
LayerCount: 2
Fore
SplineSet
310.122070312 -8.01953125 m 0
 102.14453125 -8.01953125 0.869140625 133.5 49.1513671875 342.634765625 c 0
 98.041015625 554.397460938 264.49609375 693.290039062 472.032226562 693.290039062 c 0
 680.008789062 693.290039062 781.28515625 551.76953125 733.002929688 342.634765625 c 0
 684.720703125 133.501953125 518.100585938 -8.01953125 310.122070312 -8.01953125 c 0
634.060546875 342.634765625 m 0
 652.592773438 422.908203125 645.1015625 485.046875 612.809570312 530.635742188 c 0
 580.583984375 576.1328125 527.112304688 599.200195312 450.309570312 599.200195312 c 0
 373.506835938 599.200195312 309.384765625 576.1328125 256.150390625 530.635742188 c 0
 202.80859375 485.046875 166.625 422.908203125 148.092773438 342.634765625 c 0
 129.559570312 262.360351562 137.09375 200.400390625 169.438476562 155.14453125 c 0
 201.729492188 109.962890625 255.248046875 87.0400390625 332.068359375 87.0400390625 c 0
 408.888671875 87.0400390625 472.990234375 109.962890625 526.145507812 155.14453125 c 0
 579.384765625 200.400390625 615.52734375 262.360351562 634.060546875 342.634765625 c 0
371.77734375 242.239257812 m 0
 396.634765625 242.239257812 422.848632812 251.278320312 430.951171875 286.374023438 c 2
 434.19921875 300.439453125 l 1
 537.989257812 300.439453125 l 1
 534.517578125 285.404296875 l 2
 524.739257812 243.048828125 502.712890625 208.047851562 468.598632812 182.3359375 c 0
 434.508789062 156.642578125 393.619140625 144.270507812 347.21875 144.270507812 c 0
 299.474609375 144.270507812 263.423828125 157.333007812 240.870117188 184.375 c 0
 217.893554688 211.923828125 213.979492188 254.095703125 226.58203125 308.684570312 c 2
 242.2578125 376.583984375 l 2
 254.720703125 430.565429688 278.095703125 472.537109375 313.7734375 500.364257812 c 0
 348.885742188 527.749023438 391.0390625 540.999023438 438.810546875 540.999023438 c 0
 485.791015625 540.999023438 521.18359375 528.845703125 543.208007812 503.422851562 c 0
 565.259765625 477.96875 570.8515625 442.782226562 560.943359375 399.864257812 c 2
 557.024414062 382.889648438 l 1
 453.234375 382.889648438 l 1
 456.481445312 396.954101562 l 2
 459.66015625 410.72265625 462.401367188 443.029296875 418.1328125 443.029296875 c 0
 394.668945312 443.029296875 362.640625 435.848632812 348.734375 375.614257812 c 2
 333.505859375 309.654296875 l 2
 327.1796875 282.250976562 328.827148438 265.078125 334.944335938 256.504882812 c 0
 341.45703125 247.37890625 352.96484375 242.239257812 371.77734375 242.239257812 c 0
EndSplineSet
EndChar

StartChar: ordfeminine
Encoding: 170 170 107
Width: 359
GlyphClass: 2
Flags: MW
HStem: 413.931 91.1807<147.271 219.74> 542.941 78.5693<209.808 269.704 219.749 251.565> 660.312 86.3291<243.464 259.721>
VStem: 210.062 106.699
LayerCount: 2
Fore
SplineSet
267.067382812 746.640625 m 0
 324.252929688 746.640625 401.111328125 728.53125 377.412109375 625.875976562 c 2
 329.375976562 417.811523438 l 1
 225.586914062 417.811523438 l 1
 228.592773438 430.830078125 l 1
 212.1640625 421.08984375 194.124023438 413.930664062 164.06640625 413.930664062 c 0
 130.475585938 413.930664062 104.834960938 423.505859375 89.072265625 443.525390625 c 0
 73.37890625 463.45703125 69.64453125 490.227539062 77 522.0859375 c 0
 89.458984375 576.051757812 138.131835938 621.510742188 219.749023438 621.510742188 c 2
 269.704101562 621.510742188 l 1
 271.831054688 630.7265625 l 2
 275.624023438 647.153320312 273.275390625 660.311523438 246.166992188 660.311523438 c 0
 240.76171875 660.311523438 218.359375 659.612304688 213.9296875 640.42578125 c 2
 211.130859375 628.30078125 l 1
 110.250976562 628.30078125 l 1
 113.049804688 640.42578125 l 2
 128.155273438 705.854492188 185.848632812 746.640625 267.067382812 746.640625 c 0
205.486328125 505.111328125 m 0
 233.994140625 505.111328125 245.21875 515.450195312 250.557617188 538.576171875 c 2
 251.565429688 542.94140625 l 1
 215.190429688 542.94140625 l 2
 204.42578125 542.94140625 196.561523438 541.12109375 191.720703125 538.69921875 c 0
 186.209960938 535.94140625 183.19921875 532.517578125 181.462890625 524.99609375 c 0
 180.059570312 518.91796875 178.35546875 505.111328125 205.486328125 505.111328125 c 0
284.948242188 832.487304688 m 1024
EndSplineSet
EndChar

StartChar: guillemotleft
Encoding: 171 171 108
Width: 528
GlyphClass: 2
Flags: W
LayerCount: 2
Fore
SplineSet
296.762695312 511.828125 m 1
 260.765625 355.91015625 l 1
 152.224609375 266.975585938 l 1
 219.701171875 178.040039062 l 1
 183.705078125 22.1220703125 l 1
 -3.541015625 266.975585938 l 1
 296.762695312 511.828125 l 1
516.934570312 511.750976562 m 1
 480.948242188 355.87890625 l 1
 371.51953125 266.975585938 l 1
 439.8984375 178.071289062 l 1
 403.912109375 22.19921875 l 1
 215.647460938 266.975585938 l 1
 516.934570312 511.750976562 l 1
EndSplineSet
EndChar

StartChar: logicalnot
Encoding: 172 172 109
Width: 532
GlyphClass: 2
Flags: MW
HStem: 247.09 128.04<56.6533 322.942 27.0928 492.183>
VStem: 349.742 139.68
LayerCount: 2
Fore
SplineSet
322.942382812 247.08984375 m 1
 27.0927734375 247.08984375 l 1
 56.6533203125 375.129882812 l 1
 492.182617188 375.129882812 l 1
 432.614257812 117.110351562 l 1
 292.934570312 117.110351562 l 1
 322.942382812 247.08984375 l 1
EndSplineSet
EndChar

StartChar: uni00AD
Encoding: 173 173 110
Width: 372
GlyphClass: 2
Flags: MW
HStem: 280.07 131.92<60.3125 316.977 29.8564 347.433>
VStem: 49.042 287.12
LayerCount: 2
Fore
SplineSet
60.3125 411.990234375 m 1
 347.432617188 411.990234375 l 1
 316.9765625 280.0703125 l 1
 29.8564453125 280.0703125 l 1
 60.3125 411.990234375 l 1
EndSplineSet
EndChar

StartChar: registered
Encoding: 174 174 111
Width: 498
GlyphClass: 2
Flags: MW
HStem: 299.47 59.1699<234.605 273.982 234.605 297.41> 546.819 63.0498<283.5 305.324 283.5 283.5> 632.179 59.1709<297.74 336.803>
VStem: 62.6221 61.1094 170.291 70.8105 279.901 70.8096 386.602 62.0811
LayerCount: 2
Fore
SplineSet
240.459960938 299.469726562 m 0
 125.463867188 299.469726562 68.33984375 387.936523438 93.263671875 495.89453125 c 0
 119.333007812 608.815429688 222.112304688 691.349609375 330.932617188 691.349609375 c 0
 446.526367188 691.349609375 503.985351562 602.711914062 479.32421875 495.895507812 c 0
 453.9375 385.931640625 354.360351562 299.469726562 240.459960938 299.469726562 c 0
417.243164062 495.89453125 m 0
 426.752929688 537.084960938 421.831054688 569.431640625 403.137695312 594.51171875 c 0
 384.416992188 619.629882812 356.334960938 632.178710938 317.271484375 632.178710938 c 0
 278.208007812 632.178710938 244.331054688 619.629882812 214.012695312 594.51171875 c 0
 183.740234375 569.431640625 163.8828125 537.084960938 154.373046875 495.89453125 c 0
 144.864257812 454.706054688 149.744140625 422.168945312 168.397460938 396.748046875 c 0
 187.057617188 371.3203125 215.08984375 358.639648438 254.120117188 358.639648438 c 0
 293.84375 358.639648438 327.857421875 371.350585938 357.869140625 396.703125 c 0
 387.953125 422.114257812 407.7265625 454.674804688 417.243164062 495.89453125 c 0
322.791015625 609.869140625 m 2
 347.586914062 609.869140625 406.063476562 602.928710938 390.534179688 535.6640625 c 0
 384.291992188 508.62890625 368.025390625 487.073242188 343.430664062 473.30078125 c 1
 366.462890625 383.859375 l 1
 289.389648438 383.859375 l 1
 270.967773438 459.51953125 l 1
 263.345703125 459.51953125 l 1
 245.877929688 383.859375 l 1
 175.067382812 383.859375 l 1
 227.24609375 609.869140625 l 1
 322.791015625 609.869140625 l 2
319.500976562 534.694335938 m 0
 320.6171875 539.530273438 322.299804688 546.819335938 305.32421875 546.819335938 c 2
 283.5 546.819335938 l 1
 277.901367188 522.569335938 l 1
 299.725585938 522.569335938 l 2
 316.701171875 522.569335938 318.383789062 529.858398438 319.500976562 534.694335938 c 0
EndSplineSet
EndChar

StartChar: macron
Encoding: 175 175 112
Width: 503
GlyphClass: 2
Flags: MW
HStem: 573.01 127.07<188.903 453.478 159.567 482.813>
VStem: 111.122 293.91
LayerCount: 2
Fore
SplineSet
188.903320312 700.080078125 m 1
 482.813476562 700.080078125 l 1
 453.477539062 573.009765625 l 1
 159.567382812 573.009765625 l 1
 188.903320312 700.080078125 l 1
EndSplineSet
EndChar

StartChar: degree
Encoding: 176 176 113
Width: 400
GlyphClass: 2
Flags: MW
HStem: 395.5 93.1211<217.621 244.108 217.621 258.776> 607.93 93.1201<245.153 271.653>
VStem: 53.8916 96.0283 263.411 96.0303
LayerCount: 2
Fore
SplineSet
402.17578125 548.276367188 m 0
 382.717773438 463.993164062 303.421875 395.5 214.130859375 395.5 c 0
 171.01953125 395.5 137.548828125 410.135742188 115.17578125 439.224609375 c 0
 92.8017578125 468.313476562 86.673828125 505.165039062 96.6259765625 548.276367188 c 0
 117.243164062 637.577148438 200.400390625 701.049804688 284.672851562 701.049804688 c 0
 370.674804688 701.049804688 422.03125 634.278320312 402.17578125 548.276367188 c 0
192.654296875 548.275390625 m 0
 184.625976562 513.499023438 199.614257812 488.62109375 235.627929688 488.62109375 c 0
 252.588867188 488.62109375 266.861328125 494.118164062 280.123046875 505.337890625 c 0
 293.450195312 516.61328125 302.029296875 530.4453125 306.145507812 548.275390625 c 0
 310.262695312 566.109375 308.0703125 579.942382812 299.950195312 591.212890625 c 0
 291.868164062 602.432617188 280.133789062 607.9296875 263.172851562 607.9296875 c 0
 227.1328125 607.9296875 200.676757812 583.021484375 192.654296875 548.275390625 c 0
EndSplineSet
EndChar

StartChar: plusminus
Encoding: 177 177 114
Width: 532
GlyphClass: 2
Flags: MW
HStem: -34.21 130.95<-9.55859 400.589 -39.791 430.821> 273.28 130.95<61.4316 186.399 31.1992 216.632 347.582 471.579 61.4316 317.35>
VStem: 207.152 130.95
LayerCount: 2
Fore
SplineSet
317.349609375 273.280273438 m 1
 281.518554688 118.080078125 l 1
 150.568359375 118.080078125 l 1
 186.399414062 273.280273438 l 1
 31.19921875 273.280273438 l 1
 61.431640625 404.23046875 l 1
 216.631835938 404.23046875 l 1
 252.461914062 559.4296875 l 1
 383.412109375 559.4296875 l 1
 347.58203125 404.23046875 l 1
 501.811523438 404.23046875 l 1
 471.579101562 273.280273438 l 1
 317.349609375 273.280273438 l 1
-9.55859375 96.740234375 m 1
 430.821289062 96.740234375 l 1
 400.588867188 -34.2099609375 l 1
 -39.791015625 -34.2099609375 l 1
 -9.55859375 96.740234375 l 1
EndSplineSet
EndChar

StartChar: uni00B2
Encoding: 178 178 115
Width: 353
GlyphClass: 2
Flags: MW
HStem: 417.811 106.699<243.029 335.196>
VStem: 48.0723 274.51 200.362 122.22
LayerCount: 2
Fore
SplineSet
269.232421875 747.610351562 m 0xa0
 261.756835938 747.610351562 249.483398438 744 244.3828125 721.905273438 c 2
 240.015625 702.990234375 l 1
 123.615234375 702.990234375 l 1
 129.326171875 727.725585938 l 2
 137.661132812 763.827148438 157.513671875 794.26953125 188.279296875 817.250976562 c 0
 219.180664062 840.337890625 256.188476562 851.400390625 298.043945312 851.400390625 c 0
 338.181640625 851.400390625 369.03515625 839.666992188 388.928710938 815.639648438 c 0
 408.580078125 791.904296875 414.764648438 762.456054688 406.969726562 728.6953125 c 2
 404.506835938 718.025390625 l 2xc0
 397.8046875 688.997070312 384.077148438 658.725585938 340.217773438 617.51171875 c 0
 340.146484375 617.443359375 275.041015625 555.142578125 243.029296875 524.509765625 c 1
 359.830078125 524.509765625 l 1xa0
 335.196289062 417.810546875 l 1
 60.6865234375 417.810546875 l 1
 81.7783203125 509.169921875 l 1xc0
 255.83203125 677.819335938 l 2
 271.397460938 692.919921875 279.517578125 706.029296875 282.0625 717.0546875 c 2
 283.629882812 723.844726562 l 2
 286.888671875 737.95703125 283.794921875 747.610351562 269.232421875 747.610351562 c 0xa0
EndSplineSet
EndChar

StartChar: uni00B3
Encoding: 179 179 116
Width: 348
GlyphClass: 2
Flags: MW
HStem: 411.021 102.822<200.835 210.994> 584.653 102.819<214.123 220.94 190.385 243.708>
VStem: 41.2822 110.58 201.332 116.4
LayerCount: 2
Fore
SplineSet
341.209960938 645.483398438 m 1
 365.138671875 626.818359375 370.59765625 592.157226562 361.586914062 553.125 c 2
 359.123046875 542.455078125 l 2
 350.086914062 503.3125 329.583007812 470.759765625 297.825195312 446.684570312 c 0
 266.344726562 422.819335938 230.463867188 411.020507812 191.524414062 411.020507812 c 0
 148.673828125 411.020507812 116.454101562 420.69921875 96.4765625 441.536132812 c 0
 76.3349609375 462.541992188 71.27734375 493.094726562 79.986328125 530.818359375 c 2
 85.697265625 555.552734375 l 1
 196.27734375 555.552734375 l 1
 191.686523438 535.66796875 l 2
 189.177734375 524.803710938 189.318359375 513.842773438 212.352539062 513.842773438 c 0
 222.603515625 513.842773438 237.169921875 518.404296875 242.723632812 542.458007812 c 2
 244.739257812 551.1875 l 2
 250.948242188 578.083984375 239.505859375 584.653320312 220.940429688 584.653320312 c 2
 190.384765625 584.653320312 l 1
 214.123046875 687.47265625 l 1
 243.708007812 687.47265625 l 2
 254.6171875 687.47265625 270.103515625 690.46484375 275.571289062 714.1484375 c 2
 277.36328125 721.908203125 l 2
 283.03125 746.461914062 271.635742188 747.61328125 263.413085938 747.61328125 c 0
 244.893554688 747.61328125 239.635742188 739.161132812 236.99609375 727.727539062 c 2
 232.181640625 706.873046875 l 1
 122.572265625 706.873046875 l 1
 127.163085938 726.7578125 l 2
 144.825195312 803.258789062 204.592773438 851.403320312 291.254882812 851.403320312 c 0
 378.84375 851.403320312 411.494140625 798.708984375 395.778320312 730.63671875 c 2
 393.762695312 721.907226562 l 2
 386.404296875 690.032226562 368.493164062 663.987304688 341.209960938 645.483398438 c 1
EndSplineSet
EndChar

StartChar: acute
Encoding: 180 180 117
Width: 503
GlyphClass: 2
Flags: MW
HStem: 571.07 149.38<165.376 484.144>
VStem: 117.379 284.28
LayerCount: 2
Fore
SplineSet
321.1640625 720.450195312 m 1
 484.143554688 720.450195312 l 1
 294.66015625 571.0703125 l 1
 165.375976562 571.0703125 l 1
 321.1640625 720.450195312 l 1
EndSplineSet
EndChar

StartChar: uni00B5
Encoding: 181 181 118
Width: 523
GlyphClass: 2
Flags: MW
HStem: -5.10938 127.069<155.139 221.573> 505.48 20G<95.2441 235.892 235.892 235.892 374.603 515.253 515.253 515.253>
VStem: 57.7725 140.647 337.131 140.65
LayerCount: 2
Fore
SplineSet
95.244140625 525.48046875 m 1
 235.891601562 525.48046875 l 1
 160.983398438 201.015625 l 2
 154.793945312 174.205078125 157.025390625 155.030273438 166.006835938 141.93359375 c 0
 175.0859375 128.696289062 189.470703125 121.959960938 211.118164062 121.959960938 c 0
 232.028320312 121.959960938 249.862304688 128.65625 266.224609375 142.178710938 c 0
 282.12109375 155.315429688 293.53515625 174.337890625 299.694335938 201.015625 c 2
 374.602539062 525.48046875 l 1
 515.252929688 525.48046875 l 1
 394.100585938 0.7099609375 l 1
 256.360351562 0.7099609375 l 1
 263.040039062 29.6416015625 l 1
 233.166015625 6.6611328125 199.87890625 -5.109375 164.322265625 -5.109375 c 0
 145.956054688 -5.109375 129.3359375 -1.8984375 114.654296875 4.5341796875 c 1
 78.8369140625 -150.609375 l 1
 -60.8427734375 -150.609375 l 1
 95.244140625 525.48046875 l 1
EndSplineSet
EndChar

StartChar: paragraph
Encoding: 182 182 119
Width: 644
GlyphClass: 2
Flags: MW
HStem: 573.01 117.37<429.228 488.397 429.228 429.228>
VStem: 62.6221 318.16 253.712 127.07 439.952 124.16
LayerCount: 2
Fore
SplineSet
86.9931640625 468.735351562 m 0xd0
 113.395507812 583.09375 214.97265625 690.379882812 368.5390625 690.379882812 c 2
 639.654296875 690.379882812 l 1
 445.497070312 -150.609375 l 1
 321.336914062 -150.609375 l 1
 488.397460938 573.009765625 l 1
 429.227539062 573.009765625 l 1
 262.166992188 -150.609375 l 1
 135.096679688 -150.609375 l 1
 226.885742188 246.973632812 l 1xb0
 115.451171875 259.122070312 59.55078125 349.868164062 86.9931640625 468.735351562 c 0xd0
EndSplineSet
EndChar

StartChar: periodcentered
Encoding: 183 183 120
Width: 226
GlyphClass: 2
Flags: MW
HStem: 202.47 158.11<41.6533 160.352 5.15137 196.854>
VStem: 42.252 155.2
LayerCount: 2
Fore
SplineSet
41.6533203125 360.580078125 m 1
 196.853515625 360.580078125 l 1
 160.3515625 202.469726562 l 1
 5.1513671875 202.469726562 l 1
 41.6533203125 360.580078125 l 1
EndSplineSet
EndChar

StartChar: cedilla
Encoding: 184 184 121
Width: 503
GlyphClass: 2
Flags: MW
HStem: -150.609 184.3<150.916 166.344 33.1211 266.691>
VStem: 151.736 191.021
LayerCount: 2
Fore
SplineSet
150.916015625 33.6904296875 m 1
 266.69140625 33.6904296875 l 1
 166.34375 -150.609375 l 1
 33.12109375 -150.609375 l 1
 150.916015625 33.6904296875 l 1
EndSplineSet
EndChar

StartChar: uni00B9
Encoding: 185 185 122
Width: 262
GlyphClass: 2
Flags: MW
VStem: 99.4824 120.279
LayerCount: 2
Fore
SplineSet
101.951171875 659.5703125 m 1
 132.322265625 791.12109375 l 1
 218.486328125 844.610351562 l 1
 330.911132812 844.610351562 l 1
 232.375976562 417.810546875 l 1
 112.096679688 417.810546875 l 1
 178.66015625 706.129882812 l 1
 101.951171875 659.5703125 l 1
EndSplineSet
EndChar

StartChar: ordmasculine
Encoding: 186 186 123
Width: 362
GlyphClass: 2
Flags: MW
HStem: 413.93 97.9727<214.154 221.201> 648.672 97.9688<255.537 260.631>
VStem: 47.1025 106.699 220.732 107.67
LayerCount: 2
Fore
SplineSet
199.956054688 413.9296875 m 0
 150.512695312 413.9296875 62.638671875 430.465820312 90.95703125 553.125976562 c 2
 103.721679688 608.416015625 l 2
 114.125 653.475585938 134.508789062 688.943359375 166.034179688 712.4921875 c 0
 196.978515625 735.610351562 234.3046875 746.640625 276.768554688 746.640625 c 0
 330.534179688 746.640625 412.63671875 728.032226562 385.021484375 608.415039062 c 2
 372.256835938 553.125 l 2
 361.859375 508.088867188 341.641601562 472.536132812 310.450195312 448.665039062 c 0
 279.719726562 425.146484375 242.4453125 413.9296875 199.956054688 413.9296875 c 0
221.604492188 511.90234375 m 0
 236.501953125 511.90234375 255.96875 515.794921875 264.586914062 553.126953125 c 2
 277.127929688 607.447265625 l 2
 285.74609375 644.776367188 268.081054688 648.671875 253.180664062 648.671875 c 0
 238.283203125 648.671875 218.81640625 644.779296875 210.197265625 607.447265625 c 2
 197.65625 553.126953125 l 2
 189.038085938 515.797851562 206.703125 511.90234375 221.604492188 511.90234375 c 0
284.948242188 832.487304688 m 1024
EndSplineSet
EndChar

StartChar: guillemotright
Encoding: 187 187 124
Width: 528
GlyphClass: 2
Flags: W
LayerCount: 2
Fore
SplineSet
56.0888671875 355.87890625 m 1
 92.0751953125 511.750976562 l 1
 280.338867188 266.975585938 l 1
 -20.947265625 22.19921875 l 1
 15.0390625 178.071289062 l 1
 124.466796875 266.975585938 l 1
 56.0888671875 355.87890625 l 1
276.28515625 355.91015625 m 1
 312.282226562 511.828125 l 1
 499.52734375 266.975585938 l 1
 199.224609375 22.1220703125 l 1
 235.220703125 178.040039062 l 1
 343.76171875 266.975585938 l 1
 276.28515625 355.91015625 l 1
EndSplineSet
EndChar

StartChar: onequarter
Encoding: 188 188 125
Width: 801
GlyphClass: 3
Flags: MW
HStem: 0.709961 21G<24.2207 142.561 24.2207 24.2207 551.241 671.521 551.241 551.241> 56 106.7<556.938 564.006 708.92 710.477 556.938 684.286> 670.38 21G
VStem: 99.4824 120.279 634.922 120.28
LayerCount: 2
Fore
SplineSet
66.3447265625 505.33984375 m 1
 96.7158203125 636.891601562 l 1
 182.87890625 690.379882812 l 1
 295.303710938 690.379882812 l 1
 196.76953125 263.580078125 l 1
 76.490234375 263.580078125 l 1
 143.053710938 551.900390625 l 1
 66.3447265625 505.33984375 l 1
708.919921875 162.700195312 m 1
 735.110351562 162.700195312 l 1
 710.4765625 56 l 1
 684.286132812 56 l 1
 671.521484375 0.7099609375 l 1
 551.241210938 0.7099609375 l 1
 564.005859375 56 l 1
 406.866210938 56 l 1
 429.624023438 154.577148438 l 1
 607.607421875 427.509765625 l 1
 729.625 427.509765625 l 1
 612.603515625 248.060546875 l 1
 728.626953125 248.060546875 l 1
 708.919921875 162.700195312 l 1
588.639648438 162.700195312 m 1
 606.013671875 237.956054688 l 1
 556.938476562 162.700195312 l 1
 588.639648438 162.700195312 l 1
569.297851562 695.23046875 m 1
 688.63671875 695.23046875 l 1
 142.560546875 0.7099609375 l 1
 24.220703125 0.7099609375 l 1
 569.297851562 695.23046875 l 1
EndSplineSet
Ligature2: "'frac' Diagonal Fractions lookup 2 subtable" one slash four
EndChar

StartChar: onehalf
Encoding: 189 189 126
Width: 800
GlyphClass: 3
Flags: MW
HStem: 0.709961 106.7<590.024 682.191> 670.38 21G
VStem: 99.4824 120.279 491.362 274.51 643.652 122.22
LayerCount: 2
Fore
SplineSet
66.3447265625 505.33984375 m 1xe0
 96.7158203125 636.891601562 l 1
 182.87890625 690.379882812 l 1
 295.303710938 690.379882812 l 1
 196.76953125 263.580078125 l 1
 76.490234375 263.580078125 l 1
 143.053710938 551.900390625 l 1
 66.3447265625 505.33984375 l 1xe0
616.2265625 330.508789062 m 0
 608.744140625 330.508789062 596.477539062 326.895507812 591.376953125 304.803710938 c 2
 587.010742188 285.889648438 l 1
 470.610351562 285.889648438 l 1
 476.3203125 310.624023438 l 2
 484.655273438 346.725585938 504.509765625 377.16796875 535.2734375 400.151367188 c 0
 566.17578125 423.23828125 603.182617188 434.299804688 645.038085938 434.299804688 c 0
 685.17578125 434.299804688 716.030273438 422.567382812 735.922851562 398.540039062 c 0
 755.57421875 374.803710938 761.758789062 345.35546875 753.96484375 311.594726562 c 2
 751.500976562 300.924804688 l 2xf0
 744.799804688 271.896484375 731.071289062 241.625 687.212890625 200.411132812 c 0
 687.140625 200.34375 622.036132812 138.04296875 590.024414062 107.41015625 c 1
 706.825195312 107.41015625 l 1xe8
 682.19140625 0.7099609375 l 1
 407.681640625 0.7099609375 l 1
 428.7734375 92.0693359375 l 1xf0
 602.827148438 260.71875 l 2
 618.390625 275.81640625 626.510742188 288.924804688 629.057617188 299.954101562 c 2
 630.625 306.744140625 l 2xe8
 633.8828125 320.85546875 630.7890625 330.508789062 616.2265625 330.508789062 c 0
569.296875 695.228515625 m 1
 688.635742188 695.228515625 l 1
 142.559570312 0.7080078125 l 1
 24.2197265625 0.7080078125 l 1
 569.296875 695.228515625 l 1
EndSplineSet
Ligature2: "'frac' Diagonal Fractions lookup 2 subtable" one slash two
EndChar

StartChar: threequarters
Encoding: 190 190 127
Width: 886
GlyphClass: 3
Flags: MW
HStem: 0.710938 21G<109.581 227.921 109.581 109.581 636.602 756.882 636.602 636.602> 56.001 106.7<642.299 649.366 794.28 795.836 642.299 769.646> 256.79 102.821<165.228 175.387> 430.421 102.82<178.516 185.333 154.777 208.101>
VStem: 41.2822 110.58 201.332 116.4 720.282 120.28
LayerCount: 2
Fore
SplineSet
305.602539062 491.250976562 m 1
 329.5703125 472.555664062 334.973632812 437.849609375 325.98046875 398.895507812 c 2
 323.516601562 388.225585938 l 2
 314.479492188 349.083007812 293.9765625 316.530273438 262.21875 292.455078125 c 0
 230.73828125 268.58984375 194.856445312 256.790039062 155.916992188 256.790039062 c 0
 113.06640625 256.790039062 80.84765625 266.469726562 60.8701171875 287.305664062 c 0
 40.7294921875 308.3125 35.669921875 338.86328125 44.37890625 376.5859375 c 2
 50.08984375 401.321289062 l 1
 160.669921875 401.321289062 l 1
 156.079101562 381.436523438 l 2
 153.571289062 370.572265625 153.7109375 359.611328125 176.745117188 359.611328125 c 0
 186.99609375 359.611328125 201.563476562 364.172851562 207.116210938 388.2265625 c 2
 209.131835938 396.956054688 l 2
 215.340820312 423.8515625 203.8984375 430.420898438 185.333007812 430.420898438 c 2
 154.77734375 430.420898438 l 1
 178.515625 533.241210938 l 1
 208.100585938 533.241210938 l 2
 219.009765625 533.241210938 234.49609375 536.233398438 239.963867188 559.916015625 c 2
 241.755859375 567.67578125 l 2
 247.424804688 592.23046875 236.028320312 593.380859375 227.805664062 593.380859375 c 0
 209.286132812 593.380859375 204.028320312 584.928710938 201.389648438 573.49609375 c 2
 196.57421875 552.640625 l 1
 86.96484375 552.640625 l 1
 91.5556640625 572.526367188 l 2
 109.217773438 649.02734375 168.985351562 697.170898438 255.647460938 697.170898438 c 0
 343.236328125 697.170898438 375.88671875 644.4765625 360.170898438 576.405273438 c 2
 358.155273438 567.674804688 l 2
 350.796875 535.80078125 332.885742188 509.754882812 305.602539062 491.250976562 c 1
794.280273438 162.701171875 m 1
 820.469726562 162.701171875 l 1
 795.8359375 56.0009765625 l 1
 769.646484375 56.0009765625 l 1
 756.881835938 0.7109375 l 1
 636.6015625 0.7109375 l 1
 649.366210938 56.0009765625 l 1
 492.2265625 56.0009765625 l 1
 514.985351562 154.578125 l 1
 692.967773438 427.510742188 l 1
 814.984375 427.510742188 l 1
 697.962890625 248.061523438 l 1
 813.987304688 248.061523438 l 1
 794.280273438 162.701171875 l 1
674 162.701171875 m 1
 691.374023438 237.95703125 l 1
 642.298828125 162.701171875 l 1
 674 162.701171875 l 1
773.997070312 695.231445312 m 1
 227.920898438 0.7109375 l 1
 109.581054688 0.7109375 l 1
 654.657226562 695.231445312 l 1
 773.997070312 695.231445312 l 1
EndSplineSet
Ligature2: "'frac' Diagonal Fractions lookup 2 subtable" three slash four
EndChar

StartChar: questiondown
Encoding: 191 191 128
Width: 456
GlyphClass: 2
Flags: MW
HStem: -160.31 129.011<125.714 147.793> 379.01 146.471<204.854 317.509 171.038 351.324>
VStem: 38.373 144.529 167.382 146.471 299.306 137.955
LayerCount: 2
Fore
SplineSet
204.853515625 525.48046875 m 1xd0
 351.32421875 525.48046875 l 1
 317.508789062 379.009765625 l 1
 171.038085938 379.009765625 l 1
 204.853515625 525.48046875 l 1xd0
116.852539062 -160.309570312 m 0
 -5.50390625 -160.309570312 -64.5927734375 -82.822265625 -40.939453125 19.6298828125 c 0
 -27.4873046875 77.8974609375 -0.7119140625 117.557617188 48.9619140625 163.046875 c 2
 103.009765625 212.467773438 l 2
 121.397460938 229.451171875 133.435546875 243.322265625 139.147460938 252.974609375 c 0
 145.0546875 262.952148438 150.493164062 277.413085938 154.802734375 296.079101562 c 2
 163.6484375 334.393554688 l 1
 304.298828125 334.393554688 l 1
 293.4375 287.348632812 l 2
 286.862304688 258.870117188 278.833007812 235.91796875 268.66796875 218.111328125 c 0
 258.217773438 199.805664062 239.592773438 179.0625 212.828125 154.635742188 c 0
 212.77734375 154.58984375 155.026367188 101.3828125 155.026367188 101.3828125 c 2
 123.9609375 72.193359375 111.05859375 51.98046875 105.15625 26.416015625 c 0
 99.5234375 2.01953125 100.912109375 -31.298828125 150.516601562 -31.298828125 c 0
 178.3828125 -31.298828125 208.6015625 -23.2529296875 223.858398438 36.375 c 2
 226.3984375 46.30078125 l 1
 364.10546875 46.30078125 l 1xe8
 355.334960938 11.5146484375 337.446289062 -59.4296875 274.334960938 -109.868164062 c 0
 231.725585938 -143.921875 178.733398438 -160.309570312 116.852539062 -160.309570312 c 0
EndSplineSet
EndChar

StartChar: Agrave
Encoding: 192 192 129
Width: 607
GlyphClass: 2
Flags: MW
HStem: 0.709961 21G<-78.6494 -78.6494 -78.6494 77.1201 373.523 373.523 373.523 530.282> 130.69 126.1<217.312 351.521 217.312 362.791 147.868 351.521> 670.38 20G<325.456 443.623 443.623 443.623>
AnchorPoint: "Anchor-0" 382 680 basechar 0
LayerCount: 2
Fore
SplineSet
-78.6494140625 0.7099609375 m 1
 325.456054688 690.379882812 l 1
 443.623046875 690.379882812 l 1
 530.282226562 0.7099609375 l 1
 373.5234375 0.7099609375 l 1
 362.791015625 130.690429688 l 1
 147.868164062 130.690429688 l 1
 77.1201171875 0.7099609375 l 1
 -78.6494140625 0.7099609375 l 1
217.311523438 256.790039062 m 1
 351.521484375 256.790039062 l 1
 333.182617188 469.7578125 l 1
 217.311523438 256.790039062 l 1
250.5703125 885.350585938 m 1
 413.549804688 885.350585938 l 1
 500.36328125 735.969726562 l 1
 371.078125 735.969726562 l 1
 250.5703125 885.350585938 l 1
EndSplineSet
EndChar

StartChar: Aacute
Encoding: 193 193 130
Width: 607
GlyphClass: 2
Flags: MW
HStem: 0.709961 21G<-78.6494 -78.6494 -78.6494 77.1201 373.523 373.523 373.523 530.282> 130.69 126.1<217.312 351.521 217.312 362.791 147.868 351.521> 670.38 20G<325.456 443.623 443.623 443.623>
AnchorPoint: "Anchor-0" 382 680 basechar 0
LayerCount: 2
Fore
SplineSet
-78.6494140625 0.7099609375 m 1
 325.456054688 690.379882812 l 1
 443.623046875 690.379882812 l 1
 530.282226562 0.7099609375 l 1
 373.5234375 0.7099609375 l 1
 362.791015625 130.690429688 l 1
 147.868164062 130.690429688 l 1
 77.1201171875 0.7099609375 l 1
 -78.6494140625 0.7099609375 l 1
217.311523438 256.790039062 m 1
 351.521484375 256.790039062 l 1
 333.182617188 469.7578125 l 1
 217.311523438 256.790039062 l 1
439.744140625 885.350585938 m 1
 602.723632812 885.350585938 l 1
 413.241210938 735.969726562 l 1
 283.956054688 735.969726562 l 1
 439.744140625 885.350585938 l 1
EndSplineSet
EndChar

StartChar: Acircumflex
Encoding: 194 194 131
Width: 607
GlyphClass: 2
Flags: MW
HStem: 0.709961 21G<-78.6494 -78.6494 -78.6494 77.1201 373.523 373.523 373.523 530.282> 130.69 126.1<217.312 351.521 217.312 362.791 147.868 351.521> 670.38 20G<325.456 443.623 443.623 443.623>
AnchorPoint: "Anchor-0" 382 680 basechar 0
LayerCount: 2
Fore
SplineSet
-78.6494140625 0.7099609375 m 1
 325.456054688 690.379882812 l 1
 443.623046875 690.379882812 l 1
 530.282226562 0.7099609375 l 1
 373.5234375 0.7099609375 l 1
 362.791015625 130.690429688 l 1
 147.868164062 130.690429688 l 1
 77.1201171875 0.7099609375 l 1
 -78.6494140625 0.7099609375 l 1
217.311523438 256.790039062 m 1
 351.521484375 256.790039062 l 1
 333.182617188 469.7578125 l 1
 217.311523438 256.790039062 l 1
480.303710938 892.140625 m 1
 568.848632812 725.299804688 l 1
 449.336914062 725.299804688 l 1
 409.168945312 794.938476562 l 1
 336.844726562 725.299804688 l 1
 216.36328125 725.299804688 l 1
 381.9453125 892.140625 l 1
 480.303710938 892.140625 l 1
EndSplineSet
EndChar

StartChar: Atilde
Encoding: 195 195 132
Width: 607
GlyphClass: 2
Flags: MW
HStem: 0.709961 21G<-78.6494 -78.6494 -78.6494 77.1201 373.523 373.523 373.523 530.282> 130.69 126.1<217.312 351.521 217.312 362.791 147.868 351.521> 670.38 20G<325.456 443.623 443.623 443.623> 731.12 111.55<463.062 470.422> 767.979 111.551<351.738 359.827>
AnchorPoint: "Anchor-0" 382 680 basechar 0
LayerCount: 2
Fore
SplineSet
-78.6494140625 0.7099609375 m 1xe0
 325.456054688 690.379882812 l 1
 443.623046875 690.379882812 l 1
 530.282226562 0.7099609375 l 1
 373.5234375 0.7099609375 l 1
 362.791015625 130.690429688 l 1
 147.868164062 130.690429688 l 1
 77.1201171875 0.7099609375 l 1
 -78.6494140625 0.7099609375 l 1xe0
217.311523438 256.790039062 m 1
 351.521484375 256.790039062 l 1
 333.182617188 469.7578125 l 1
 217.311523438 256.790039062 l 1
452.633789062 731.120117188 m 0xf0
 396.086914062 731.120117188 379.758789062 767.979492188 339.89453125 767.979492188 c 0
 313.375976562 767.979492188 299.901367188 758.390625 243.547851562 718.288085938 c 1
 269.765625 831.8515625 l 1
 308.9453125 863.682617188 333.948242188 879.530273438 369.52734375 879.530273438 c 0xe8
 428.076171875 879.530273438 442.887695312 842.669921875 483.237304688 842.669921875 c 0
 510.9453125 842.669921875 524.544921875 853.018554688 579.119140625 894.544921875 c 1
 552.396484375 778.798828125 l 1
 513.21484375 746.966796875 488.209960938 731.120117188 452.633789062 731.120117188 c 0xf0
EndSplineSet
EndChar

StartChar: Adieresis
Encoding: 196 196 133
Width: 607
GlyphClass: 2
Flags: MW
HStem: 0.709961 21G<-78.6494 -78.6494 -78.6494 77.1201 373.523 373.523 373.523 530.282> 130.69 126.1<217.312 351.521 217.312 362.791 147.868 351.521> 670.38 20G<325.456 443.623 443.623 443.623> 735 132.891<270.325 363.806 239.646 394.485 270.325 425.886 456.565 550.046>
VStem: 153.802 124.16 340.042 124.16
AnchorPoint: "Anchor-0" 382 680 basechar 0
LayerCount: 2
Fore
SplineSet
-78.6494140625 0.7099609375 m 1
 325.456054688 690.379882812 l 1
 443.623046875 690.379882812 l 1
 530.282226562 0.7099609375 l 1
 373.5234375 0.7099609375 l 1
 362.791015625 130.690429688 l 1
 147.868164062 130.690429688 l 1
 77.1201171875 0.7099609375 l 1
 -78.6494140625 0.7099609375 l 1
217.311523438 256.790039062 m 1
 351.521484375 256.790039062 l 1
 333.182617188 469.7578125 l 1
 217.311523438 256.790039062 l 1
270.325195312 867.890625 m 1
 394.485351562 867.890625 l 1
 363.805664062 735 l 1
 239.645507812 735 l 1
 270.325195312 867.890625 l 1
456.565429688 867.890625 m 1
 580.725585938 867.890625 l 1
 550.045898438 735 l 1
 425.885742188 735 l 1
 456.565429688 867.890625 l 1
EndSplineSet
EndChar

StartChar: Aring
Encoding: 197 197 134
Width: 607
GlyphClass: 2
Flags: MW
HStem: 0.709961 21G<373.523 530.277 373.523 373.523> 130.691 126.1<147.869 351.523> 802.901 73.7188<413.576 422.225>
VStem: 200.362 75.6611 345.863 74.6885
AnchorPoint: "Anchor-0" 382 680 basechar 0
LayerCount: 2
Fore
SplineSet
513.44921875 765.5546875 m 0
 509.10546875 746.741210938 494.239257812 703.758789062 445.936523438 674.158203125 c 1
 530.27734375 0.7099609375 l 1
 373.5234375 0.7099609375 l 1
 362.791015625 130.690429688 l 1
 291.150390625 130.690429688 219.510742188 130.69140625 147.869140625 130.69140625 c 1
 77.12109375 0.7109375 l 1
 -78.6494140625 0.7109375 l 1
 317.174804688 676.24609375 l 1
 301.770507812 690.064453125 282.528320312 719.072265625 293.259765625 765.5546875 c 0
 300.514648438 796.978515625 317.305664062 823.978515625 343.205078125 845.020507812 c 0
 369.046875 866.014648438 398.15625 876.620117188 428.99609375 876.620117188 c 0
 459.836914062 876.620117188 484.048828125 866.014648438 500.196289062 845.020507812 c 0
 516.379882812 823.978515625 520.704101562 796.978515625 513.44921875 765.5546875 c 0
411.977539062 802.901367188 m 0
 390.602539062 802.901367188 373.741210938 786.431640625 368.920898438 765.555664062 c 0
 366.491210938 755.028320312 367.900390625 746.83984375 373.178710938 739.645507812 c 0
 378.478515625 732.420898438 385.3359375 729.181640625 394.958007812 729.181640625 c 0
 416.181640625 729.181640625 434.172851562 745.681640625 438.760742188 765.555664062 c 0
 443.818359375 787.4609375 432.47265625 802.901367188 411.977539062 802.901367188 c 0
217.313476562 256.791015625 m 1
 351.5234375 256.791015625 l 1
 333.18359375 469.758789062 l 1
 217.313476562 256.791015625 l 1
379.3203125 665.646484375 m 1024
EndSplineSet
EndChar

StartChar: AE
Encoding: 198 198 135
Width: 878
GlyphClass: 2
Flags: MW
HStem: 0.709961 130.95<506.784 764.642> 137.48 126.1<262.872 359.718 172.641 388.83> 282.98 130.949<571.951 786.158 541.719 816.391> 559.43 130.95<605.542 893.632 605.542 605.542>
VStem: 411.822 148.41
LayerCount: 2
Fore
SplineSet
-80.59765625 0.7099609375 m 1
 418.462890625 690.379882812 l 1
 923.864257812 690.379882812 l 1
 893.631835938 559.4296875 l 1
 605.541992188 559.4296875 l 1
 571.951171875 413.9296875 l 1
 816.390625 413.9296875 l 1
 786.158203125 282.98046875 l 1
 541.71875 282.98046875 l 1
 506.784179688 131.66015625 l 1
 794.874023438 131.66015625 l 1
 764.641601562 0.7099609375 l 1
 328.141601562 0.7099609375 l 1
 359.717773438 137.48046875 l 1
 172.640625 137.48046875 l 1
 76.07421875 0.7099609375 l 1
 -80.59765625 0.7099609375 l 1
388.830078125 263.580078125 m 1
 449.767578125 527.53125 l 1
 262.872070312 263.580078125 l 1
 388.830078125 263.580078125 l 1
EndSplineSet
EndChar

StartChar: Ccedilla
Encoding: 199 199 136
Width: 601
GlyphClass: 2
Flags: MW
HStem: 568.16 131.92<336.503 393.575>
VStem: 53.8926 148.409 411.822 145.5
LayerCount: 2
Fore
SplineSet
435.748046875 466.794921875 m 2
 448.28515625 521.099609375 431.306640625 568.16015625 355.842773438 568.16015625 c 0
 317.163085938 568.16015625 288.674804688 556.484375 267.547851562 534.514648438 c 0
 246.110351562 512.221679688 227.655273438 472.989257812 214.580078125 416.35546875 c 2
 181.212890625 271.825195312 l 2
 168.909179688 218.530273438 169.973632812 181.424804688 181.811523438 159.72265625 c 0
 193.52734375 138.244140625 217.151367188 126.810546875 255.888671875 126.810546875 c 0
 290.334960938 126.810546875 317.024414062 135.936523438 337.577148438 152.864257812 c 0
 358.395507812 170.008789062 372.666992188 193.569335938 379.984375 225.265625 c 2
 384.126953125 243.209960938 l 1
 529.626953125 243.209960938 l 1
 525.708007812 226.235351562 l 2
 511.28515625 163.762695312 483.739257812 112.379882812 442.484375 73.2919921875 c 0
 402.85546875 35.744140625 354.169921875 11.4150390625 297.619140625 0.1435546875 c 1
 215.828125 -150.609375 l 1
 82.5751953125 -150.609375 l 1
 176.068359375 -4.5869140625 l 1
 62.3671875 10.189453125 -10.9013671875 82.5185546875 32.35546875 269.884765625 c 2
 67.73828125 423.145507812 l 2
 93.6533203125 535.393554688 162.84375 700.080078125 387.268554688 700.080078125 c 0
 462.137695312 700.080078125 518.46875 680.099609375 554.623046875 639.284179688 c 0
 590.974609375 598.24609375 600.169921875 540.366210938 583.409179688 467.765625 c 2
 579.490234375 450.790039062 l 1
 432.052734375 450.790039062 l 1
 435.748046875 466.794921875 l 2
EndSplineSet
EndChar

StartChar: Egrave
Encoding: 200 200 137
Width: 535
GlyphClass: 2
Flags: MW
HStem: 0.709961 130.95<156.614 424.172> 282.98 130.949<221.781 445.688 191.549 475.921> 559.43 130.95<255.372 553.162 255.372 255.372>
VStem: 62.6221 147.44
AnchorPoint: "Anchor-0" 348 680 basechar 0
LayerCount: 2
Fore
SplineSet
156.614257812 131.66015625 m 1
 454.404296875 131.66015625 l 1
 424.171875 0.7099609375 l 1
 -21.05859375 0.7099609375 l 1
 138.1640625 690.379882812 l 1
 583.39453125 690.379882812 l 1
 553.162109375 559.4296875 l 1
 255.372070312 559.4296875 l 1
 221.78125 413.9296875 l 1
 475.920898438 413.9296875 l 1
 445.688476562 282.98046875 l 1
 191.548828125 282.98046875 l 1
 156.614257812 131.66015625 l 1
379.599609375 885.350585938 m 1
 466.413085938 735.969726562 l 1
 337.127929688 735.969726562 l 1
 216.620117188 885.350585938 l 1
 379.599609375 885.350585938 l 1
EndSplineSet
EndChar

StartChar: Eacute
Encoding: 201 201 138
Width: 535
GlyphClass: 2
Flags: MW
HStem: 0.709961 130.95<156.614 424.172> 282.98 130.949<221.781 445.688 191.549 475.921> 559.43 130.95<255.372 553.162 255.372 255.372>
VStem: 62.6221 147.44
AnchorPoint: "Anchor-0" 348 680 basechar 0
LayerCount: 2
Fore
SplineSet
156.614257812 131.66015625 m 1
 454.404296875 131.66015625 l 1
 424.171875 0.7099609375 l 1
 -21.05859375 0.7099609375 l 1
 138.1640625 690.379882812 l 1
 583.39453125 690.379882812 l 1
 553.162109375 559.4296875 l 1
 255.372070312 559.4296875 l 1
 221.78125 413.9296875 l 1
 475.920898438 413.9296875 l 1
 445.688476562 282.98046875 l 1
 191.548828125 282.98046875 l 1
 156.614257812 131.66015625 l 1
405.793945312 885.350585938 m 1
 568.774414062 885.350585938 l 1
 379.291015625 735.969726562 l 1
 250.005859375 735.969726562 l 1
 405.793945312 885.350585938 l 1
EndSplineSet
EndChar

StartChar: Ecircumflex
Encoding: 202 202 139
Width: 535
GlyphClass: 2
Flags: MW
HStem: 0.709961 130.95<156.614 424.172> 282.98 130.949<221.781 445.688 191.549 475.921> 559.43 130.95<255.372 553.162 255.372 255.372>
VStem: 62.6221 147.44
AnchorPoint: "Anchor-0" 348 680 basechar 0
LayerCount: 2
Fore
SplineSet
156.614257812 131.66015625 m 1
 454.404296875 131.66015625 l 1
 424.171875 0.7099609375 l 1
 -21.05859375 0.7099609375 l 1
 138.1640625 690.379882812 l 1
 583.39453125 690.379882812 l 1
 553.162109375 559.4296875 l 1
 255.372070312 559.4296875 l 1
 221.78125 413.9296875 l 1
 475.920898438 413.9296875 l 1
 445.688476562 282.98046875 l 1
 191.548828125 282.98046875 l 1
 156.614257812 131.66015625 l 1
347.995117188 892.140625 m 1
 446.353515625 892.140625 l 1
 534.8984375 725.299804688 l 1
 415.38671875 725.299804688 l 1
 375.21875 794.938476562 l 1
 302.89453125 725.299804688 l 1
 182.413085938 725.299804688 l 1
 347.995117188 892.140625 l 1
EndSplineSet
EndChar

StartChar: Edieresis
Encoding: 203 203 140
Width: 535
GlyphClass: 2
Flags: MW
HStem: 0.709961 130.95<156.614 424.172> 282.98 130.949<221.781 445.688 191.549 475.921> 559.43 130.95<255.372 553.162 255.372 255.372> 735 132.891<236.376 329.855 205.696 360.535 236.376 391.936 422.615 516.096>
VStem: 62.6221 147.44 119.853 124.159 306.092 124.16
AnchorPoint: "Anchor-0" 348 680 basechar 0
LayerCount: 2
Fore
SplineSet
156.614257812 131.66015625 m 1xfa
 454.404296875 131.66015625 l 1
 424.171875 0.7099609375 l 1
 -21.05859375 0.7099609375 l 1
 138.1640625 690.379882812 l 1
 583.39453125 690.379882812 l 1
 553.162109375 559.4296875 l 1
 255.372070312 559.4296875 l 1
 221.78125 413.9296875 l 1
 475.920898438 413.9296875 l 1
 445.688476562 282.98046875 l 1
 191.548828125 282.98046875 l 1
 156.614257812 131.66015625 l 1xfa
236.375976562 867.890625 m 1xf6
 360.53515625 867.890625 l 1
 329.85546875 735 l 1
 205.696289062 735 l 1
 236.375976562 867.890625 l 1xf6
422.615234375 867.890625 m 1
 546.775390625 867.890625 l 1
 516.095703125 735 l 1
 391.935546875 735 l 1
 422.615234375 867.890625 l 1
EndSplineSet
EndChar

StartChar: Igrave
Encoding: 204 204 141
Width: 270
GlyphClass: 2
Flags: MW
HStem: 0.709961 21G<-15.2383 132.201 -15.2383 -15.2383> 670.38 20G<143.984 291.424 291.424 291.424>
VStem: 68.4424 147.439
AnchorPoint: "Anchor-0" 214 680 basechar 0
LayerCount: 2
Fore
SplineSet
143.984375 690.379882812 m 1
 291.423828125 690.379882812 l 1
 132.201171875 0.7099609375 l 1
 -15.23828125 0.7099609375 l 1
 143.984375 690.379882812 l 1
82.759765625 885.350585938 m 1
 245.739257812 885.350585938 l 1
 332.552734375 735.969726562 l 1
 203.268554688 735.969726562 l 1
 82.759765625 885.350585938 l 1
EndSplineSet
EndChar

StartChar: Iacute
Encoding: 205 205 142
Width: 270
GlyphClass: 2
Flags: MW
HStem: 0.709961 21G<-15.2383 132.201 -15.2383 -15.2383> 670.38 20G<143.984 291.424 291.424 291.424>
VStem: 68.4424 147.439
AnchorPoint: "Anchor-0" 214 680 basechar 0
LayerCount: 2
Fore
SplineSet
143.984375 690.379882812 m 1
 291.423828125 690.379882812 l 1
 132.201171875 0.7099609375 l 1
 -15.23828125 0.7099609375 l 1
 143.984375 690.379882812 l 1
434.9140625 885.350585938 m 1
 245.430664062 735.969726562 l 1
 116.146484375 735.969726562 l 1
 271.934570312 885.350585938 l 1
 434.9140625 885.350585938 l 1
EndSplineSet
EndChar

StartChar: Icircumflex
Encoding: 206 206 143
Width: 270
GlyphClass: 2
Flags: MW
HStem: 0.709961 21G<-15.2383 132.201 -15.2383 -15.2383> 670.38 20G<143.984 291.424 291.424 291.424>
VStem: 68.4424 147.439
AnchorPoint: "Anchor-0" 214 680 basechar 0
LayerCount: 2
Fore
SplineSet
143.984375 690.379882812 m 1
 291.423828125 690.379882812 l 1
 132.201171875 0.7099609375 l 1
 -15.23828125 0.7099609375 l 1
 143.984375 690.379882812 l 1
214.135742188 892.140625 m 1
 312.493164062 892.140625 l 1
 401.038085938 725.299804688 l 1
 281.526367188 725.299804688 l 1
 241.358398438 794.938476562 l 1
 169.034179688 725.299804688 l 1
 48.552734375 725.299804688 l 1
 214.135742188 892.140625 l 1
EndSplineSet
EndChar

StartChar: Idieresis
Encoding: 207 207 144
Width: 270
GlyphClass: 2
Flags: MW
HStem: 0.709961 21G<-15.2383 132.201 -15.2383 -15.2383> 670.38 20G<143.984 291.424 291.424 291.424> 735 132.891<102.516 195.996 71.8359 226.676 102.516 258.076 288.756 382.236>
VStem: -14.0078 124.16 68.4424 147.439 172.232 124.16
AnchorPoint: "Anchor-0" 214 680 basechar 0
LayerCount: 2
Fore
SplineSet
143.984375 690.379882812 m 1xe8
 291.423828125 690.379882812 l 1
 132.201171875 0.7099609375 l 1
 -15.23828125 0.7099609375 l 1
 143.984375 690.379882812 l 1xe8
102.515625 867.890625 m 1xf0
 226.67578125 867.890625 l 1
 195.99609375 735 l 1
 71.8359375 735 l 1
 102.515625 867.890625 l 1xf0
288.755859375 867.890625 m 1xe4
 412.916015625 867.890625 l 1
 382.236328125 735 l 1
 258.076171875 735 l 1
 288.755859375 867.890625 l 1xe4
EndSplineSet
EndChar

StartChar: Eth
Encoding: 208 208 145
Width: 632
GlyphClass: 2
Flags: MW
HStem: 0.709961 130.95<187.653 251.996> 285.891 131.92<44.1963 75.8203 13.7402 106.276 44.1963 223.26 253.716 337.72> 559.43 130.95<286.411 383.896 286.411 286.411>
VStem: 93.6621 147.439 442.861 147.439
LayerCount: 2
Fore
SplineSet
602.130859375 414.415039062 m 2
 570.555664062 277.645507812 l 2
 548.438476562 181.845703125 509.776367188 110.583007812 452.572265625 66.0703125 c 0
 396.232421875 22.2314453125 328.900390625 0.7099609375 251.99609375 0.7099609375 c 2
 9.9814453125 0.7099609375 l 1
 75.8203125 285.890625 l 1
 13.740234375 285.890625 l 1
 44.1962890625 417.810546875 l 1
 106.276367188 417.810546875 l 1
 169.204101562 690.379882812 l 1
 415.099609375 690.379882812 l 2
 491.354492188 690.379882812 548.014648438 669.020507812 583.225585938 625.453125 c 0
 618.963867188 581.231445312 624.23828125 510.170898438 602.130859375 414.415039062 c 2
285.137695312 131.66015625 m 2
 348.762695312 131.66015625 397.610351562 167.169921875 423.33984375 278.615234375 c 2
 453.124023438 407.625 l 2
 480.020507812 524.125976562 448.8203125 559.4296875 383.895507812 559.4296875 c 2
 286.411132812 559.4296875 l 1
 253.715820312 417.810546875 l 1
 368.17578125 417.810546875 l 1
 337.719726562 285.890625 l 1
 223.259765625 285.890625 l 1
 187.653320312 131.66015625 l 1
 285.137695312 131.66015625 l 2
EndSplineSet
EndChar

StartChar: Ntilde
Encoding: 209 209 146
Width: 634
GlyphClass: 2
Flags: MW
HStem: 0.709961 21G<-21.0586 126.382 -21.0586 -21.0586 356.757 499.831 356.757 356.757> 670.38 20G<138.164 281.246 281.246 281.246 511.614 659.054 659.054 659.054> 731.12 111.55<476.643 484.002> 767.979 111.551<365.318 373.407>
VStem: 62.6221 147.44 436.072 147.439
AnchorPoint: "Anchor-0" 396 680 basechar 0
LayerCount: 2
Fore
SplineSet
659.053710938 690.379882812 m 1xcc
 499.831054688 0.7099609375 l 1
 356.756835938 0.7099609375 l 1
 216.630859375 391.622070312 l 1
 126.381835938 0.7099609375 l 1
 -21.05859375 0.7099609375 l 1
 138.1640625 690.379882812 l 1
 281.24609375 690.379882812 l 1
 421.158203125 298.572265625 l 1
 511.614257812 690.379882812 l 1
 659.053710938 690.379882812 l 1xcc
466.213867188 731.120117188 m 0xec
 409.666992188 731.120117188 393.338867188 767.979492188 353.474609375 767.979492188 c 0
 326.956054688 767.979492188 313.481445312 758.390625 257.127929688 718.288085938 c 1
 283.345703125 831.8515625 l 1
 322.525390625 863.682617188 347.528320312 879.530273438 383.107421875 879.530273438 c 0xdc
 441.65625 879.530273438 456.467773438 842.669921875 496.817382812 842.669921875 c 0
 524.525390625 842.669921875 538.125 853.018554688 592.69921875 894.544921875 c 1
 565.9765625 778.798828125 l 1
 526.794921875 746.966796875 501.790039062 731.120117188 466.213867188 731.120117188 c 0xec
EndSplineSet
EndChar

StartChar: Ograve
Encoding: 210 210 147
Width: 601
GlyphClass: 2
Flags: MW
HStem: -7.0498 133.86<233.578 256.648> 568.16 131.92<335.509 387.333>
VStem: 53.8926 148.408 411.821 147.44
AnchorPoint: "Anchor-0" 379 680 basechar 0
LayerCount: 2
Fore
SplineSet
67.73828125 423.145507812 m 2
 93.4365234375 534.454101562 162.006835938 700.080078125 385.327148438 700.080078125 c 0
 461.603515625 700.080078125 518.380859375 678.541992188 553.828125 634.666992188 c 0
 589.801757812 590.140625 595.21875 518.918945312 573.107421875 423.145507812 c 2
 537.724609375 269.884765625 l 2
 515.604492188 174.072265625 476.762695312 102.790039062 419.22265625 58.28515625 c 0
 362.577148438 14.4716796875 295.1015625 -7.0498046875 218.194335938 -7.0498046875 c 0
 80.6650390625 -7.0498046875 -16.587890625 57.8876953125 32.35546875 269.884765625 c 2
 67.73828125 423.145507812 l 2
252.977539062 126.810546875 m 0
 314.436523438 126.810546875 364.365234375 157.616210938 390.732421875 271.825195312 c 2
 424.099609375 416.35546875 l 2
 450.99609375 532.85546875 419.795898438 568.16015625 354.87109375 568.16015625 c 0
 316.146484375 568.16015625 287.876953125 556.606445312 267.192382812 535.018554688 c 0
 246.192382812 513.100585938 227.8125 473.67578125 214.579101562 416.35546875 c 2
 181.211914062 271.825195312 l 2
 168.740234375 217.805664062 169.322265625 180.416015625 180.325195312 159.084960938 c 0
 191.138671875 138.123046875 214.178710938 126.810546875 252.977539062 126.810546875 c 0
247.659179688 885.350585938 m 1
 410.638671875 885.350585938 l 1
 497.452148438 735.969726562 l 1
 368.166992188 735.969726562 l 1
 247.659179688 885.350585938 l 1
EndSplineSet
EndChar

StartChar: Oacute
Encoding: 211 211 148
Width: 601
GlyphClass: 2
Flags: MW
HStem: -7.0498 133.86<233.578 256.648> 568.16 131.92<335.509 387.333>
VStem: 53.8926 148.408 411.821 147.44
AnchorPoint: "Anchor-0" 379 680 basechar 0
LayerCount: 2
Fore
SplineSet
67.73828125 423.145507812 m 2
 93.4365234375 534.454101562 162.006835938 700.080078125 385.327148438 700.080078125 c 0
 461.603515625 700.080078125 518.380859375 678.541992188 553.828125 634.666992188 c 0
 589.801757812 590.140625 595.21875 518.918945312 573.107421875 423.145507812 c 2
 537.724609375 269.884765625 l 2
 515.604492188 174.072265625 476.762695312 102.790039062 419.22265625 58.28515625 c 0
 362.577148438 14.4716796875 295.1015625 -7.0498046875 218.194335938 -7.0498046875 c 0
 80.6650390625 -7.0498046875 -16.587890625 57.8876953125 32.35546875 269.884765625 c 2
 67.73828125 423.145507812 l 2
252.977539062 126.810546875 m 0
 314.436523438 126.810546875 364.365234375 157.616210938 390.732421875 271.825195312 c 2
 424.099609375 416.35546875 l 2
 450.99609375 532.85546875 419.795898438 568.16015625 354.87109375 568.16015625 c 0
 316.146484375 568.16015625 287.876953125 556.606445312 267.192382812 535.018554688 c 0
 246.192382812 513.100585938 227.8125 473.67578125 214.579101562 416.35546875 c 2
 181.211914062 271.825195312 l 2
 168.740234375 217.805664062 169.322265625 180.416015625 180.325195312 159.084960938 c 0
 191.138671875 138.123046875 214.178710938 126.810546875 252.977539062 126.810546875 c 0
436.833007812 885.350585938 m 1
 599.813476562 885.350585938 l 1
 410.330078125 735.969726562 l 1
 281.044921875 735.969726562 l 1
 436.833007812 885.350585938 l 1
EndSplineSet
EndChar

StartChar: Ocircumflex
Encoding: 212 212 149
Width: 601
GlyphClass: 2
Flags: MW
HStem: -7.0498 133.86<233.578 256.648> 568.16 131.92<335.509 387.333>
VStem: 53.8926 148.408 411.821 147.44
AnchorPoint: "Anchor-0" 379 680 basechar 0
LayerCount: 2
Fore
SplineSet
67.73828125 423.145507812 m 2
 93.4365234375 534.454101562 162.006835938 700.080078125 385.327148438 700.080078125 c 0
 461.603515625 700.080078125 518.380859375 678.541992188 553.828125 634.666992188 c 0
 589.801757812 590.140625 595.21875 518.918945312 573.107421875 423.145507812 c 2
 537.724609375 269.884765625 l 2
 515.604492188 174.072265625 476.762695312 102.790039062 419.22265625 58.28515625 c 0
 362.577148438 14.4716796875 295.1015625 -7.0498046875 218.194335938 -7.0498046875 c 0
 80.6650390625 -7.0498046875 -16.587890625 57.8876953125 32.35546875 269.884765625 c 2
 67.73828125 423.145507812 l 2
252.977539062 126.810546875 m 0
 314.436523438 126.810546875 364.365234375 157.616210938 390.732421875 271.825195312 c 2
 424.099609375 416.35546875 l 2
 450.99609375 532.85546875 419.795898438 568.16015625 354.87109375 568.16015625 c 0
 316.146484375 568.16015625 287.876953125 556.606445312 267.192382812 535.018554688 c 0
 246.192382812 513.100585938 227.8125 473.67578125 214.579101562 416.35546875 c 2
 181.211914062 271.825195312 l 2
 168.740234375 217.805664062 169.322265625 180.416015625 180.325195312 159.084960938 c 0
 191.138671875 138.123046875 214.178710938 126.810546875 252.977539062 126.810546875 c 0
379.034179688 892.140625 m 1
 477.392578125 892.140625 l 1
 565.9375 725.299804688 l 1
 446.42578125 725.299804688 l 1
 406.2578125 794.938476562 l 1
 333.93359375 725.299804688 l 1
 213.452148438 725.299804688 l 1
 379.034179688 892.140625 l 1
EndSplineSet
EndChar

StartChar: Otilde
Encoding: 213 213 150
Width: 601
GlyphClass: 2
Flags: MW
HStem: -7.0498 133.86<233.578 256.648> 568.16 131.92<335.509 387.333> 731.12 111.55<460.151 467.511> 767.979 111.551<348.827 356.916>
VStem: 53.8926 148.408 411.821 147.44
AnchorPoint: "Anchor-0" 379 680 basechar 0
LayerCount: 2
Fore
SplineSet
67.73828125 423.145507812 m 2xcc
 93.4365234375 534.454101562 162.006835938 700.080078125 385.327148438 700.080078125 c 0
 461.603515625 700.080078125 518.380859375 678.541992188 553.828125 634.666992188 c 0
 589.801757812 590.140625 595.21875 518.918945312 573.107421875 423.145507812 c 2
 537.724609375 269.884765625 l 2
 515.604492188 174.072265625 476.762695312 102.790039062 419.22265625 58.28515625 c 0
 362.577148438 14.4716796875 295.1015625 -7.0498046875 218.194335938 -7.0498046875 c 0
 80.6650390625 -7.0498046875 -16.587890625 57.8876953125 32.35546875 269.884765625 c 2
 67.73828125 423.145507812 l 2xcc
252.977539062 126.810546875 m 0
 314.436523438 126.810546875 364.365234375 157.616210938 390.732421875 271.825195312 c 2
 424.099609375 416.35546875 l 2
 450.99609375 532.85546875 419.795898438 568.16015625 354.87109375 568.16015625 c 0
 316.146484375 568.16015625 287.876953125 556.606445312 267.192382812 535.018554688 c 0
 246.192382812 513.100585938 227.8125 473.67578125 214.579101562 416.35546875 c 2
 181.211914062 271.825195312 l 2
 168.740234375 217.805664062 169.322265625 180.416015625 180.325195312 159.084960938 c 0
 191.138671875 138.123046875 214.178710938 126.810546875 252.977539062 126.810546875 c 0
449.72265625 731.120117188 m 0xec
 393.17578125 731.120117188 376.84765625 767.979492188 336.983398438 767.979492188 c 0
 310.465820312 767.979492188 296.991210938 758.390625 240.63671875 718.288085938 c 1
 266.854492188 831.8515625 l 1
 306.034179688 863.682617188 331.037109375 879.530273438 366.616210938 879.530273438 c 0xdc
 425.165039062 879.530273438 439.9765625 842.669921875 480.326171875 842.669921875 c 0
 508.034179688 842.669921875 521.633789062 853.018554688 576.208007812 894.544921875 c 1
 549.485351562 778.798828125 l 1
 510.303710938 746.966796875 485.299804688 731.120117188 449.72265625 731.120117188 c 0xec
EndSplineSet
EndChar

StartChar: Odieresis
Encoding: 214 214 151
Width: 601
GlyphClass: 2
Flags: MW
HStem: -7.0498 133.86<233.578 256.648> 568.16 131.92<335.509 387.333> 735 132.891<267.415 360.895 236.735 391.574 267.415 422.975 453.654 547.135>
VStem: 53.8926 148.408 150.892 124.159 337.131 124.16 411.821 147.44
AnchorPoint: "Anchor-0" 379 680 basechar 0
LayerCount: 2
Fore
SplineSet
67.73828125 423.145507812 m 2xf2
 93.4365234375 534.454101562 162.006835938 700.080078125 385.327148438 700.080078125 c 0
 461.603515625 700.080078125 518.380859375 678.541992188 553.828125 634.666992188 c 0
 589.801757812 590.140625 595.21875 518.918945312 573.107421875 423.145507812 c 2
 537.724609375 269.884765625 l 2
 515.604492188 174.072265625 476.762695312 102.790039062 419.22265625 58.28515625 c 0
 362.577148438 14.4716796875 295.1015625 -7.0498046875 218.194335938 -7.0498046875 c 0
 80.6650390625 -7.0498046875 -16.587890625 57.8876953125 32.35546875 269.884765625 c 2
 67.73828125 423.145507812 l 2xf2
252.977539062 126.810546875 m 0
 314.436523438 126.810546875 364.365234375 157.616210938 390.732421875 271.825195312 c 2
 424.099609375 416.35546875 l 2
 450.99609375 532.85546875 419.795898438 568.16015625 354.87109375 568.16015625 c 0
 316.146484375 568.16015625 287.876953125 556.606445312 267.192382812 535.018554688 c 0
 246.192382812 513.100585938 227.8125 473.67578125 214.579101562 416.35546875 c 2
 181.211914062 271.825195312 l 2
 168.740234375 217.805664062 169.322265625 180.416015625 180.325195312 159.084960938 c 0
 191.138671875 138.123046875 214.178710938 126.810546875 252.977539062 126.810546875 c 0
267.415039062 867.890625 m 1xe8
 391.57421875 867.890625 l 1
 360.89453125 735 l 1
 236.735351562 735 l 1
 267.415039062 867.890625 l 1xe8
453.654296875 867.890625 m 1xe4
 577.814453125 867.890625 l 1
 547.134765625 735 l 1
 422.974609375 735 l 1
 453.654296875 867.890625 l 1xe4
EndSplineSet
EndChar

StartChar: multiply
Encoding: 215 215 152
Width: 532
GlyphClass: 2
Flags: W
LayerCount: 2
Fore
SplineSet
232.723632812 190.463867188 m 1
 89.4296875 74.046875 l 1
 21.994140625 163.232421875 l 1
 164.051757812 278.645507812 l 1
 75.4951171875 395.044921875 l 1
 183.88671875 483.106445312 l 1
 273.63671875 367.67578125 l 1
 415.811523438 483.18359375 l 1
 483.248046875 393.998046875 l 1
 341.2265625 278.615234375 l 1
 429.971679688 163.232421875 l 1
 321.317382812 74.0166015625 l 1
 232.723632812 190.463867188 l 1
EndSplineSet
EndChar

StartChar: Oslash
Encoding: 216 216 153
Width: 601
GlyphClass: 2
Flags: MW
HStem: -7.0498 133.86<237.58 256.648> 568.159 131.921<335.51 369.986>
VStem: 53.8926 148.409 411.822 147.439
AnchorPoint: "Anchor-0" 379 680 basechar 0
LayerCount: 2
Fore
SplineSet
67.73828125 423.145507812 m 2
 93.4345703125 534.448242188 162.004882812 700.080078125 385.328125 700.080078125 c 0
 440.427734375 700.080078125 484.810546875 689.611328125 517.859375 668.076171875 c 1
 555.46484375 714.629882812 l 1
 647.977539062 714.629882812 l 1
 565.9296875 614.078125 l 1
 589.920898438 567.955078125 591.768554688 503.975585938 573.107421875 423.145507812 c 2
 537.724609375 269.884765625 l 2
 515.604492188 174.072265625 476.762695312 102.790039062 419.22265625 58.28515625 c 0
 362.577148438 14.4716796875 295.1015625 -7.0498046875 218.194335938 -7.0498046875 c 0
 163.67578125 -7.0498046875 119.571289062 3.1484375 86.45703125 24.111328125 c 1
 51.6083984375 -18.689453125 l 1
 -41.80078125 -18.689453125 l 1
 37.6591796875 79.0126953125 l 1
 14.7685546875 124.600585938 13.5732421875 188.53125 32.35546875 269.884765625 c 2
 67.73828125 423.145507812 l 2
354.872070312 568.159179688 m 0
 316.147460938 568.159179688 287.877929688 556.60546875 267.193359375 535.017578125 c 0
 246.192382812 513.099609375 227.813476562 473.674804688 214.580078125 416.354492188 c 2
 181.212890625 271.82421875 l 2
 179.346679688 263.743164062 177.795898438 256.276367188 176.551757812 249.439453125 c 1
 417.547851562 545.787109375 l 1
 405.356445312 560.408203125 385.099609375 568.159179688 354.872070312 568.159179688 c 0
252.978515625 126.810546875 m 0
 314.4375 126.810546875 364.366210938 157.616210938 390.733398438 271.825195312 c 2
 424.100585938 416.35546875 l 2
 426.453125 426.545898438 428.404296875 436.739257812 429.953125 446.9375 c 1
 187.452148438 148.563476562 l 1
 200.873046875 134.341796875 222.181640625 126.810546875 252.978515625 126.810546875 c 0
EndSplineSet
EndChar

StartChar: Ugrave
Encoding: 217 217 154
Width: 615
GlyphClass: 2
Flags: MW
HStem: -5.10938 130.95<241.183 274.028 241.183 301.121> 670.381 20G<138.165 285.605 285.605 285.605 491.245 639.655 639.655 639.655>
VStem: 62.623 147.44 415.703 148.41
AnchorPoint: "Anchor-0" 386 680 basechar 0
LayerCount: 2
Fore
SplineSet
227.374023438 -5.109375 m 0
 84.0654296875 -5.109375 -0.1005859375 91.4853515625 32.3525390625 232.055664062 c 2
 138.165039062 690.380859375 l 1
 285.60546875 690.380859375 l 1
 180.689453125 235.936523438 l 2
 172.284179688 199.529296875 175.600585938 172.846679688 189.075195312 154.208007812 c 0
 202.59375 135.509765625 224.758789062 125.840820312 257.606445312 125.840820312 c 0
 290.44921875 125.840820312 317.28125 135.510742188 339.791015625 154.267578125 c 0
 362.170898438 172.916015625 377.930664062 199.5625 386.329101562 235.936523438 c 2
 491.245117188 690.380859375 l 1
 639.655273438 690.380859375 l 1
 533.842773438 232.055664062 l 2
 502.16796875 94.8564453125 374.868164062 -5.109375 227.374023438 -5.109375 c 0
254.451171875 885.350585938 m 1
 417.430664062 885.350585938 l 1
 504.244140625 735.969726562 l 1
 374.958984375 735.969726562 l 1
 254.451171875 885.350585938 l 1
EndSplineSet
EndChar

StartChar: Uacute
Encoding: 218 218 155
Width: 615
GlyphClass: 2
Flags: MW
HStem: -5.10938 130.95<241.183 274.028 241.183 301.121> 670.381 20G<138.165 285.605 285.605 285.605 491.245 639.655 639.655 639.655>
VStem: 62.623 147.44 415.703 148.41
AnchorPoint: "Anchor-0" 386 680 basechar 0
LayerCount: 2
Fore
SplineSet
227.374023438 -5.109375 m 0
 84.0654296875 -5.109375 -0.1005859375 91.4853515625 32.3525390625 232.055664062 c 2
 138.165039062 690.380859375 l 1
 285.60546875 690.380859375 l 1
 180.689453125 235.936523438 l 2
 172.284179688 199.529296875 175.600585938 172.846679688 189.075195312 154.208007812 c 0
 202.59375 135.509765625 224.758789062 125.840820312 257.606445312 125.840820312 c 0
 290.44921875 125.840820312 317.28125 135.510742188 339.791015625 154.267578125 c 0
 362.170898438 172.916015625 377.930664062 199.5625 386.329101562 235.936523438 c 2
 491.245117188 690.380859375 l 1
 639.655273438 690.380859375 l 1
 533.842773438 232.055664062 l 2
 502.16796875 94.8564453125 374.868164062 -5.109375 227.374023438 -5.109375 c 0
443.625 885.350585938 m 1
 606.604492188 885.350585938 l 1
 417.122070312 735.969726562 l 1
 287.836914062 735.969726562 l 1
 443.625 885.350585938 l 1
EndSplineSet
EndChar

StartChar: Ucircumflex
Encoding: 219 219 156
Width: 615
GlyphClass: 2
Flags: MW
HStem: -5.10938 130.95<241.183 274.028 241.183 301.121> 670.381 20G<138.165 285.605 285.605 285.605 491.245 639.655 639.655 639.655>
VStem: 62.623 147.44 415.703 148.41
AnchorPoint: "Anchor-0" 386 680 basechar 0
LayerCount: 2
Fore
SplineSet
227.374023438 -5.109375 m 0
 84.0654296875 -5.109375 -0.1005859375 91.4853515625 32.3525390625 232.055664062 c 2
 138.165039062 690.380859375 l 1
 285.60546875 690.380859375 l 1
 180.689453125 235.936523438 l 2
 172.284179688 199.529296875 175.600585938 172.846679688 189.075195312 154.208007812 c 0
 202.59375 135.509765625 224.758789062 125.840820312 257.606445312 125.840820312 c 0
 290.44921875 125.840820312 317.28125 135.510742188 339.791015625 154.267578125 c 0
 362.170898438 172.916015625 377.930664062 199.5625 386.329101562 235.936523438 c 2
 491.245117188 690.380859375 l 1
 639.655273438 690.380859375 l 1
 533.842773438 232.055664062 l 2
 502.16796875 94.8564453125 374.868164062 -5.109375 227.374023438 -5.109375 c 0
385.826171875 892.140625 m 1
 484.184570312 892.140625 l 1
 572.729492188 725.299804688 l 1
 453.217773438 725.299804688 l 1
 413.049804688 794.938476562 l 1
 340.725585938 725.299804688 l 1
 220.244140625 725.299804688 l 1
 385.826171875 892.140625 l 1
EndSplineSet
EndChar

StartChar: Udieresis
Encoding: 220 220 157
Width: 615
GlyphClass: 2
Flags: MW
HStem: -5.10938 130.95<241.183 274.028 241.183 301.121> 670.381 20G<138.165 285.605 285.605 285.605 491.245 639.655 639.655 639.655> 735 132.891<274.207 367.687 243.527 398.366 274.207 429.767 460.446 553.927>
VStem: 62.623 147.44 157.684 124.159 343.923 124.16 415.703 148.41
AnchorPoint: "Anchor-0" 386 680 basechar 0
LayerCount: 2
Fore
SplineSet
227.374023438 -5.109375 m 0xf2
 84.0654296875 -5.109375 -0.1005859375 91.4853515625 32.3525390625 232.055664062 c 2
 138.165039062 690.380859375 l 1
 285.60546875 690.380859375 l 1
 180.689453125 235.936523438 l 2
 172.284179688 199.529296875 175.600585938 172.846679688 189.075195312 154.208007812 c 0
 202.59375 135.509765625 224.758789062 125.840820312 257.606445312 125.840820312 c 0
 290.44921875 125.840820312 317.28125 135.510742188 339.791015625 154.267578125 c 0
 362.170898438 172.916015625 377.930664062 199.5625 386.329101562 235.936523438 c 2
 491.245117188 690.380859375 l 1
 639.655273438 690.380859375 l 1
 533.842773438 232.055664062 l 2
 502.16796875 94.8564453125 374.868164062 -5.109375 227.374023438 -5.109375 c 0xf2
274.20703125 867.890625 m 1xe8
 398.366210938 867.890625 l 1
 367.686523438 735 l 1
 243.52734375 735 l 1
 274.20703125 867.890625 l 1xe8
460.446289062 867.890625 m 1xe4
 584.606445312 867.890625 l 1
 553.926757812 735 l 1
 429.766601562 735 l 1
 460.446289062 867.890625 l 1xe4
EndSplineSet
EndChar

StartChar: Yacute
Encoding: 221 221 158
Width: 544
GlyphClass: 2
Flags: MW
HStem: 0.709961 21G<120.562 268.002 120.562 120.562> 670.38 20G<78.6084 240.361 240.361 240.361 465.678 628.417 628.417 628.417>
VStem: 204.242 147.44
AnchorPoint: "Anchor-0" 350 680 basechar 0
LayerCount: 2
Fore
SplineSet
465.677734375 690.379882812 m 1
 628.416992188 690.379882812 l 1
 333.40234375 283.990234375 l 1
 268.001953125 0.7099609375 l 1
 120.561523438 0.7099609375 l 1
 185.739257812 283.025390625 l 1
 78.6083984375 690.379882812 l 1
 240.361328125 690.379882812 l 1
 293.811523438 433.922851562 l 1
 465.677734375 690.379882812 l 1
407.734375 885.350585938 m 1
 570.713867188 885.350585938 l 1
 381.23046875 735.969726562 l 1
 251.946289062 735.969726562 l 1
 407.734375 885.350585938 l 1
EndSplineSet
EndChar

StartChar: Thorn
Encoding: 222 222 159
Width: 569
GlyphClass: 2
Flags: MW
HStem: 0.709961 21G<-21.0586 126.382 -21.0586 -21.0586> 145.24 130.95<189.981 272.754 159.749 297.166> 448.851 130.949<260.075 337.027 229.843 373.08> 670.38 20G<138.164 285.604 285.604 285.604>
VStem: 62.6221 147.44 405.032 147.44
LayerCount: 2
Fore
SplineSet
551.538085938 359.125 m 0
 536.698242188 294.844726562 504.053710938 242.286132812 453.673828125 203.301757812 c 0
 403.2578125 164.287109375 342.486328125 145.240234375 272.75390625 145.240234375 c 2
 159.749023438 145.240234375 l 1
 126.381835938 0.7099609375 l 1
 -21.05859375 0.7099609375 l 1
 138.1640625 690.379882812 l 1
 285.604492188 690.379882812 l 1
 260.075195312 579.799804688 l 1
 373.080078125 579.799804688 l 2
 442.850585938 579.799804688 494.782226562 560.395507812 527.018554688 520.70703125 c 0
 559.28125 480.984375 567.092773438 426.499023438 551.538085938 359.125 c 0
297.166015625 276.190429688 m 2
 315.364257812 276.190429688 385.512695312 278.624023438 404.09765625 359.125 c 0
 408.541015625 378.370117188 423.307617188 448.850585938 337.02734375 448.850585938 c 2
 229.842773438 448.850585938 l 1
 189.981445312 276.190429688 l 1
 297.166015625 276.190429688 l 2
EndSplineSet
EndChar

StartChar: germandbls
Encoding: 223 223 160
Width: 527
GlyphClass: 2
Flags: MW
HStem: -3.16992 121.25<195.188 217.151 167.196 236.415> 351.852 120.279<276.93 281.656 249.161 317.185> 576.891 123.19<313.165 352.208>
VStem: 57.7744 140.649 341.984 139.679 350.714 139.679
LayerCount: 2
Fore
SplineSet
446.786132812 417.135742188 m 1xf8
 486.500976562 384.665039062 485.19140625 340.64453125 460.122070312 232.0546875 c 0
 446.557617188 173.299804688 431.40234375 127.74609375 413.942382812 94.7919921875 c 0
 370.594726562 12.9814453125 296.889648438 -3.169921875 217.151367188 -3.169921875 c 2
 167.196289062 -3.169921875 l 1
 195.188476562 118.080078125 l 1
 236.415039062 118.080078125 l 2
 271.947265625 118.080078125 289.3828125 129.133789062 300.110351562 158.276367188 c 0
 305.846679688 173.861328125 312.88671875 199.323242188 320.891601562 233.99609375 c 0xf4
 339.854492188 316.1328125 335.454101562 330.041992188 324.224609375 340.9609375 c 0
 317.515625 347.486328125 303.811523438 351.8515625 281.65625 351.8515625 c 2
 249.161132812 351.8515625 l 1
 276.9296875 472.130859375 l 1
 317.184570312 472.130859375 l 2
 346.96484375 472.130859375 369.3359375 481.64453125 379.12109375 524.026367188 c 0
 385.456054688 551.469726562 382.4453125 576.890625 321.969726562 576.890625 c 0
 268.471679688 576.890625 242.587890625 554.46484375 231.081054688 504.625976562 c 2
 114.743164062 0.7109375 l 1
 -25.90625 0.7109375 l 1
 87.96875 493.956054688 l 2
 103.126953125 559.615234375 131.666992188 611.235351562 174.686523438 647.033203125 c 0
 218.122070312 683.177734375 276.889648438 700.081054688 349.439453125 700.081054688 c 0
 414.235351562 700.081054688 462.587890625 685.904296875 493.076171875 656.157226562 c 0
 523.732421875 626.248046875 532.495117188 583.349609375 520.142578125 529.844726562 c 0
 505.958984375 468.41015625 475.336914062 436.91015625 446.786132812 417.135742188 c 1xf8
EndSplineSet
EndChar

StartChar: agrave
Encoding: 224 224 161
Width: 505
GlyphClass: 2
Flags: MW
HStem: -5.11035 117.369<101.667 197.852> 216.049 102.821<178.883 309.443 212.929 285.703> 418.78 112.52<259.873 284.565>
VStem: 40.3115 136.768 319.669 139.681
AnchorPoint: "Anchor-0" 285 515 basechar 0
LayerCount: 2
Fore
SplineSet
289.1328125 531.299804688 m 0
 335.974609375 531.299804688 496.865234375 525.668945312 454.608398438 342.633789062 c 2
 375.668945312 0.708984375 l 1
 238.8984375 0.708984375 l 1
 245.915039062 31.1015625 l 1
 211.015625 6.7060546875 178.146484375 -5.1103515625 128.430664062 -5.1103515625 c 0
 74.904296875 -5.1103515625 35.2001953125 9.3818359375 11.333984375 39.5009765625 c 0
 -12.494140625 69.57421875 -17.884765625 111.095703125 -6.0830078125 162.21484375 c 0
 4.916015625 209.856445312 30.244140625 248.849609375 69.576171875 277.118164062 c 0
 108.881835938 305.368164062 157.021484375 318.870117188 212.928710938 318.870117188 c 2
 309.443359375 318.870117188 l 1
 316.2734375 348.455078125 l 2
 328.076171875 399.580078125 306.946289062 418.780273438 262.184570312 418.780273438 c 0
 241.223632812 418.780273438 224.723632812 413.599609375 211.599609375 404.241210938 c 0
 198.499023438 394.8984375 190.413085938 383.102539062 186.668945312 366.884765625 c 2
 183.645507812 353.790039062 l 1
 51.7255859375 353.790039062 l 1
 54.97265625 367.85546875 l 2
 66.4619140625 417.619140625 93.9755859375 458.3046875 136.845703125 487.779296875 c 0
 179.532226562 517.12890625 230.61328125 531.299804688 289.1328125 531.299804688 c 0
131.356445312 165.124023438 m 0
 125.6796875 140.536132812 127.14453125 112.258789062 182.686523438 112.258789062 c 0
 213.016601562 112.258789062 234.265625 119.33984375 248.01953125 130.932617188 c 0
 262.142578125 142.836914062 273.23828125 162.05859375 279.768554688 190.34375 c 2
 285.703125 216.048828125 l 1
 208.588867188 216.048828125 l 2
 149.177734375 216.048828125 136.260742188 186.366210938 131.356445312 165.124023438 c 0
153.327148438 720.44921875 m 1
 316.306640625 720.44921875 l 1
 403.120117188 571.069335938 l 1
 273.834960938 571.069335938 l 1
 153.327148438 720.44921875 l 1
EndSplineSet
EndChar

StartChar: aacute
Encoding: 225 225 162
Width: 505
GlyphClass: 2
Flags: MW
HStem: -5.11035 117.369<101.667 197.852> 216.049 102.821<178.883 309.443 212.929 285.703> 418.78 112.52<259.873 284.565>
VStem: 40.3115 136.768 319.669 139.681
AnchorPoint: "Anchor-0" 285 515 basechar 0
LayerCount: 2
Fore
SplineSet
289.1328125 531.299804688 m 0
 335.974609375 531.299804688 496.865234375 525.668945312 454.608398438 342.633789062 c 2
 375.668945312 0.708984375 l 1
 238.8984375 0.708984375 l 1
 245.915039062 31.1015625 l 1
 211.015625 6.7060546875 178.146484375 -5.1103515625 128.430664062 -5.1103515625 c 0
 74.904296875 -5.1103515625 35.2001953125 9.3818359375 11.333984375 39.5009765625 c 0
 -12.494140625 69.57421875 -17.884765625 111.095703125 -6.0830078125 162.21484375 c 0
 4.916015625 209.856445312 30.244140625 248.849609375 69.576171875 277.118164062 c 0
 108.881835938 305.368164062 157.021484375 318.870117188 212.928710938 318.870117188 c 2
 309.443359375 318.870117188 l 1
 316.2734375 348.455078125 l 2
 328.076171875 399.580078125 306.946289062 418.780273438 262.184570312 418.780273438 c 0
 241.223632812 418.780273438 224.723632812 413.599609375 211.599609375 404.241210938 c 0
 198.499023438 394.8984375 190.413085938 383.102539062 186.668945312 366.884765625 c 2
 183.645507812 353.790039062 l 1
 51.7255859375 353.790039062 l 1
 54.97265625 367.85546875 l 2
 66.4619140625 417.619140625 93.9755859375 458.3046875 136.845703125 487.779296875 c 0
 179.532226562 517.12890625 230.61328125 531.299804688 289.1328125 531.299804688 c 0
131.356445312 165.124023438 m 0
 125.6796875 140.536132812 127.14453125 112.258789062 182.686523438 112.258789062 c 0
 213.016601562 112.258789062 234.265625 119.33984375 248.01953125 130.932617188 c 0
 262.142578125 142.836914062 273.23828125 162.05859375 279.768554688 190.34375 c 2
 285.703125 216.048828125 l 1
 208.588867188 216.048828125 l 2
 149.177734375 216.048828125 136.260742188 186.366210938 131.356445312 165.124023438 c 0
342.500976562 720.44921875 m 1
 505.48046875 720.44921875 l 1
 315.998046875 571.069335938 l 1
 186.712890625 571.069335938 l 1
 342.500976562 720.44921875 l 1
EndSplineSet
EndChar

StartChar: acircumflex
Encoding: 226 226 163
Width: 505
GlyphClass: 2
Flags: MW
HStem: -5.11035 117.369<101.667 197.852> 216.049 102.821<178.883 309.443 212.929 285.703> 418.78 112.52<259.873 284.565>
VStem: 40.3115 136.768 319.669 139.681
AnchorPoint: "Anchor-0" 285 515 basechar 0
LayerCount: 2
Fore
SplineSet
289.1328125 531.299804688 m 0
 335.974609375 531.299804688 496.865234375 525.668945312 454.608398438 342.633789062 c 2
 375.668945312 0.708984375 l 1
 238.8984375 0.708984375 l 1
 245.915039062 31.1015625 l 1
 211.015625 6.7060546875 178.146484375 -5.1103515625 128.430664062 -5.1103515625 c 0
 74.904296875 -5.1103515625 35.2001953125 9.3818359375 11.333984375 39.5009765625 c 0
 -12.494140625 69.57421875 -17.884765625 111.095703125 -6.0830078125 162.21484375 c 0
 4.916015625 209.856445312 30.244140625 248.849609375 69.576171875 277.118164062 c 0
 108.881835938 305.368164062 157.021484375 318.870117188 212.928710938 318.870117188 c 2
 309.443359375 318.870117188 l 1
 316.2734375 348.455078125 l 2
 328.076171875 399.580078125 306.946289062 418.780273438 262.184570312 418.780273438 c 0
 241.223632812 418.780273438 224.723632812 413.599609375 211.599609375 404.241210938 c 0
 198.499023438 394.8984375 190.413085938 383.102539062 186.668945312 366.884765625 c 2
 183.645507812 353.790039062 l 1
 51.7255859375 353.790039062 l 1
 54.97265625 367.85546875 l 2
 66.4619140625 417.619140625 93.9755859375 458.3046875 136.845703125 487.779296875 c 0
 179.532226562 517.12890625 230.61328125 531.299804688 289.1328125 531.299804688 c 0
131.356445312 165.124023438 m 0
 125.6796875 140.536132812 127.14453125 112.258789062 182.686523438 112.258789062 c 0
 213.016601562 112.258789062 234.265625 119.33984375 248.01953125 130.932617188 c 0
 262.142578125 142.836914062 273.23828125 162.05859375 279.768554688 190.34375 c 2
 285.703125 216.048828125 l 1
 208.588867188 216.048828125 l 2
 149.177734375 216.048828125 136.260742188 186.366210938 131.356445312 165.124023438 c 0
284.702148438 727.239257812 m 1
 383.060546875 727.239257812 l 1
 471.60546875 560.399414062 l 1
 352.09375 560.399414062 l 1
 311.924804688 630.037109375 l 1
 239.6015625 560.399414062 l 1
 119.120117188 560.399414062 l 1
 284.702148438 727.239257812 l 1
EndSplineSet
EndChar

StartChar: atilde
Encoding: 227 227 164
Width: 505
GlyphClass: 2
Flags: MW
HStem: -5.11035 117.369<101.667 197.852> 216.049 102.821<178.883 309.443 212.929 285.703> 418.78 112.52<259.873 284.565> 566.22 111.551<365.815 373.18> 603.079 111.551<254.496 262.583>
VStem: 40.3115 136.768 319.669 139.681
AnchorPoint: "Anchor-0" 285 515 basechar 0
LayerCount: 2
Fore
SplineSet
289.1328125 531.299804688 m 0xe6
 335.974609375 531.299804688 496.865234375 525.668945312 454.608398438 342.633789062 c 2
 375.668945312 0.708984375 l 1
 238.8984375 0.708984375 l 1
 245.915039062 31.1015625 l 1
 211.015625 6.7060546875 178.146484375 -5.1103515625 128.430664062 -5.1103515625 c 0
 74.904296875 -5.1103515625 35.2001953125 9.3818359375 11.333984375 39.5009765625 c 0
 -12.494140625 69.57421875 -17.884765625 111.095703125 -6.0830078125 162.21484375 c 0
 4.916015625 209.856445312 30.244140625 248.849609375 69.576171875 277.118164062 c 0
 108.881835938 305.368164062 157.021484375 318.870117188 212.928710938 318.870117188 c 2
 309.443359375 318.870117188 l 1
 316.2734375 348.455078125 l 2
 328.076171875 399.580078125 306.946289062 418.780273438 262.184570312 418.780273438 c 0
 241.223632812 418.780273438 224.723632812 413.599609375 211.599609375 404.241210938 c 0
 198.499023438 394.8984375 190.413085938 383.102539062 186.668945312 366.884765625 c 2
 183.645507812 353.790039062 l 1
 51.7255859375 353.790039062 l 1
 54.97265625 367.85546875 l 2
 66.4619140625 417.619140625 93.9755859375 458.3046875 136.845703125 487.779296875 c 0
 179.532226562 517.12890625 230.61328125 531.299804688 289.1328125 531.299804688 c 0xe6
131.356445312 165.124023438 m 0
 125.6796875 140.536132812 127.14453125 112.258789062 182.686523438 112.258789062 c 0
 213.016601562 112.258789062 234.265625 119.33984375 248.01953125 130.932617188 c 0
 262.142578125 142.836914062 273.23828125 162.05859375 279.768554688 190.34375 c 2
 285.703125 216.048828125 l 1
 208.588867188 216.048828125 l 2
 149.177734375 216.048828125 136.260742188 186.366210938 131.356445312 165.124023438 c 0
355.391601562 566.219726562 m 0xf6
 298.844726562 566.219726562 282.515625 603.079101562 242.651367188 603.079101562 c 0
 216.12890625 603.079101562 202.646484375 593.483398438 146.303710938 553.384765625 c 1
 172.522460938 666.950195312 l 1
 211.702148438 698.782226562 236.706054688 714.629882812 272.28515625 714.629882812 c 0xee
 330.8671875 714.629882812 345.634765625 677.770507812 385.995117188 677.770507812 c 0
 413.703125 677.770507812 427.303710938 688.119140625 481.876953125 729.645507812 c 1
 455.154296875 613.899414062 l 1
 415.97265625 582.06640625 390.967773438 566.219726562 355.391601562 566.219726562 c 0xf6
EndSplineSet
EndChar

StartChar: adieresis
Encoding: 228 228 165
Width: 505
GlyphClass: 2
Flags: MW
HStem: -5.11035 117.369<101.667 197.852> 216.049 102.821<178.883 309.443 212.929 285.703> 418.78 112.52<259.873 284.565> 570.1 132.89<173.082 266.562 142.402 297.242 173.082 328.643 359.322 452.803>
VStem: 40.3115 136.768 94.6289 124.16 280.869 124.16 319.669 139.681
AnchorPoint: "Anchor-0" 285 515 basechar 0
LayerCount: 2
Fore
SplineSet
289.1328125 531.299804688 m 0xf9
 335.974609375 531.299804688 496.865234375 525.668945312 454.608398438 342.633789062 c 2
 375.668945312 0.708984375 l 1
 238.8984375 0.708984375 l 1
 245.915039062 31.1015625 l 1
 211.015625 6.7060546875 178.146484375 -5.1103515625 128.430664062 -5.1103515625 c 0
 74.904296875 -5.1103515625 35.2001953125 9.3818359375 11.333984375 39.5009765625 c 0
 -12.494140625 69.57421875 -17.884765625 111.095703125 -6.0830078125 162.21484375 c 0
 4.916015625 209.856445312 30.244140625 248.849609375 69.576171875 277.118164062 c 0
 108.881835938 305.368164062 157.021484375 318.870117188 212.928710938 318.870117188 c 2
 309.443359375 318.870117188 l 1
 316.2734375 348.455078125 l 2
 328.076171875 399.580078125 306.946289062 418.780273438 262.184570312 418.780273438 c 0
 241.223632812 418.780273438 224.723632812 413.599609375 211.599609375 404.241210938 c 0
 198.499023438 394.8984375 190.413085938 383.102539062 186.668945312 366.884765625 c 2
 183.645507812 353.790039062 l 1
 51.7255859375 353.790039062 l 1
 54.97265625 367.85546875 l 2
 66.4619140625 417.619140625 93.9755859375 458.3046875 136.845703125 487.779296875 c 0
 179.532226562 517.12890625 230.61328125 531.299804688 289.1328125 531.299804688 c 0xf9
131.356445312 165.124023438 m 0
 125.6796875 140.536132812 127.14453125 112.258789062 182.686523438 112.258789062 c 0
 213.016601562 112.258789062 234.265625 119.33984375 248.01953125 130.932617188 c 0
 262.142578125 142.836914062 273.23828125 162.05859375 279.768554688 190.34375 c 2
 285.703125 216.048828125 l 1
 208.588867188 216.048828125 l 2
 149.177734375 216.048828125 136.260742188 186.366210938 131.356445312 165.124023438 c 0
173.08203125 702.989257812 m 1xf4
 297.2421875 702.989257812 l 1
 266.5625 570.099609375 l 1
 142.40234375 570.099609375 l 1
 173.08203125 702.989257812 l 1xf4
359.322265625 702.989257812 m 1xf2
 483.482421875 702.989257812 l 1
 452.802734375 570.099609375 l 1
 328.642578125 570.099609375 l 1
 359.322265625 702.989257812 l 1xf2
EndSplineSet
EndChar

StartChar: aring
Encoding: 229 229 166
Width: 505
GlyphClass: 2
Flags: MW
HStem: -5.11035 117.369<101.667 197.852> 216.049 102.821<178.883 309.443 212.929 285.703> 418.78 112.52<259.873 284.565> 678.739 73.7197<324.768 333.417>
VStem: 40.3115 136.768 140.22 75.6592 285.72 74.6895 319.669 139.681
AnchorPoint: "Anchor-0" 285 515 basechar 0
LayerCount: 2
Fore
SplineSet
289.1328125 531.299804688 m 0xf9
 335.974609375 531.299804688 496.865234375 525.668945312 454.608398438 342.633789062 c 2
 375.668945312 0.708984375 l 1
 238.8984375 0.708984375 l 1
 245.915039062 31.1015625 l 1
 211.015625 6.7060546875 178.146484375 -5.1103515625 128.430664062 -5.1103515625 c 0
 74.904296875 -5.1103515625 35.2001953125 9.3818359375 11.333984375 39.5009765625 c 0
 -12.494140625 69.57421875 -17.884765625 111.095703125 -6.0830078125 162.21484375 c 0
 4.916015625 209.856445312 30.244140625 248.849609375 69.576171875 277.118164062 c 0
 108.881835938 305.368164062 157.021484375 318.870117188 212.928710938 318.870117188 c 2
 309.443359375 318.870117188 l 1
 316.2734375 348.455078125 l 2
 328.076171875 399.580078125 306.946289062 418.780273438 262.184570312 418.780273438 c 0
 241.223632812 418.780273438 224.723632812 413.599609375 211.599609375 404.241210938 c 0
 198.499023438 394.8984375 190.413085938 383.102539062 186.668945312 366.884765625 c 2
 183.645507812 353.790039062 l 1
 51.7255859375 353.790039062 l 1
 54.97265625 367.85546875 l 2
 66.4619140625 417.619140625 93.9755859375 458.3046875 136.845703125 487.779296875 c 0
 179.532226562 517.12890625 230.61328125 531.299804688 289.1328125 531.299804688 c 0xf9
131.356445312 165.124023438 m 0
 125.6796875 140.536132812 127.14453125 112.258789062 182.686523438 112.258789062 c 0
 213.016601562 112.258789062 234.265625 119.33984375 248.01953125 130.932617188 c 0
 262.142578125 142.836914062 273.23828125 162.05859375 279.768554688 190.34375 c 2
 285.703125 216.048828125 l 1
 208.588867188 216.048828125 l 2
 149.177734375 216.048828125 136.260742188 186.366210938 131.356445312 165.124023438 c 0
204.452148438 641.39453125 m 0xf6
 211.70703125 672.817382812 228.498046875 699.817382812 254.3984375 720.859375 c 0
 280.239257812 741.853515625 309.34765625 752.458984375 340.188476562 752.458984375 c 0
 371.028320312 752.458984375 395.241210938 741.853515625 411.388671875 720.859375 c 0
 427.572265625 699.817382812 431.896484375 672.817382812 424.641601562 641.39453125 c 0
 417.521484375 610.553710938 400.760742188 583.892578125 374.919921875 562.8984375 c 0
 349.079101562 541.904296875 319.969726562 531.298828125 289.129882812 531.298828125 c 0
 258.2890625 531.298828125 234.077148438 541.904296875 217.9296875 562.8984375 c 0
 201.782226562 583.892578125 197.33203125 610.553710938 204.452148438 641.39453125 c 0xf6
306.149414062 605.01953125 m 0
 327.375976562 605.01953125 345.364257812 621.521484375 349.952148438 641.39453125 c 0
 355.009765625 663.298828125 343.6640625 678.739257812 323.168945312 678.739257812 c 0
 301.793945312 678.739257812 284.931640625 662.26953125 280.111328125 641.39453125 c 0
 277.680664062 630.866210938 279.091796875 622.677734375 284.37109375 615.482421875 c 0
 289.669921875 608.2578125 296.52734375 605.01953125 306.149414062 605.01953125 c 0
EndSplineSet
EndChar

